<?xml version="1.0" encoding="UTF-8" standalone="no"?><svg xmlns="http://www.w3.org/2000/svg" xmlns:xlink="http://www.w3.org/1999/xlink" contentScriptType="application/ecmascript" contentStyleType="text/css" height="1131px" preserveAspectRatio="none" style="width:706px;height:1131px;background:#FFFFFF;" version="1.1" viewBox="0 0 706 1131" width="706px" zoomAndPan="magnify"><defs/><g><rect fill="none" height="26.2969" style="stroke:none;stroke-width:1.0;" width="102" x="300.5" y="15"/><text fill="#000000" font-family="sans-serif" font-size="14" font-weight="bold" lengthAdjust="spacing" textLength="92" x="305.5" y="32.9951">Credentials</text><rect fill="#FFFFFF" height="245.2344" style="stroke:#222222;stroke-width:2.0;" width="373.5" x="87" y="48.2969"/><path d="M246,48.2969 L246,57.5938 L236,67.5938 L87,67.5938 " fill="none" style="stroke:#222222;stroke-width:2.0;"/><text fill="#000000" font-family="sans" font-size="14" lengthAdjust="spacing" textLength="149" x="90" y="62.292">Regulator Credential</text><ellipse cx="240" cy="87.5938" fill="#222222" rx="10" ry="10" style="stroke:none;stroke-width:1.0;"/><rect fill="#FFFFFF" height="33.9688" rx="12.5" ry="12.5" style="stroke:#222222;stroke-width:1.5;" width="258" x="111" y="117.5938"/><text fill="#000000" font-family="sans" font-size="12" lengthAdjust="spacing" textLength="86" x="121" y="138.7324">Actor issues a</text><text fill="#000000" font-family="sans" font-size="12" font-weight="bold" lengthAdjust="spacing" textLength="148" x="211" y="138.7324">RegulatorCredential</text><polygon fill="#FEFECE" points="154,171.5625,326,171.5625,338,183.5625,326,195.5625,154,195.5625,142,183.5625,154,171.5625" style="stroke:#222222;stroke-width:1.5;"/><text fill="#000000" font-family="sans" font-size="11" lengthAdjust="spacing" textLength="172" x="154" y="187.3706">Actor.Address ∈ RootOfTrust ?</text><text fill="#000000" font-family="sans" font-size="11" lengthAdjust="spacing" textLength="14" x="128" y="180.9683">no</text><text fill="#000000" font-family="sans" font-size="11" lengthAdjust="spacing" textLength="21" x="338" y="180.9683">yes</text><rect fill="#FFC0CB" height="33.9688" rx="12.5" ry="12.5" style="stroke:#222222;stroke-width:1.5;" width="50" x="107" y="205.5625"/><text fill="#000000" font-family="sans" font-size="12" lengthAdjust="spacing" textLength="30" x="117" y="226.7012">Error</text><ellipse cx="132" cy="269.5313" fill="#FFFFFF" rx="10" ry="10" style="stroke:#222222;stroke-width:1.5;"/><line style="stroke:#222222;stroke-width:2.5;" x1="125.8128" x2="138.1872" y1="263.3441" y2="275.7184"/><line style="stroke:#222222;stroke-width:2.5;" x1="138.1872" x2="125.8128" y1="263.3441" y2="275.7184"/><rect fill="#FFFFFF" height="33.9688" rx="12.5" ry="12.5" style="stroke:#222222;stroke-width:1.5;" width="185" x="255.5" y="205.5625"/><text fill="#000000" font-family="sans" font-size="12" lengthAdjust="spacing" textLength="165" x="265.5" y="226.7012">Regulator credential issued</text><ellipse cx="348" cy="270.5313" fill="#FFFFFF" rx="11" ry="11" style="stroke:#222222;stroke-width:1.0;"/><ellipse cx="348" cy="270.5313" fill="#222222" rx="6" ry="6" style="stroke:#909090;stroke-width:1.0;"/><rect fill="#FFFFFF" height="245.2344" style="stroke:#222222;stroke-width:2.0;" width="532.5" x="11" y="303.5313"/><path d="M189,303.5313 L189,312.8281 L179,322.8281 L11,322.8281 " fill="none" style="stroke:#222222;stroke-width:2.0;"/><text fill="#000000" font-family="sans" font-size="14" lengthAdjust="spacing" textLength="168" x="14" y="317.5264">Registration Credential</text><ellipse cx="240" cy="342.8281" fill="#222222" rx="10" ry="10" style="stroke:none;stroke-width:1.0;"/><rect fill="#FFFFFF" height="33.9688" rx="12.5" ry="12.5" style="stroke:#222222;stroke-width:1.5;" width="277" x="101.5" y="372.8281"/><text fill="#000000" font-family="sans" font-size="12" lengthAdjust="spacing" textLength="86" x="111.5" y="393.9668">Actor issues a</text><text fill="#000000" font-family="sans" font-size="12" font-weight="bold" lengthAdjust="spacing" textLength="167" x="201.5" y="393.9668">RegistrationCredential</text><polygon fill="#FEFECE" points="78,426.7969,402,426.7969,414,438.7969,402,450.7969,78,450.7969,66,438.7969,78,426.7969" style="stroke:#222222;stroke-width:1.5;"/><text fill="#000000" font-family="sans" font-size="11" lengthAdjust="spacing" textLength="324" x="78" y="442.605">RegistrationCredential.Issuer holds RegulatorCredential ?</text><text fill="#000000" font-family="sans" font-size="11" lengthAdjust="spacing" textLength="14" x="52" y="436.2026">no</text><text fill="#000000" font-family="sans" font-size="11" lengthAdjust="spacing" textLength="21" x="414" y="436.2026">yes</text><rect fill="#FFC0CB" height="33.9688" rx="12.5" ry="12.5" style="stroke:#222222;stroke-width:1.5;" width="50" x="31" y="460.7969"/><text fill="#000000" font-family="sans" font-size="12" lengthAdjust="spacing" textLength="30" x="41" y="481.9355">Error</text><ellipse cx="56" cy="524.7656" fill="#FFFFFF" rx="10" ry="10" style="stroke:#222222;stroke-width:1.5;"/><line style="stroke:#222222;stroke-width:2.5;" x1="49.8128" x2="62.1872" y1="518.5784" y2="530.9528"/><line style="stroke:#222222;stroke-width:2.5;" x1="62.1872" x2="49.8128" y1="518.5784" y2="530.9528"/><rect fill="#FFFFFF" height="33.9688" rx="12.5" ry="12.5" style="stroke:#222222;stroke-width:1.5;" width="199" x="324.5" y="460.7969"/><text fill="#000000" font-family="sans" font-size="12" lengthAdjust="spacing" textLength="179" x="334.5" y="481.9355">Registration credential issued</text><ellipse cx="424" cy="525.7656" fill="#FFFFFF" rx="11" ry="11" style="stroke:#222222;stroke-width:1.0;"/><ellipse cx="424" cy="525.7656" fill="#222222" rx="6" ry="6" style="stroke:#909090;stroke-width:1.0;"/><rect fill="#FFFFFF" height="294.2344" style="stroke:#222222;stroke-width:2.0;" width="672.5" x="22.5" y="558.7656"/><path d="M165.5,558.7656 L165.5,568.0625 L155.5,578.0625 L22.5,578.0625 " fill="none" style="stroke:#222222;stroke-width:2.0;"/><text fill="#000000" font-family="sans" font-size="14" lengthAdjust="spacing" textLength="133" x="25.5" y="572.7607">License Credential</text><ellipse cx="240" cy="598.0625" fill="#222222" rx="10" ry="10" style="stroke:none;stroke-width:1.0;"/><rect fill="#FFFFFF" height="33.9688" rx="12.5" ry="12.5" style="stroke:#222222;stroke-width:1.5;" width="241" x="119.5" y="628.0625"/><text fill="#000000" font-family="sans" font-size="12" lengthAdjust="spacing" textLength="86" x="129.5" y="649.2012">Actor issues a</text><text fill="#000000" font-family="sans" font-size="12" font-weight="bold" lengthAdjust="spacing" textLength="131" x="219.5" y="649.2012">LicenseCredential</text><polygon fill="#FEFECE" points="89.5,682.0313,390.5,682.0313,402.5,694.0313,390.5,706.0313,89.5,706.0313,77.5,694.0313,89.5,682.0313" style="stroke:#222222;stroke-width:1.5;"/><text fill="#000000" font-family="sans" font-size="11" lengthAdjust="spacing" textLength="301" x="89.5" y="697.8394">LicenseCredential.Issuer holds RegulatorCredential ?</text><text fill="#000000" font-family="sans" font-size="11" lengthAdjust="spacing" textLength="14" x="63.5" y="691.437">no</text><text fill="#000000" font-family="sans" font-size="11" lengthAdjust="spacing" textLength="21" x="402.5" y="691.437">yes</text><rect fill="#FFC0CB" height="33.9688" rx="12.5" ry="12.5" style="stroke:#222222;stroke-width:1.5;" width="50" x="42.5" y="716.0313"/><text fill="#000000" font-family="sans" font-size="12" lengthAdjust="spacing" textLength="30" x="52.5" y="737.1699">Error</text><ellipse cx="67.5" cy="795" fill="#FFFFFF" rx="10" ry="10" style="stroke:#222222;stroke-width:1.5;"/><line style="stroke:#222222;stroke-width:2.5;" x1="61.3128" x2="73.6872" y1="788.8128" y2="801.1872"/><line style="stroke:#222222;stroke-width:2.5;" x1="73.6872" x2="61.3128" y1="788.8128" y2="801.1872"/><polygon fill="#FEFECE" points="251,716.0313,574,716.0313,586,728.0313,574,740.0313,251,740.0313,239,728.0313,251,716.0313" style="stroke:#222222;stroke-width:1.5;"/><text fill="#000000" font-family="sans" font-size="11" lengthAdjust="spacing" textLength="323" x="251" y="731.8394">LicenseCredential.Subject holds RegistrationCredential ?</text><text fill="#000000" font-family="sans" font-size="11" lengthAdjust="spacing" textLength="14" x="225" y="725.437">no</text><text fill="#000000" font-family="sans" font-size="11" lengthAdjust="spacing" textLength="21" x="586" y="725.437">yes</text><rect fill="#FFC0CB" height="33.9688" rx="12.5" ry="12.5" style="stroke:#222222;stroke-width:1.5;" width="50" x="204" y="750.0313"/><text fill="#000000" font-family="sans" font-size="12" lengthAdjust="spacing" textLength="30" x="214" y="771.1699">Error</text><ellipse cx="229" cy="829" fill="#FFFFFF" rx="10" ry="10" style="stroke:#222222;stroke-width:1.5;"/><line style="stroke:#222222;stroke-width:2.5;" x1="222.8128" x2="235.1872" y1="822.8128" y2="835.1872"/><line style="stroke:#222222;stroke-width:2.5;" x1="235.1872" x2="222.8128" y1="822.8128" y2="835.1872"/><rect fill="#FFFFFF" height="33.9688" rx="12.5" ry="12.5" style="stroke:#222222;stroke-width:1.5;" width="174" x="509" y="750.0313"/><text fill="#000000" font-family="sans" font-size="12" lengthAdjust="spacing" textLength="154" x="519" y="771.1699">License credential issued</text><ellipse cx="596" cy="830" fill="#FFFFFF" rx="11" ry="11" style="stroke:#222222;stroke-width:1.0;"/><ellipse cx="596" cy="830" fill="#222222" rx="6" ry="6" style="stroke:#909090;stroke-width:1.0;"/><rect fill="#FFFFFF" height="245.2344" style="stroke:#222222;stroke-width:2.0;" width="460.5" x="36.5" y="863"/><path d="M156.5,863 L156.5,872.2969 L146.5,882.2969 L36.5,882.2969 " fill="none" style="stroke:#222222;stroke-width:2.0;"/><text fill="#000000" font-family="sans" font-size="14" lengthAdjust="spacing" textLength="110" x="39.5" y="876.9951">User Credential</text><ellipse cx="240" cy="902.2969" fill="#222222" rx="10" ry="10" style="stroke:none;stroke-width:1.0;"/><rect fill="#FFFFFF" height="33.9688" rx="12.5" ry="12.5" style="stroke:#222222;stroke-width:1.5;" width="219" x="130.5" y="932.2969"/><text fill="#000000" font-family="sans" font-size="12" lengthAdjust="spacing" textLength="86" x="140.5" y="953.4355">Actor issues a</text><text fill="#000000" font-family="sans" font-size="12" font-weight="bold" lengthAdjust="spacing" textLength="109" x="230.5" y="953.4355">UserCredential</text><polygon fill="#FEFECE" points="103.5,986.2656,376.5,986.2656,388.5,998.2656,376.5,1010.2656,103.5,1010.2656,91.5,998.2656,103.5,986.2656" style="stroke:#222222;stroke-width:1.5;"/><text fill="#000000" font-family="sans" font-size="11" lengthAdjust="spacing" textLength="273" x="103.5" y="1002.0737">UserCredential.Issuer holds LicenseCredential ?</text><text fill="#000000" font-family="sans" font-size="11" lengthAdjust="spacing" textLength="14" x="77.5" y="995.6714">no</text><text fill="#000000" font-family="sans" font-size="11" lengthAdjust="spacing" textLength="21" x="388.5" y="995.6714">yes</text><rect fill="#FFC0CB" height="33.9688" rx="12.5" ry="12.5" style="stroke:#222222;stroke-width:1.5;" width="50" x="56.5" y="1020.2656"/><text fill="#000000" font-family="sans" font-size="12" lengthAdjust="spacing" textLength="30" x="66.5" y="1041.4043">Error</text><ellipse cx="81.5" cy="1084.2344" fill="#FFFFFF" rx="10" ry="10" style="stroke:#222222;stroke-width:1.5;"/><line style="stroke:#222222;stroke-width:2.5;" x1="75.3128" x2="87.6872" y1="1078.0472" y2="1090.4216"/><line style="stroke:#222222;stroke-width:2.5;" x1="87.6872" x2="75.3128" y1="1078.0472" y2="1090.4216"/><rect fill="#FFFFFF" height="33.9688" rx="12.5" ry="12.5" style="stroke:#222222;stroke-width:1.5;" width="157" x="320" y="1020.2656"/><text fill="#000000" font-family="sans" font-size="12" lengthAdjust="spacing" textLength="137" x="330" y="1041.4043">User credential issued</text><ellipse cx="398.5" cy="1085.2344" fill="#FFFFFF" rx="11" ry="11" style="stroke:#222222;stroke-width:1.0;"/><ellipse cx="398.5" cy="1085.2344" fill="#222222" rx="6" ry="6" style="stroke:#909090;stroke-width:1.0;"/><line style="stroke:#222222;stroke-width:1.5;" x1="240" x2="240" y1="97.5938" y2="117.5938"/><polygon fill="#222222" points="236,107.5938,240,117.5938,244,107.5938,240,111.5938" style="stroke:#222222;stroke-width:1.0;"/><line style="stroke:#222222;stroke-width:1.5;" x1="132" x2="132" y1="239.5313" y2="259.5313"/><polygon fill="#222222" points="128,249.5313,132,259.5313,136,249.5313,132,253.5313" style="stroke:#222222;stroke-width:1.0;"/><line style="stroke:#222222;stroke-width:1.5;" x1="348" x2="348" y1="239.5313" y2="259.5313"/><polygon fill="#222222" points="344,249.5313,348,259.5313,352,249.5313,348,253.5313" style="stroke:#222222;stroke-width:1.0;"/><line style="stroke:#222222;stroke-width:1.5;" x1="142" x2="132" y1="183.5625" y2="183.5625"/><line style="stroke:#222222;stroke-width:1.5;" x1="132" x2="132" y1="183.5625" y2="205.5625"/><polygon fill="#222222" points="128,195.5625,132,205.5625,136,195.5625,132,199.5625" style="stroke:#222222;stroke-width:1.0;"/><line style="stroke:#222222;stroke-width:1.5;" x1="338" x2="348" y1="183.5625" y2="183.5625"/><line style="stroke:#222222;stroke-width:1.5;" x1="348" x2="348" y1="183.5625" y2="205.5625"/><polygon fill="#222222" points="344,195.5625,348,205.5625,352,195.5625,348,199.5625" style="stroke:#222222;stroke-width:1.0;"/><line style="stroke:#222222;stroke-width:1.5;" x1="240" x2="240" y1="151.5625" y2="171.5625"/><polygon fill="#222222" points="236,161.5625,240,171.5625,244,161.5625,240,165.5625" style="stroke:#222222;stroke-width:1.0;"/><line style="stroke:#222222;stroke-width:1.5;" x1="240" x2="240" y1="352.8281" y2="372.8281"/><polygon fill="#222222" points="236,362.8281,240,372.8281,244,362.8281,240,366.8281" style="stroke:#222222;stroke-width:1.0;"/><line style="stroke:#222222;stroke-width:1.5;" x1="56" x2="56" y1="494.7656" y2="514.7656"/><polygon fill="#222222" points="52,504.7656,56,514.7656,60,504.7656,56,508.7656" style="stroke:#222222;stroke-width:1.0;"/><line style="stroke:#222222;stroke-width:1.5;" x1="424" x2="424" y1="494.7656" y2="514.7656"/><polygon fill="#222222" points="420,504.7656,424,514.7656,428,504.7656,424,508.7656" style="stroke:#222222;stroke-width:1.0;"/><line style="stroke:#222222;stroke-width:1.5;" x1="66" x2="56" y1="438.7969" y2="438.7969"/><line style="stroke:#222222;stroke-width:1.5;" x1="56" x2="56" y1="438.7969" y2="460.7969"/><polygon fill="#222222" points="52,450.7969,56,460.7969,60,450.7969,56,454.7969" style="stroke:#222222;stroke-width:1.0;"/><line style="stroke:#222222;stroke-width:1.5;" x1="414" x2="424" y1="438.7969" y2="438.7969"/><line style="stroke:#222222;stroke-width:1.5;" x1="424" x2="424" y1="438.7969" y2="460.7969"/><polygon fill="#222222" points="420,450.7969,424,460.7969,428,450.7969,424,454.7969" style="stroke:#222222;stroke-width:1.0;"/><line style="stroke:#222222;stroke-width:1.5;" x1="240" x2="240" y1="406.7969" y2="426.7969"/><polygon fill="#222222" points="236,416.7969,240,426.7969,244,416.7969,240,420.7969" style="stroke:#222222;stroke-width:1.0;"/><line style="stroke:#222222;stroke-width:1.5;" x1="240" x2="240" y1="608.0625" y2="628.0625"/><polygon fill="#222222" points="236,618.0625,240,628.0625,244,618.0625,240,622.0625" style="stroke:#222222;stroke-width:1.0;"/><line style="stroke:#222222;stroke-width:1.5;" x1="67.5" x2="67.5" y1="750" y2="785"/><polygon fill="#222222" points="63.5,775,67.5,785,71.5,775,67.5,779" style="stroke:#222222;stroke-width:1.0;"/><line style="stroke:#222222;stroke-width:1.5;" x1="229" x2="229" y1="784" y2="819"/><polygon fill="#222222" points="225,809,229,819,233,809,229,813" style="stroke:#222222;stroke-width:1.0;"/><line style="stroke:#222222;stroke-width:1.5;" x1="596" x2="596" y1="784" y2="819"/><polygon fill="#222222" points="592,809,596,819,600,809,596,813" style="stroke:#222222;stroke-width:1.0;"/><line style="stroke:#222222;stroke-width:1.5;" x1="239" x2="229" y1="728.0313" y2="728.0313"/><line style="stroke:#222222;stroke-width:1.5;" x1="229" x2="229" y1="728.0313" y2="750.0313"/><polygon fill="#222222" points="225,740.0313,229,750.0313,233,740.0313,229,744.0313" style="stroke:#222222;stroke-width:1.0;"/><line style="stroke:#222222;stroke-width:1.5;" x1="586" x2="596" y1="728.0313" y2="728.0313"/><line style="stroke:#222222;stroke-width:1.5;" x1="596" x2="596" y1="728.0313" y2="750.0313"/><polygon fill="#222222" points="592,740.0313,596,750.0313,600,740.0313,596,744.0313" style="stroke:#222222;stroke-width:1.0;"/><line style="stroke:#222222;stroke-width:1.5;" x1="77.5" x2="67.5" y1="694.0313" y2="694.0313"/><line style="stroke:#222222;stroke-width:1.5;" x1="67.5" x2="67.5" y1="694.0313" y2="716.0313"/><polygon fill="#222222" points="63.5,706.0313,67.5,716.0313,71.5,706.0313,67.5,710.0313" style="stroke:#222222;stroke-width:1.0;"/><line style="stroke:#222222;stroke-width:1.5;" x1="402.5" x2="412.5" y1="694.0313" y2="694.0313"/><line style="stroke:#222222;stroke-width:1.5;" x1="412.5" x2="412.5" y1="694.0313" y2="716.0313"/><polygon fill="#222222" points="408.5,706.0313,412.5,716.0313,416.5,706.0313,412.5,710.0313" style="stroke:#222222;stroke-width:1.0;"/><line style="stroke:#222222;stroke-width:1.5;" x1="240" x2="240" y1="662.0313" y2="682.0313"/><polygon fill="#222222" points="236,672.0313,240,682.0313,244,672.0313,240,676.0313" style="stroke:#222222;stroke-width:1.0;"/><line style="stroke:#222222;stroke-width:1.5;" x1="240" x2="240" y1="912.2969" y2="932.2969"/><polygon fill="#222222" points="236,922.2969,240,932.2969,244,922.2969,240,926.2969" style="stroke:#222222;stroke-width:1.0;"/><line style="stroke:#222222;stroke-width:1.5;" x1="81.5" x2="81.5" y1="1054.2344" y2="1074.2344"/><polygon fill="#222222" points="77.5,1064.2344,81.5,1074.2344,85.5,1064.2344,81.5,1068.2344" style="stroke:#222222;stroke-width:1.0;"/><line style="stroke:#222222;stroke-width:1.5;" x1="398.5" x2="398.5" y1="1054.2344" y2="1074.2344"/><polygon fill="#222222" points="394.5,1064.2344,398.5,1074.2344,402.5,1064.2344,398.5,1068.2344" style="stroke:#222222;stroke-width:1.0;"/><line style="stroke:#222222;stroke-width:1.5;" x1="91.5" x2="81.5" y1="998.2656" y2="998.2656"/><line style="stroke:#222222;stroke-width:1.5;" x1="81.5" x2="81.5" y1="998.2656" y2="1020.2656"/><polygon fill="#222222" points="77.5,1010.2656,81.5,1020.2656,85.5,1010.2656,81.5,1014.2656" style="stroke:#222222;stroke-width:1.0;"/><line style="stroke:#222222;stroke-width:1.5;" x1="388.5" x2="398.5" y1="998.2656" y2="998.2656"/><line style="stroke:#222222;stroke-width:1.5;" x1="398.5" x2="398.5" y1="998.2656" y2="1020.2656"/><polygon fill="#222222" points="394.5,1010.2656,398.5,1020.2656,402.5,1010.2656,398.5,1014.2656" style="stroke:#222222;stroke-width:1.0;"/><line style="stroke:#222222;stroke-width:1.5;" x1="240" x2="240" y1="966.2656" y2="986.2656"/><polygon fill="#222222" points="236,976.2656,240,986.2656,244,976.2656,240,980.2656" style="stroke:#222222;stroke-width:1.0;"/><rect fill="none" height="11.6406" style="stroke:none;stroke-width:1.0;" width="295" x="204" y="1107.2344"/><text fill="#888888" font-family="sans-serif" font-size="10" lengthAdjust="spacing" textLength="295" x="204" y="1116.5166">Cosmos Cash: https://github.com/allinbits/cosmos-cash</text><!--MD5=[a714b954d9632f2261f2bdc426064216]
@startuml
title Credentials
footer Cosmos Cash: https://github.com/allinbits/cosmos-cash

<style>
activityDiagram {
  LineColor #222
  FontName sans
}
</style>
skinparam monochrome false
skinparam shadowing false

partition "Regulator Credential" {
start

#white:Actor issues a **RegulatorCredential**;
if (Actor.Address ∈ RootOfTrust ?) then (no)
    #pink:Error;
    end
else (yes)
    #white:Regulator credential issued;
    stop
endif
}

partition "Registration Credential" {
start
#white:Actor issues a **RegistrationCredential**;
if (RegistrationCredential.Issuer holds RegulatorCredential ?) then (no)
    #pink:Error;
    end
else (yes)
    #white:Registration credential issued;
    stop
endif
}

partition "License Credential" {
start
#white:Actor issues a **LicenseCredential**;
if (LicenseCredential.Issuer holds RegulatorCredential ?) then (no)
    #pink:Error;
    end
else (yes)
    if (LicenseCredential.Subject holds RegistrationCredential ?) then (no)
        #pink:Error;
        end
    else (yes)
        #white:License credential issued;
        stop
    endif
endif
}


partition "User Credential" {
start
#white:Actor issues a **UserCredential**;
if (UserCredential.Issuer holds LicenseCredential ?) then (no)
    #pink:Error;
    end
else (yes)
    #white:User credential issued;
    stop
endif
}
@enduml

PlantUML version 1.2022.2beta1(Unknown compile time)
(GPL source distribution)
Java Runtime: Java(TM) SE Runtime Environment
JVM: Java HotSpot(TM) 64-Bit Server VM
Default Encoding: UTF-8
Language: en
Country: US
--></g></svg>