<?xml version="1.0" encoding="UTF-8" standalone="no"?><svg xmlns="http://www.w3.org/2000/svg" xmlns:xlink="http://www.w3.org/1999/xlink" contentScriptType="application/ecmascript" contentStyleType="text/css" height="574px" preserveAspectRatio="none" style="width:488px;height:574px;background:#FFFFFF;" version="1.1" viewBox="0 0 488 574" width="488px" zoomAndPan="magnify"><defs/><g><rect fill="none" height="26.2969" style="stroke:none;stroke-width:1.0;" width="165" x="160" y="15"/><text fill="#000000" font-family="sans-serif" font-size="14" font-weight="bold" lengthAdjust="spacing" textLength="155" x="165" y="32.9951">Credential Deletion</text><ellipse cx="123.375" cy="57.2969" fill="#222222" rx="10" ry="10" style="stroke:none;stroke-width:1.0;"/><rect fill="#FFFFFF" height="61.9063" rx="12.5" ry="12.5" style="stroke:#222222;stroke-width:1.5;" width="177" x="34.875" y="87.2969"/><text fill="#000000" font-family="sans" font-size="12" lengthAdjust="spacing" textLength="149" x="44.875" y="108.4355">VC DeleteCredential with</text><text fill="#000000" font-family="sans" font-size="12" font-weight="bold" lengthAdjust="spacing" textLength="90" x="44.875" y="122.4043">CredentialID</text><text fill="#000000" font-family="sans" font-size="12" lengthAdjust="spacing" textLength="4" x="134.875" y="122.4043">,</text><text fill="#000000" font-family="sans" font-size="12" font-weight="bold" lengthAdjust="spacing" textLength="59" x="142.875" y="122.4043">Address</text><text fill="#000000" font-family="sans" font-size="12" lengthAdjust="spacing" textLength="88" x="44.875" y="136.373">as parameters</text><rect fill="#FFFFFF" height="47.9375" rx="12.5" ry="12.5" style="stroke:#222222;stroke-width:1.5;" width="189" x="28.875" y="169.2031"/><text fill="#000000" font-family="sans" font-size="12" lengthAdjust="spacing" text-decoration="underline" textLength="21" x="38.875" y="190.3418">Get</text><text fill="#000000" font-family="sans" font-size="12" lengthAdjust="spacing" textLength="0" x="63.875" y="190.3418"/><text fill="#000000" font-family="sans" font-size="12" font-weight="bold" lengthAdjust="spacing" textLength="76" x="63.875" y="190.3418">Credential</text><text fill="#000000" font-family="sans" font-size="12" lengthAdjust="spacing" textLength="169" x="38.875" y="204.3105">from store with CredentialID</text><polygon fill="#FEFECE" points="71.875,237.1406,174.875,237.1406,186.875,249.1406,174.875,261.1406,71.875,261.1406,59.875,249.1406,71.875,237.1406" style="stroke:#222222;stroke-width:1.5;"/><text fill="#000000" font-family="sans" font-size="11" lengthAdjust="spacing" textLength="103" x="71.875" y="252.9487">Credential exists?</text><text fill="#000000" font-family="sans" font-size="11" lengthAdjust="spacing" textLength="14" x="45.875" y="246.5464">no</text><text fill="#000000" font-family="sans" font-size="11" lengthAdjust="spacing" textLength="21" x="186.875" y="246.5464">yes</text><rect fill="#FFC0CB" height="33.9688" rx="12.5" ry="12.5" style="stroke:#222222;stroke-width:1.5;" width="50" x="11" y="271.1406"/><text fill="#000000" font-family="sans" font-size="12" lengthAdjust="spacing" textLength="30" x="21" y="292.2793">Error</text><ellipse cx="36" cy="349.0781" fill="#FFFFFF" rx="10" ry="10" style="stroke:#222222;stroke-width:1.5;"/><line style="stroke:#222222;stroke-width:2.5;" x1="29.8128" x2="42.1872" y1="342.8909" y2="355.2653"/><line style="stroke:#222222;stroke-width:2.5;" x1="42.1872" x2="29.8128" y1="342.8909" y2="355.2653"/><rect fill="#FFFFFF" height="47.9375" rx="12.5" ry="12.5" style="stroke:#222222;stroke-width:1.5;" width="210" x="105.75" y="271.1406"/><text fill="#000000" font-family="sans" font-size="12" lengthAdjust="spacing" text-decoration="underline" textLength="41" x="115.75" y="292.2793">Extract</text><text fill="#000000" font-family="sans" font-size="12" lengthAdjust="spacing" textLength="19" x="160.75" y="292.2793">the</text><text fill="#000000" font-family="sans" font-size="12" font-weight="bold" lengthAdjust="spacing" textLength="122" x="183.75" y="292.2793">Issuer Public Key</text><text fill="#000000" font-family="sans" font-size="12" lengthAdjust="spacing" textLength="171" x="115.75" y="306.248">from the Verification Method</text><polygon fill="#FEFECE" points="157.75,353.0469,263.75,353.0469,275.75,365.0469,263.75,377.0469,157.75,377.0469,145.75,365.0469,157.75,353.0469" style="stroke:#222222;stroke-width:1.5;"/><text fill="#000000" font-family="sans" font-size="11" lengthAdjust="spacing" textLength="106" x="157.75" y="368.855">Can be extracted?</text><text fill="#000000" font-family="sans" font-size="11" lengthAdjust="spacing" textLength="14" x="131.75" y="362.4526">no</text><text fill="#000000" font-family="sans" font-size="11" lengthAdjust="spacing" textLength="21" x="275.75" y="362.4526">yes</text><rect fill="#FFC0CB" height="33.9688" rx="12.5" ry="12.5" style="stroke:#222222;stroke-width:1.5;" width="50" x="91" y="387.0469"/><text fill="#000000" font-family="sans" font-size="12" lengthAdjust="spacing" textLength="30" x="101" y="408.1855">Error</text><ellipse cx="116" cy="451.0156" fill="#FFFFFF" rx="10" ry="10" style="stroke:#222222;stroke-width:1.5;"/><line style="stroke:#222222;stroke-width:2.5;" x1="109.8128" x2="122.1872" y1="444.8284" y2="457.2028"/><line style="stroke:#222222;stroke-width:2.5;" x1="122.1872" x2="109.8128" y1="444.8284" y2="457.2028"/><rect fill="#FFFFFF" height="33.9688" rx="12.5" ry="12.5" style="stroke:#222222;stroke-width:1.5;" width="154" x="228.5" y="387.0469"/><text fill="#000000" font-family="sans" font-size="12" lengthAdjust="spacing" text-decoration="underline" textLength="35" x="238.5" y="408.1855">Verify</text><text fill="#000000" font-family="sans" font-size="12" lengthAdjust="spacing" textLength="19" x="277.5" y="408.1855">the</text><text fill="#000000" font-family="sans" font-size="12" font-weight="bold" lengthAdjust="spacing" textLength="72" x="300.5" y="408.1855">Signature</text><polygon fill="#FEFECE" points="218,441.0156,393,441.0156,405,453.0156,393,465.0156,218,465.0156,206,453.0156,218,441.0156" style="stroke:#222222;stroke-width:1.5;"/><text fill="#000000" font-family="sans" font-size="11" lengthAdjust="spacing" textLength="175" x="218" y="456.8237">Signature matches Public key?</text><text fill="#000000" font-family="sans" font-size="11" lengthAdjust="spacing" textLength="14" x="192" y="450.4214">no</text><text fill="#000000" font-family="sans" font-size="11" lengthAdjust="spacing" textLength="21" x="405" y="450.4214">yes</text><rect fill="#FFC0CB" height="33.9688" rx="12.5" ry="12.5" style="stroke:#222222;stroke-width:1.5;" width="50" x="171" y="475.0156"/><text fill="#000000" font-family="sans" font-size="12" lengthAdjust="spacing" textLength="30" x="181" y="496.1543">Error</text><ellipse cx="196" cy="538.9844" fill="#FFFFFF" rx="10" ry="10" style="stroke:#222222;stroke-width:1.5;"/><line style="stroke:#222222;stroke-width:2.5;" x1="189.8128" x2="202.1872" y1="532.7972" y2="545.1716"/><line style="stroke:#222222;stroke-width:2.5;" x1="202.1872" x2="189.8128" y1="532.7972" y2="545.1716"/><rect fill="#98FB98" height="33.9688" rx="12.5" ry="12.5" style="stroke:#222222;stroke-width:1.5;" width="124" x="353" y="475.0156"/><text fill="#000000" font-family="sans" font-size="12" lengthAdjust="spacing" textLength="104" x="363" y="496.1543">Delete credential</text><ellipse cx="415" cy="539.9844" fill="#FFFFFF" rx="11" ry="11" style="stroke:#222222;stroke-width:1.0;"/><ellipse cx="415" cy="539.9844" fill="#222222" rx="6" ry="6" style="stroke:#909090;stroke-width:1.0;"/><line style="stroke:#222222;stroke-width:1.5;" x1="123.375" x2="123.375" y1="67.2969" y2="87.2969"/><polygon fill="#222222" points="119.375,77.2969,123.375,87.2969,127.375,77.2969,123.375,81.2969" style="stroke:#222222;stroke-width:1.0;"/><line style="stroke:#222222;stroke-width:1.5;" x1="123.375" x2="123.375" y1="149.2031" y2="169.2031"/><polygon fill="#222222" points="119.375,159.2031,123.375,169.2031,127.375,159.2031,123.375,163.2031" style="stroke:#222222;stroke-width:1.0;"/><line style="stroke:#222222;stroke-width:1.5;" x1="36" x2="36" y1="305.1094" y2="339.0781"/><polygon fill="#222222" points="32,329.0781,36,339.0781,40,329.0781,36,333.0781" style="stroke:#222222;stroke-width:1.0;"/><line style="stroke:#222222;stroke-width:1.5;" x1="116" x2="116" y1="421.0156" y2="441.0156"/><polygon fill="#222222" points="112,431.0156,116,441.0156,120,431.0156,116,435.0156" style="stroke:#222222;stroke-width:1.0;"/><line style="stroke:#222222;stroke-width:1.5;" x1="196" x2="196" y1="508.9844" y2="528.9844"/><polygon fill="#222222" points="192,518.9844,196,528.9844,200,518.9844,196,522.9844" style="stroke:#222222;stroke-width:1.0;"/><line style="stroke:#222222;stroke-width:1.5;" x1="415" x2="415" y1="508.9844" y2="528.9844"/><polygon fill="#222222" points="411,518.9844,415,528.9844,419,518.9844,415,522.9844" style="stroke:#222222;stroke-width:1.0;"/><line style="stroke:#222222;stroke-width:1.5;" x1="206" x2="196" y1="453.0156" y2="453.0156"/><line style="stroke:#222222;stroke-width:1.5;" x1="196" x2="196" y1="453.0156" y2="475.0156"/><polygon fill="#222222" points="192,465.0156,196,475.0156,200,465.0156,196,469.0156" style="stroke:#222222;stroke-width:1.0;"/><line style="stroke:#222222;stroke-width:1.5;" x1="405" x2="415" y1="453.0156" y2="453.0156"/><line style="stroke:#222222;stroke-width:1.5;" x1="415" x2="415" y1="453.0156" y2="475.0156"/><polygon fill="#222222" points="411,465.0156,415,475.0156,419,465.0156,415,469.0156" style="stroke:#222222;stroke-width:1.0;"/><line style="stroke:#222222;stroke-width:1.5;" x1="305.5" x2="305.5" y1="421.0156" y2="441.0156"/><polygon fill="#222222" points="301.5,431.0156,305.5,441.0156,309.5,431.0156,305.5,435.0156" style="stroke:#222222;stroke-width:1.0;"/><line style="stroke:#222222;stroke-width:1.5;" x1="145.75" x2="116" y1="365.0469" y2="365.0469"/><line style="stroke:#222222;stroke-width:1.5;" x1="116" x2="116" y1="365.0469" y2="387.0469"/><polygon fill="#222222" points="112,377.0469,116,387.0469,120,377.0469,116,381.0469" style="stroke:#222222;stroke-width:1.0;"/><line style="stroke:#222222;stroke-width:1.5;" x1="275.75" x2="305.5" y1="365.0469" y2="365.0469"/><line style="stroke:#222222;stroke-width:1.5;" x1="305.5" x2="305.5" y1="365.0469" y2="387.0469"/><polygon fill="#222222" points="301.5,377.0469,305.5,387.0469,309.5,377.0469,305.5,381.0469" style="stroke:#222222;stroke-width:1.0;"/><line style="stroke:#222222;stroke-width:1.5;" x1="210.75" x2="210.75" y1="319.0781" y2="353.0469"/><polygon fill="#222222" points="206.75,343.0469,210.75,353.0469,214.75,343.0469,210.75,347.0469" style="stroke:#222222;stroke-width:1.0;"/><line style="stroke:#222222;stroke-width:1.5;" x1="59.875" x2="36" y1="249.1406" y2="249.1406"/><line style="stroke:#222222;stroke-width:1.5;" x1="36" x2="36" y1="249.1406" y2="271.1406"/><polygon fill="#222222" points="32,261.1406,36,271.1406,40,261.1406,36,265.1406" style="stroke:#222222;stroke-width:1.0;"/><line style="stroke:#222222;stroke-width:1.5;" x1="186.875" x2="210.75" y1="249.1406" y2="249.1406"/><line style="stroke:#222222;stroke-width:1.5;" x1="210.75" x2="210.75" y1="249.1406" y2="271.1406"/><polygon fill="#222222" points="206.75,261.1406,210.75,271.1406,214.75,261.1406,210.75,265.1406" style="stroke:#222222;stroke-width:1.0;"/><line style="stroke:#222222;stroke-width:1.5;" x1="123.375" x2="123.375" y1="217.1406" y2="237.1406"/><polygon fill="#222222" points="119.375,227.1406,123.375,237.1406,127.375,227.1406,123.375,231.1406" style="stroke:#222222;stroke-width:1.0;"/><rect fill="none" height="11.6406" style="stroke:none;stroke-width:1.0;" width="295" x="95" y="549.9844"/><text fill="#888888" font-family="sans-serif" font-size="10" lengthAdjust="spacing" textLength="295" x="95" y="559.2666">Cosmos Cash: https://github.com/allinbits/cosmos-cash</text><!--MD5=[6c71daa39d375f58419643309be89644]
@startuml
title Credential Deletion
footer Cosmos Cash: https://github.com/allinbits/cosmos-cash

<style>
activityDiagram {
  LineColor #222
  FontName sans
}
</style>
skinparam monochrome false
skinparam shadowing false

start
#white:VC DeleteCredential with
**CredentialID**, **Address**
as parameters;
#white:__Get__ **Credential**
from store with CredentialID;
if (Credential exists?) then (no)
    #pink:Error;
    end
else (yes)
    #white:__Extract__ the **Issuer Public Key**
    from the Verification Method;
    if (Can be extracted?) then (no)
        #pink:Error;
        end
    else (yes)
        #white:__Verify__ the **Signature**;
        if (Signature matches Public key?) then (no)
            #pink:Error;
            end
        else (yes)
            #palegreen:Delete credential;
            stop
        endif
    endif
endif
@enduml

PlantUML version 1.2022.2beta1(Unknown compile time)
(GPL source distribution)
Java Runtime: Java(TM) SE Runtime Environment
JVM: Java HotSpot(TM) 64-Bit Server VM
Default Encoding: UTF-8
Language: en
Country: US
--></g></svg>