<?xml version="1.0" encoding="UTF-8" standalone="no"?><svg xmlns="http://www.w3.org/2000/svg" xmlns:xlink="http://www.w3.org/1999/xlink" contentScriptType="application/ecmascript" contentStyleType="text/css" height="315px" preserveAspectRatio="none" style="width:490px;height:315px;background:#FFFFFF;" version="1.1" viewBox="0 0 490 315" width="490px" zoomAndPan="magnify"><defs/><g><rect fill="none" height="26.2969" style="stroke:none;stroke-width:1.0;" width="182" x="147" y="5"/><text fill="#000000" font-family="sans-serif" font-size="14" font-weight="bold" lengthAdjust="spacing" textLength="172" x="152" y="22.9951">Module dependencies</text><rect fill="#ADD8E6" height="36.2969" style="stroke:#A80036;stroke-width:1.5;" width="95" x="228.5" y="249.7969"/><text fill="#000000" font-family="sans" font-size="14" lengthAdjust="spacing" textLength="81" x="235.5" y="264.792">DID Module</text><line style="stroke:#A80036;stroke-width:1.5;" x1="229.5" x2="322.5" y1="270.0938" y2="270.0938"/><rect fill="#ADD8E6" height="36.2969" style="stroke:#A80036;stroke-width:1.5;" width="218" x="7" y="144.7969"/><text fill="#000000" font-family="sans" font-size="14" lengthAdjust="spacing" textLength="204" x="14" y="159.792">Verifiable Credential Module</text><line style="stroke:#A80036;stroke-width:1.5;" x1="8" x2="224" y1="165.0938" y2="165.0938"/><rect fill="#ADD8E6" height="36.2969" style="stroke:#A80036;stroke-width:1.5;" width="139" x="46.5" y="44.2969"/><text fill="#000000" font-family="sans" font-size="14" lengthAdjust="spacing" textLength="125" x="53.5" y="59.292">Regulator Module</text><line style="stroke:#A80036;stroke-width:1.5;" x1="47.5" x2="184.5" y1="64.5938" y2="64.5938"/><rect fill="#ADD8E6" height="36.2969" style="stroke:#A80036;stroke-width:1.5;" width="110" x="223" y="44.2969"/><text fill="#000000" font-family="sans" font-size="14" lengthAdjust="spacing" textLength="96" x="230" y="59.292">Issuer Module</text><line style="stroke:#A80036;stroke-width:1.5;" x1="224" x2="332" y1="64.5938" y2="64.5938"/><rect fill="#FFFFFF" height="44.5938" style="stroke:#A80036;stroke-width:1.5;" width="152" x="331" y="140.2969"/><text fill="#000000" font-family="sans" font-size="14" lengthAdjust="spacing" textLength="91" x="361.5" y="155.292">Bank Module</text><line style="stroke:#A80036;stroke-width:1.5;" x1="332" x2="482" y1="160.5938" y2="160.5938"/><text fill="#000000" font-family="sans" font-size="14" lengthAdjust="spacing" textLength="140" x="337" y="177.5889">cosmos sdk module</text><rect fill="#FFFFFF" height="44.5938" style="stroke:#A80036;stroke-width:1.5;" width="152" x="40" y="245.2969"/><text fill="#000000" font-family="sans" font-size="14" lengthAdjust="spacing" textLength="114" x="59" y="260.292">Account Module</text><line style="stroke:#A80036;stroke-width:1.5;" x1="41" x2="191" y1="265.5938" y2="265.5938"/><text fill="#000000" font-family="sans" font-size="14" lengthAdjust="spacing" textLength="140" x="46" y="282.5889">cosmos sdk module</text><!--MD5=[2598985d4b8508abc7efc6217e68991d]
link vc to did--><path codeLine="25" d="M142.421,180.8049 C170.677,198.9949 215.436,227.8089 245.253,247.0035 " fill="none" id="vc-to-did" style="stroke:#A80036;stroke-width:1.0;"/><polygon fill="#A80036" points="249.54,249.7633,244.1365,241.5291,245.3355,247.0574,239.8071,248.2563,249.54,249.7633" style="stroke:#A80036;stroke-width:1.0;"/><!--MD5=[6a12eb02bcd5844ede9a0dd0a2fc1429]
link vc to acc--><path codeLine="26" d="M116,180.8049 C116,196.8915 116,221.287 116,239.99 " fill="none" id="vc-to-acc" style="stroke:#A80036;stroke-width:1.0;"/><polygon fill="#A80036" points="116,245.1027,120,236.1027,116,240.1027,112,236.1027,116,245.1027" style="stroke:#A80036;stroke-width:1.0;"/><!--MD5=[b0d2b6f8735988a288db3af9cda1242e]
link reg to vc--><path codeLine="27" d="M116,80.4539 C116,96.7389 116,121.3139 116,139.1899 " fill="none" id="reg-to-vc" style="stroke:#A80036;stroke-width:1.0;"/><polygon fill="#A80036" points="116,144.5059,120,135.5059,116,139.5059,112,135.5059,116,144.5059" style="stroke:#A80036;stroke-width:1.0;"/><!--MD5=[4c7ad6d633d8e7fb3da8eb7130ba8692]
link issuer to vc--><path codeLine="28" d="M249.782,80.4539 C221.528,97.6329 178.098,124.0399 148.439,142.0729 " fill="none" id="issuer-to-vc" style="stroke:#A80036;stroke-width:1.0;"/><polygon fill="#A80036" points="144.166,144.6709,153.9341,143.412,148.438,142.0728,149.7772,136.5768,144.166,144.6709" style="stroke:#A80036;stroke-width:1.0;"/><!--MD5=[86cb6a24510cd98a3dfd3835dac541bd]
link issuer to did--><path codeLine="29" d="M277.833,80.2969 C277.473,116.9569 276.623,203.4403 276.22,244.4603 " fill="none" id="issuer-to-did" style="stroke:#A80036;stroke-width:1.0;"/><polygon fill="#A80036" points="276.168,249.7019,280.2565,240.7417,276.2173,244.7021,272.2569,240.6629,276.168,249.7019" style="stroke:#A80036;stroke-width:1.0;"/><!--MD5=[bdc41b8c5b78827d817adbcc5c38eabd]
link issuer to bank--><path codeLine="30" d="M300.47,80.4539 C320.857,96.0209 351.167,119.1649 374.249,136.7889 " fill="none" id="issuer-to-bank" style="stroke:#A80036;stroke-width:1.0;"/><polygon fill="#A80036" points="378.471,140.0129,373.7449,131.372,374.4969,136.9787,368.8902,137.7307,378.471,140.0129" style="stroke:#A80036;stroke-width:1.0;"/><rect fill="none" height="11.6406" style="stroke:none;stroke-width:1.0;" width="295" x="90.5" y="295.8906"/><text fill="#888888" font-family="sans-serif" font-size="10" lengthAdjust="spacing" textLength="295" x="90.5" y="305.1729">Cosmos Cash: https://github.com/allinbits/cosmos-cash</text><!--MD5=[e57415e466583be044d0842fc668cfe5]
@startuml
title Module dependencies
footer Cosmos Cash: https://github.com/allinbits/cosmos-cash

<style>
objectDiagram {
  LineColor #222
  FontName sans
}
</style>
skinparam monochrome false
skinparam shadowing false


object "DID Module" as did  #lightblue
object "Verifiable Credential Module" as vc #lightblue
object "Regulator Module" as reg #lightblue
object "Issuer Module" as issuer #lightblue
object "Bank Module" as bank #white {
 cosmos sdk module
}
object "Account Module" as acc #white {
  cosmos sdk module
}

vc - -> did
vc - -> acc
reg - -> vc
issuer - -> vc
issuer - -> did
issuer - -> bank



hide empty members
@enduml

PlantUML version 1.2022.2beta1(Unknown compile time)
(GPL source distribution)
Java Runtime: Java(TM) SE Runtime Environment
JVM: Java HotSpot(TM) 64-Bit Server VM
Default Encoding: UTF-8
Language: en
Country: US
--></g></svg>