<?xml version="1.0" encoding="UTF-8" standalone="no"?><svg xmlns="http://www.w3.org/2000/svg" xmlns:xlink="http://www.w3.org/1999/xlink" contentScriptType="application/ecmascript" contentStyleType="text/css" height="515px" preserveAspectRatio="none" style="width:2353px;height:515px;background:#FFFFFF;" version="1.1" viewBox="0 0 2353 515" width="2353px" zoomAndPan="magnify"><defs/><g><rect fill="#FEFECE" height="143.418" rx="5" ry="5" style="stroke:#FEFECE;stroke-width:1.5;" width="363" x="10" y="236"/><text fill="#000000" font-family="sans-serif" font-size="14" lengthAdjust="spacing" textLength="64" x="15" y="251.5352">@context</text><text fill="#000000" font-family="sans-serif" font-size="14" lengthAdjust="spacing" textLength="0" x="155" y="251.5352"/><line style="stroke:#A80036;stroke-width:1.0;" x1="138" x2="138" y1="236" y2="256.4883"/><line style="stroke:#A80036;stroke-width:1.0;" x1="10" x2="373" y1="256.4883" y2="256.4883"/><text fill="#000000" font-family="sans-serif" font-size="14" lengthAdjust="spacing" textLength="13" x="15" y="272.0234">id</text><text fill="#000000" font-family="sans-serif" font-size="14" lengthAdjust="spacing" textLength="225" x="143" y="272.0234">did:cosmos:cash:1000bb528777</text><line style="stroke:#A80036;stroke-width:1.0;" x1="138" x2="138" y1="256.4883" y2="276.9766"/><line style="stroke:#A80036;stroke-width:1.0;" x1="10" x2="373" y1="276.9766" y2="276.9766"/><text fill="#000000" font-family="sans-serif" font-size="14" lengthAdjust="spacing" textLength="29" x="15" y="292.5117">type</text><text fill="#000000" font-family="sans-serif" font-size="14" lengthAdjust="spacing" textLength="0" x="155" y="292.5117"/><line style="stroke:#A80036;stroke-width:1.0;" x1="138" x2="138" y1="276.9766" y2="297.4648"/><line style="stroke:#A80036;stroke-width:1.0;" x1="10" x2="373" y1="297.4648" y2="297.4648"/><text fill="#000000" font-family="sans-serif" font-size="14" lengthAdjust="spacing" textLength="41" x="15" y="313">issuer</text><text fill="#000000" font-family="sans-serif" font-size="14" lengthAdjust="spacing" textLength="98" x="143" y="313">did:sov:12345</text><line style="stroke:#A80036;stroke-width:1.0;" x1="138" x2="138" y1="297.4648" y2="317.9531"/><line style="stroke:#A80036;stroke-width:1.0;" x1="10" x2="373" y1="317.9531" y2="317.9531"/><text fill="#000000" font-family="sans-serif" font-size="14" lengthAdjust="spacing" textLength="90" x="15" y="333.4883">issuanceDate</text><text fill="#000000" font-family="sans-serif" font-size="14" lengthAdjust="spacing" textLength="167" x="143" y="333.4883">2021-08-01T15:23:24Z</text><line style="stroke:#A80036;stroke-width:1.0;" x1="138" x2="138" y1="317.9531" y2="338.4414"/><line style="stroke:#A80036;stroke-width:1.0;" x1="10" x2="373" y1="338.4414" y2="338.4414"/><text fill="#000000" font-family="sans-serif" font-size="14" lengthAdjust="spacing" textLength="118" x="15" y="353.9766">credentialSubject</text><text fill="#000000" font-family="sans-serif" font-size="14" lengthAdjust="spacing" textLength="0" x="155" y="353.9766"/><line style="stroke:#A80036;stroke-width:1.0;" x1="138" x2="138" y1="338.4414" y2="358.9297"/><line style="stroke:#A80036;stroke-width:1.0;" x1="10" x2="373" y1="358.9297" y2="358.9297"/><text fill="#000000" font-family="sans-serif" font-size="14" lengthAdjust="spacing" textLength="38" x="15" y="374.4648">proof</text><text fill="#000000" font-family="sans-serif" font-size="14" lengthAdjust="spacing" textLength="0" x="155" y="374.4648"/><line style="stroke:#A80036;stroke-width:1.0;" x1="138" x2="138" y1="358.9297" y2="379.418"/><rect fill="none" height="143.418" rx="5" ry="5" style="stroke:#A80036;stroke-width:1.5;" width="363" x="10" y="236"/><rect fill="#FEFECE" height="40.9766" rx="5" ry="5" style="stroke:#FEFECE;stroke-width:1.5;" width="389" x="506.5" y="204"/><text fill="#000000" font-family="sans-serif" font-size="14" lengthAdjust="spacing" textLength="286" x="511.5" y="219.5352">https://www.w3.org/2018/credentials/v1</text><line style="stroke:#A80036;stroke-width:1.0;" x1="506.5" x2="895.5" y1="224.4883" y2="224.4883"/><text fill="#000000" font-family="sans-serif" font-size="14" lengthAdjust="spacing" textLength="379" x="511.5" y="240.0234">https://www.cosmos.cash/2021/credentials/license/v1</text><rect fill="none" height="40.9766" rx="5" ry="5" style="stroke:#A80036;stroke-width:1.5;" width="389" x="506.5" y="204"/><rect fill="#FEFECE" height="40.9766" rx="5" ry="5" style="stroke:#FEFECE;stroke-width:1.5;" width="146" x="628" y="263"/><text fill="#000000" font-family="sans-serif" font-size="14" lengthAdjust="spacing" textLength="136" x="633" y="278.5352">VerifiableCredential</text><line style="stroke:#A80036;stroke-width:1.0;" x1="628" x2="774" y1="283.4883" y2="283.4883"/><text fill="#000000" font-family="sans-serif" font-size="14" lengthAdjust="spacing" textLength="121" x="633" y="299.0234">LicenseCredential</text><rect fill="none" height="40.9766" rx="5" ry="5" style="stroke:#A80036;stroke-width:1.5;" width="146" x="628" y="263"/><rect fill="#FEFECE" height="61.4648" rx="5" ry="5" style="stroke:#FEFECE;stroke-width:1.5;" width="106" x="648" y="322"/><text fill="#000000" font-family="sans-serif" font-size="14" lengthAdjust="spacing" textLength="31" x="653" y="337.5352">vasp</text><text fill="#000000" font-family="sans-serif" font-size="14" lengthAdjust="spacing" textLength="0" x="749" y="337.5352"/><line style="stroke:#A80036;stroke-width:1.0;" x1="732" x2="732" y1="322" y2="342.4883"/><line style="stroke:#A80036;stroke-width:1.0;" x1="648" x2="754" y1="342.4883" y2="342.4883"/><text fill="#000000" font-family="sans-serif" font-size="14" lengthAdjust="spacing" textLength="54" x="653" y="358.0234">licenses</text><text fill="#000000" font-family="sans-serif" font-size="14" lengthAdjust="spacing" textLength="0" x="749" y="358.0234"/><line style="stroke:#A80036;stroke-width:1.0;" x1="732" x2="732" y1="342.4883" y2="362.9766"/><line style="stroke:#A80036;stroke-width:1.0;" x1="648" x2="754" y1="362.9766" y2="362.9766"/><text fill="#000000" font-family="sans-serif" font-size="14" lengthAdjust="spacing" textLength="74" x="653" y="378.5117">agreement</text><text fill="#000000" font-family="sans-serif" font-size="14" lengthAdjust="spacing" textLength="0" x="749" y="378.5117"/><line style="stroke:#A80036;stroke-width:1.0;" x1="732" x2="732" y1="362.9766" y2="383.4648"/><rect fill="none" height="61.4648" rx="5" ry="5" style="stroke:#A80036;stroke-width:1.5;" width="106" x="648" y="322"/><rect fill="#FEFECE" height="81.9531" rx="5" ry="5" style="stroke:#FEFECE;stroke-width:1.5;" width="325" x="1029" y="159.5"/><text fill="#000000" font-family="sans-serif" font-size="14" lengthAdjust="spacing" textLength="44" x="1034" y="175.0352">vaspId</text><text fill="#000000" font-family="sans-serif" font-size="14" lengthAdjust="spacing" textLength="225" x="1124" y="175.0352">did:cosmos:cash:1000bb528777</text><line style="stroke:#A80036;stroke-width:1.0;" x1="1119" x2="1119" y1="159.5" y2="179.9883"/><line style="stroke:#A80036;stroke-width:1.0;" x1="1029" x2="1354" y1="179.9883" y2="179.9883"/><text fill="#000000" font-family="sans-serif" font-size="14" lengthAdjust="spacing" textLength="80" x="1034" y="195.5234">legalPerson</text><text fill="#000000" font-family="sans-serif" font-size="14" lengthAdjust="spacing" textLength="0" x="1136" y="195.5234"/><line style="stroke:#A80036;stroke-width:1.0;" x1="1119" x2="1119" y1="179.9883" y2="200.4766"/><line style="stroke:#A80036;stroke-width:1.0;" x1="1029" x2="1354" y1="200.4766" y2="200.4766"/><text fill="#000000" font-family="sans-serif" font-size="14" lengthAdjust="spacing" textLength="54" x="1034" y="216.0117">address</text><text fill="#000000" font-family="sans-serif" font-size="14" lengthAdjust="spacing" textLength="0" x="1136" y="216.0117"/><line style="stroke:#A80036;stroke-width:1.0;" x1="1119" x2="1119" y1="200.4766" y2="220.9648"/><line style="stroke:#A80036;stroke-width:1.0;" x1="1029" x2="1354" y1="220.9648" y2="220.9648"/><text fill="#000000" font-family="sans-serif" font-size="14" lengthAdjust="spacing" textLength="20" x="1034" y="236.5">ids</text><text fill="#000000" font-family="sans-serif" font-size="14" lengthAdjust="spacing" textLength="0" x="1136" y="236.5"/><line style="stroke:#A80036;stroke-width:1.0;" x1="1119" x2="1119" y1="220.9648" y2="241.4531"/><rect fill="none" height="81.9531" rx="5" ry="5" style="stroke:#A80036;stroke-width:1.5;" width="325" x="1029" y="159.5"/><rect fill="#FEFECE" height="40.9766" rx="5" ry="5" style="stroke:#FEFECE;stroke-width:1.5;" width="91" x="1554.5" y="51"/><text fill="#000000" font-family="sans-serif" font-size="14" lengthAdjust="spacing" textLength="45" x="1559.5" y="66.5352">names</text><text fill="#000000" font-family="sans-serif" font-size="14" lengthAdjust="spacing" textLength="0" x="1632.5" y="66.5352"/><line style="stroke:#A80036;stroke-width:1.0;" x1="1615.5" x2="1615.5" y1="51" y2="71.4883"/><line style="stroke:#A80036;stroke-width:1.0;" x1="1554.5" x2="1645.5" y1="71.4883" y2="71.4883"/><text fill="#000000" font-family="sans-serif" font-size="14" lengthAdjust="spacing" textLength="51" x="1559.5" y="87.0234">ctryReg</text><text fill="#000000" font-family="sans-serif" font-size="14" lengthAdjust="spacing" textLength="20" x="1620.5" y="87.0234">CH</text><line style="stroke:#A80036;stroke-width:1.0;" x1="1615.5" x2="1615.5" y1="71.4883" y2="91.9766"/><rect fill="none" height="40.9766" rx="5" ry="5" style="stroke:#A80036;stroke-width:1.5;" width="91" x="1554.5" y="51"/><rect fill="#FEFECE" height="40.9766" rx="5" ry="5" style="stroke:#FEFECE;stroke-width:1.5;" width="22" x="1958.5" y="40"/><text fill="#000000" font-family="sans-serif" font-size="14" lengthAdjust="spacing" textLength="0" x="1975.5" y="55.5352"/><line style="stroke:#A80036;stroke-width:1.0;" x1="1958.5" x2="1980.5" y1="60.4883" y2="60.4883"/><text fill="#000000" font-family="sans-serif" font-size="14" lengthAdjust="spacing" textLength="0" x="1975.5" y="76.0234"/><rect fill="none" height="40.9766" rx="5" ry="5" style="stroke:#A80036;stroke-width:1.5;" width="22" x="1958.5" y="40"/><rect fill="#FEFECE" height="40.9766" rx="5" ry="5" style="stroke:#FEFECE;stroke-width:1.5;" width="209" x="2132" y="10"/><text fill="#000000" font-family="sans-serif" font-size="14" lengthAdjust="spacing" textLength="38" x="2137" y="25.5352">name</text><text fill="#000000" font-family="sans-serif" font-size="14" lengthAdjust="spacing" textLength="122" x="2214" y="25.5352">Example VASP AG</text><line style="stroke:#A80036;stroke-width:1.0;" x1="2209" x2="2209" y1="10" y2="30.4883"/><line style="stroke:#A80036;stroke-width:1.0;" x1="2132" x2="2341" y1="30.4883" y2="30.4883"/><text fill="#000000" font-family="sans-serif" font-size="14" lengthAdjust="spacing" textLength="67" x="2137" y="46.0234">nametype</text><text fill="#000000" font-family="sans-serif" font-size="14" lengthAdjust="spacing" textLength="32" x="2214" y="46.0234">LEGL</text><line style="stroke:#A80036;stroke-width:1.0;" x1="2209" x2="2209" y1="30.4883" y2="50.9766"/><rect fill="none" height="40.9766" rx="5" ry="5" style="stroke:#A80036;stroke-width:1.5;" width="209" x="2132" y="10"/><rect fill="#FEFECE" height="40.9766" rx="5" ry="5" style="stroke:#FEFECE;stroke-width:1.5;" width="139" x="2167" y="69"/><text fill="#000000" font-family="sans-serif" font-size="14" lengthAdjust="spacing" textLength="38" x="2172" y="84.5352">name</text><text fill="#000000" font-family="sans-serif" font-size="14" lengthAdjust="spacing" textLength="52" x="2249" y="84.5352">EgVASP</text><line style="stroke:#A80036;stroke-width:1.0;" x1="2244" x2="2244" y1="69" y2="89.4883"/><line style="stroke:#A80036;stroke-width:1.0;" x1="2167" x2="2306" y1="89.4883" y2="89.4883"/><text fill="#000000" font-family="sans-serif" font-size="14" lengthAdjust="spacing" textLength="67" x="2172" y="105.0234">nametype</text><text fill="#000000" font-family="sans-serif" font-size="14" lengthAdjust="spacing" textLength="36" x="2249" y="105.0234">SHRT</text><line style="stroke:#A80036;stroke-width:1.0;" x1="2244" x2="2244" y1="89.4883" y2="109.9766"/><rect fill="none" height="40.9766" rx="5" ry="5" style="stroke:#A80036;stroke-width:1.5;" width="139" x="2167" y="69"/><rect fill="#FEFECE" height="122.9297" rx="5" ry="5" style="stroke:#FEFECE;stroke-width:1.5;" width="190" x="1505" y="110"/><text fill="#000000" font-family="sans-serif" font-size="14" lengthAdjust="spacing" textLength="59" x="1510" y="125.5352">adr_type</text><text fill="#000000" font-family="sans-serif" font-size="14" lengthAdjust="spacing" textLength="28" x="1583" y="125.5352">BIZZ</text><line style="stroke:#A80036;stroke-width:1.0;" x1="1578" x2="1578" y1="110" y2="130.4883"/><line style="stroke:#A80036;stroke-width:1.0;" x1="1505" x2="1695" y1="130.4883" y2="130.4883"/><text fill="#000000" font-family="sans-serif" font-size="14" lengthAdjust="spacing" textLength="41" x="1510" y="146.0234">thfare</text><text fill="#000000" font-family="sans-serif" font-size="14" lengthAdjust="spacing" textLength="107" x="1583" y="146.0234">Liverpool Street</text><line style="stroke:#A80036;stroke-width:1.0;" x1="1578" x2="1578" y1="130.4883" y2="150.9766"/><line style="stroke:#A80036;stroke-width:1.0;" x1="1505" x2="1695" y1="150.9766" y2="150.9766"/><text fill="#000000" font-family="sans-serif" font-size="14" lengthAdjust="spacing" textLength="55" x="1510" y="166.5117">premise</text><text fill="#000000" font-family="sans-serif" font-size="14" lengthAdjust="spacing" textLength="18" x="1583" y="166.5117">22</text><line style="stroke:#A80036;stroke-width:1.0;" x1="1578" x2="1578" y1="150.9766" y2="171.4648"/><line style="stroke:#A80036;stroke-width:1.0;" x1="1505" x2="1695" y1="171.4648" y2="171.4648"/><text fill="#000000" font-family="sans-serif" font-size="14" lengthAdjust="spacing" textLength="63" x="1510" y="187">postcode</text><text fill="#000000" font-family="sans-serif" font-size="14" lengthAdjust="spacing" textLength="36" x="1583" y="187">EC2R</text><line style="stroke:#A80036;stroke-width:1.0;" x1="1578" x2="1578" y1="171.4648" y2="191.9531"/><line style="stroke:#A80036;stroke-width:1.0;" x1="1505" x2="1695" y1="191.9531" y2="191.9531"/><text fill="#000000" font-family="sans-serif" font-size="14" lengthAdjust="spacing" textLength="48" x="1510" y="207.4883">locality</text><text fill="#000000" font-family="sans-serif" font-size="14" lengthAdjust="spacing" textLength="52" x="1583" y="207.4883">London</text><line style="stroke:#A80036;stroke-width:1.0;" x1="1578" x2="1578" y1="191.9531" y2="212.4414"/><line style="stroke:#A80036;stroke-width:1.0;" x1="1505" x2="1695" y1="212.4414" y2="212.4414"/><text fill="#000000" font-family="sans-serif" font-size="14" lengthAdjust="spacing" textLength="52" x="1510" y="227.9766">country</text><text fill="#000000" font-family="sans-serif" font-size="14" lengthAdjust="spacing" textLength="18" x="1583" y="227.9766">GB</text><line style="stroke:#A80036;stroke-width:1.0;" x1="1578" x2="1578" y1="212.4414" y2="232.9297"/><rect fill="none" height="122.9297" rx="5" ry="5" style="stroke:#A80036;stroke-width:1.5;" width="190" x="1505" y="110"/><rect fill="#FEFECE" height="40.9766" rx="5" ry="5" style="stroke:#FEFECE;stroke-width:1.5;" width="22" x="1588" y="251"/><text fill="#000000" font-family="sans-serif" font-size="14" lengthAdjust="spacing" textLength="0" x="1605" y="266.5352"/><line style="stroke:#A80036;stroke-width:1.0;" x1="1588" x2="1610" y1="271.4883" y2="271.4883"/><text fill="#000000" font-family="sans-serif" font-size="14" lengthAdjust="spacing" textLength="0" x="1605" y="287.0234"/><rect fill="none" height="40.9766" rx="5" ry="5" style="stroke:#A80036;stroke-width:1.5;" width="22" x="1588" y="251"/><rect fill="#FEFECE" height="40.9766" rx="5" ry="5" style="stroke:#FEFECE;stroke-width:1.5;" width="185" x="1878" y="221"/><text fill="#000000" font-family="sans-serif" font-size="14" lengthAdjust="spacing" textLength="26" x="1883" y="236.5352">idId</text><text fill="#000000" font-family="sans-serif" font-size="14" lengthAdjust="spacing" textLength="119" x="1939" y="236.5352">CH02035398520</text><line style="stroke:#A80036;stroke-width:1.0;" x1="1934" x2="1934" y1="221" y2="241.4883"/><line style="stroke:#A80036;stroke-width:1.0;" x1="1878" x2="2063" y1="241.4883" y2="241.4883"/><text fill="#000000" font-family="sans-serif" font-size="14" lengthAdjust="spacing" textLength="46" x="1883" y="257.0234">idType</text><text fill="#000000" font-family="sans-serif" font-size="14" lengthAdjust="spacing" textLength="33" x="1939" y="257.0234">RAID</text><line style="stroke:#A80036;stroke-width:1.0;" x1="1934" x2="1934" y1="241.4883" y2="261.9766"/><rect fill="none" height="40.9766" rx="5" ry="5" style="stroke:#A80036;stroke-width:1.5;" width="185" x="1878" y="221"/><rect fill="#FEFECE" height="40.9766" rx="5" ry="5" style="stroke:#FEFECE;stroke-width:1.5;" width="249" x="1846" y="280"/><text fill="#000000" font-family="sans-serif" font-size="14" lengthAdjust="spacing" textLength="26" x="1851" y="295.5352">idId</text><text fill="#000000" font-family="sans-serif" font-size="14" lengthAdjust="spacing" textLength="183" x="1907" y="295.5352">529900W6B9NEA233DS71</text><line style="stroke:#A80036;stroke-width:1.0;" x1="1902" x2="1902" y1="280" y2="300.4883"/><line style="stroke:#A80036;stroke-width:1.0;" x1="1846" x2="2095" y1="300.4883" y2="300.4883"/><text fill="#000000" font-family="sans-serif" font-size="14" lengthAdjust="spacing" textLength="46" x="1851" y="316.0234">idType</text><text fill="#000000" font-family="sans-serif" font-size="14" lengthAdjust="spacing" textLength="28" x="1907" y="316.0234">LEIX</text><line style="stroke:#A80036;stroke-width:1.0;" x1="1902" x2="1902" y1="300.4883" y2="320.9766"/><rect fill="none" height="40.9766" rx="5" ry="5" style="stroke:#A80036;stroke-width:1.5;" width="249" x="1846" y="280"/><rect fill="#FEFECE" height="40.9766" rx="5" ry="5" style="stroke:#FEFECE;stroke-width:1.5;" width="22" x="1179.5" y="331"/><text fill="#000000" font-family="sans-serif" font-size="14" lengthAdjust="spacing" textLength="0" x="1196.5" y="346.5352"/><line style="stroke:#A80036;stroke-width:1.0;" x1="1179.5" x2="1201.5" y1="351.4883" y2="351.4883"/><text fill="#000000" font-family="sans-serif" font-size="14" lengthAdjust="spacing" textLength="0" x="1196.5" y="367.0234"/><rect fill="none" height="40.9766" rx="5" ry="5" style="stroke:#A80036;stroke-width:1.5;" width="22" x="1179.5" y="331"/><rect fill="#FEFECE" height="61.4648" rx="5" ry="5" style="stroke:#FEFECE;stroke-width:1.5;" width="418" x="1391" y="310"/><text fill="#000000" font-family="sans-serif" font-size="14" lengthAdjust="spacing" textLength="80" x="1396" y="325.5352">licenseType</text><text fill="#000000" font-family="sans-serif" font-size="14" lengthAdjust="spacing" textLength="56" x="1486" y="325.5352">VQFSRO</text><line style="stroke:#A80036;stroke-width:1.0;" x1="1481" x2="1481" y1="310" y2="330.4883"/><line style="stroke:#A80036;stroke-width:1.0;" x1="1391" x2="1809" y1="330.4883" y2="330.4883"/><text fill="#000000" font-family="sans-serif" font-size="14" lengthAdjust="spacing" textLength="52" x="1396" y="346.0234">country</text><text fill="#000000" font-family="sans-serif" font-size="14" lengthAdjust="spacing" textLength="20" x="1486" y="346.0234">CH</text><line style="stroke:#A80036;stroke-width:1.0;" x1="1481" x2="1481" y1="330.4883" y2="350.9766"/><line style="stroke:#A80036;stroke-width:1.0;" x1="1391" x2="1809" y1="350.9766" y2="350.9766"/><text fill="#000000" font-family="sans-serif" font-size="14" lengthAdjust="spacing" textLength="62" x="1396" y="366.5117">authority</text><text fill="#000000" font-family="sans-serif" font-size="14" lengthAdjust="spacing" textLength="318" x="1486" y="366.5117">Financial Services Standards Association (VQF)</text><line style="stroke:#A80036;stroke-width:1.0;" x1="1481" x2="1481" y1="350.9766" y2="371.4648"/><rect fill="none" height="61.4648" rx="5" ry="5" style="stroke:#A80036;stroke-width:1.5;" width="418" x="1391" y="310"/><rect fill="#FEFECE" height="81.9531" rx="5" ry="5" style="stroke:#FEFECE;stroke-width:1.5;" width="365" x="1417.5" y="389.5"/><text fill="#000000" font-family="sans-serif" font-size="14" lengthAdjust="spacing" textLength="80" x="1422.5" y="405.0352">licenseType</text><text fill="#000000" font-family="sans-serif" font-size="14" lengthAdjust="spacing" textLength="60" x="1512.5" y="405.0352">MICAEMI</text><line style="stroke:#A80036;stroke-width:1.0;" x1="1507.5" x2="1507.5" y1="389.5" y2="409.9883"/><line style="stroke:#A80036;stroke-width:1.0;" x1="1417.5" x2="1782.5" y1="409.9883" y2="409.9883"/><text fill="#000000" font-family="sans-serif" font-size="14" lengthAdjust="spacing" textLength="52" x="1422.5" y="425.5234">country</text><text fill="#000000" font-family="sans-serif" font-size="14" lengthAdjust="spacing" textLength="20" x="1512.5" y="425.5234">CH</text><line style="stroke:#A80036;stroke-width:1.0;" x1="1507.5" x2="1507.5" y1="409.9883" y2="430.4766"/><line style="stroke:#A80036;stroke-width:1.0;" x1="1417.5" x2="1782.5" y1="430.4766" y2="430.4766"/><text fill="#000000" font-family="sans-serif" font-size="14" lengthAdjust="spacing" textLength="62" x="1422.5" y="446.0117">authority</text><text fill="#000000" font-family="sans-serif" font-size="14" lengthAdjust="spacing" textLength="265" x="1512.5" y="446.0117">Another Financial Services Body (AFFB)</text><line style="stroke:#A80036;stroke-width:1.0;" x1="1507.5" x2="1507.5" y1="430.4766" y2="450.9648"/><line style="stroke:#A80036;stroke-width:1.0;" x1="1417.5" x2="1782.5" y1="450.9648" y2="450.9648"/><text fill="#000000" font-family="sans-serif" font-size="14" lengthAdjust="spacing" textLength="66" x="1422.5" y="466.5">attributes</text><text fill="#000000" font-family="sans-serif" font-size="14" lengthAdjust="spacing" textLength="0" x="1524.5" y="466.5"/><line style="stroke:#A80036;stroke-width:1.0;" x1="1507.5" x2="1507.5" y1="450.9648" y2="471.4531"/><rect fill="none" height="81.9531" rx="5" ry="5" style="stroke:#A80036;stroke-width:1.5;" width="365" x="1417.5" y="389.5"/><rect fill="#FEFECE" height="40.9766" rx="5" ry="5" style="stroke:#FEFECE;stroke-width:1.5;" width="165" x="1888" y="441"/><text fill="#000000" font-family="sans-serif" font-size="14" lengthAdjust="spacing" textLength="48" x="1893" y="456.5352">denom</text><text fill="#000000" font-family="sans-serif" font-size="14" lengthAdjust="spacing" textLength="34" x="2008" y="456.5352">sEUR</text><line style="stroke:#A80036;stroke-width:1.0;" x1="2003" x2="2003" y1="441" y2="461.4883"/><line style="stroke:#A80036;stroke-width:1.0;" x1="1888" x2="2053" y1="461.4883" y2="461.4883"/><text fill="#000000" font-family="sans-serif" font-size="14" lengthAdjust="spacing" textLength="105" x="1893" y="477.0234">circulationLimit</text><text fill="#000000" font-family="sans-serif" font-size="14" lengthAdjust="spacing" textLength="40" x="2008" y="477.0234">100.0</text><line style="stroke:#A80036;stroke-width:1.0;" x1="2003" x2="2003" y1="461.4883" y2="481.9766"/><rect fill="none" height="40.9766" rx="5" ry="5" style="stroke:#A80036;stroke-width:1.5;" width="165" x="1888" y="441"/><rect fill="#FEFECE" height="40.9766" rx="5" ry="5" style="stroke:#FEFECE;stroke-width:1.5;" width="218" x="1082.5" y="390"/><text fill="#000000" font-family="sans-serif" font-size="14" lengthAdjust="spacing" textLength="29" x="1087.5" y="405.5352">type</text><text fill="#000000" font-family="sans-serif" font-size="14" lengthAdjust="spacing" textLength="169" x="1126.5" y="405.5352">NetworkAgreement_v1.0</text><line style="stroke:#A80036;stroke-width:1.0;" x1="1121.5" x2="1121.5" y1="390" y2="410.4883"/><line style="stroke:#A80036;stroke-width:1.0;" x1="1082.5" x2="1300.5" y1="410.4883" y2="410.4883"/><text fill="#000000" font-family="sans-serif" font-size="14" lengthAdjust="spacing" textLength="18" x="1087.5" y="426.0234">mf</text><text fill="#000000" font-family="sans-serif" font-size="14" lengthAdjust="spacing" textLength="24" x="1126.5" y="426.0234">ALL</text><line style="stroke:#A80036;stroke-width:1.0;" x1="1121.5" x2="1121.5" y1="410.4883" y2="430.9766"/><rect fill="none" height="40.9766" rx="5" ry="5" style="stroke:#A80036;stroke-width:1.5;" width="218" x="1082.5" y="390"/><rect fill="#FEFECE" height="102.4414" rx="5" ry="5" style="stroke:#FEFECE;stroke-width:1.5;" width="582" x="410" y="401.5"/><text fill="#000000" font-family="sans-serif" font-size="14" lengthAdjust="spacing" textLength="29" x="415" y="417.0352">type</text><text fill="#000000" font-family="sans-serif" font-size="14" lengthAdjust="spacing" textLength="126" x="553" y="417.0352">RsaSignature2018</text><line style="stroke:#A80036;stroke-width:1.0;" x1="548" x2="548" y1="401.5" y2="421.9883"/><line style="stroke:#A80036;stroke-width:1.0;" x1="410" x2="992" y1="421.9883" y2="421.9883"/><text fill="#000000" font-family="sans-serif" font-size="14" lengthAdjust="spacing" textLength="51" x="415" y="437.5234">created</text><text fill="#000000" font-family="sans-serif" font-size="14" lengthAdjust="spacing" textLength="167" x="553" y="437.5234">2021-08-01T15:23:24Z</text><line style="stroke:#A80036;stroke-width:1.0;" x1="548" x2="548" y1="421.9883" y2="442.4766"/><line style="stroke:#A80036;stroke-width:1.0;" x1="410" x2="992" y1="442.4766" y2="442.4766"/><text fill="#000000" font-family="sans-serif" font-size="14" lengthAdjust="spacing" textLength="94" x="415" y="458.0117">proofPurpose</text><text fill="#000000" font-family="sans-serif" font-size="14" lengthAdjust="spacing" textLength="115" x="553" y="458.0117">assertionMethod</text><line style="stroke:#A80036;stroke-width:1.0;" x1="548" x2="548" y1="442.4766" y2="462.9648"/><line style="stroke:#A80036;stroke-width:1.0;" x1="410" x2="992" y1="462.9648" y2="462.9648"/><text fill="#000000" font-family="sans-serif" font-size="14" lengthAdjust="spacing" textLength="128" x="415" y="478.5">verificationMethod</text><text fill="#000000" font-family="sans-serif" font-size="14" lengthAdjust="spacing" textLength="250" x="553" y="478.5">https://example.edu/issuers/keys/1</text><line style="stroke:#A80036;stroke-width:1.0;" x1="548" x2="548" y1="462.9648" y2="483.4531"/><line style="stroke:#A80036;stroke-width:1.0;" x1="410" x2="992" y1="483.4531" y2="483.4531"/><text fill="#000000" font-family="sans-serif" font-size="14" lengthAdjust="spacing" textLength="22" x="415" y="498.9883">jws</text><text fill="#000000" font-family="sans-serif" font-size="14" lengthAdjust="spacing" textLength="434" x="553" y="498.9883">eyJhbGciOiJSUzI1NiIsImI2NCI6ZmFsc2UsImNyaXQiOlsiYjY0Il19...</text><line style="stroke:#A80036;stroke-width:1.0;" x1="548" x2="548" y1="483.4531" y2="503.9414"/><rect fill="none" height="102.4414" rx="5" ry="5" style="stroke:#A80036;stroke-width:1.5;" width="582" x="410" y="401.5"/><path d="M361,245.5 L374,245.5 C414.5058,245.5 457.78,243.8705 499.1373,241.5193 " fill="none" style="stroke:#A80036;stroke-width:1.0;stroke-dasharray:3.0,3.0;"/><path d="M499.3161,244.5988 L501.4469,241.3851 L498.9584,238.4397 L506.8362,241.0721 L499.3161,244.5988 " fill="#A80036" style="stroke:#A80036;stroke-width:1.0;"/><ellipse cx="361" cy="245.5" fill="#A80036" rx="3" ry="3" style="stroke:#A80036;stroke-width:1.0;stroke-dasharray:3.0,3.0;"/><path d="M361,286.5 L374,286.5 C458.194,286.5 554.5953,285.4902 620.6986,284.6423 " fill="none" style="stroke:#A80036;stroke-width:1.0;stroke-dasharray:3.0,3.0;"/><path d="M620.7375,287.6444 L622.9502,284.6131 L620.6597,281.6401 L628.204,284.545 L620.7375,287.6444 " fill="#A80036" style="stroke:#A80036;stroke-width:1.0;"/><ellipse cx="361" cy="286.5" fill="#A80036" rx="3" ry="3" style="stroke:#A80036;stroke-width:1.0;stroke-dasharray:3.0,3.0;"/><path d="M1971,49.5 L1984,49.5 C2030.1407,49.5 2080.8994,46.2935 2124.6952,42.5151 " fill="none" style="stroke:#A80036;stroke-width:1.0;stroke-dasharray:3.0,3.0;"/><path d="M2124.9596,45.5266 L2126.9539,42.3168 L2124.4308,39.5036 L2132.224,41.8541 L2124.9596,45.5266 " fill="#A80036" style="stroke:#A80036;stroke-width:1.0;"/><ellipse cx="1971" cy="49.5" fill="#A80036" rx="3" ry="3" style="stroke:#A80036;stroke-width:1.0;stroke-dasharray:3.0,3.0;"/><path d="M1971,70.5 L1984,70.5 C2043.1549,70.5 2109.9003,75.7703 2159.832,80.7595 " fill="none" style="stroke:#A80036;stroke-width:1.0;stroke-dasharray:3.0,3.0;"/><path d="M2159.5259,83.7809 L2162.0981,80.9891 L2160.1382,77.7381 L2167.3855,81.5249 L2159.5259,83.7809 " fill="#A80036" style="stroke:#A80036;stroke-width:1.0;"/><ellipse cx="1971" cy="70.5" fill="#A80036" rx="3" ry="3" style="stroke:#A80036;stroke-width:1.0;stroke-dasharray:3.0,3.0;"/><path d="M1634.5,60.5 L1647.5,60.5 C1762.8823,60.5 1901.485,60.5 1951.1544,60.5 " fill="none" style="stroke:#A80036;stroke-width:1.0;stroke-dasharray:3.0,3.0;"/><path d="M1951.1544,63.5823 L1953.4661,60.5 L1951.1544,57.4177 L1958.8601,60.5 L1951.1544,63.5823 " fill="#A80036" style="stroke:#A80036;stroke-width:1.0;"/><ellipse cx="1634.5" cy="60.5" fill="#A80036" rx="3" ry="3" style="stroke:#A80036;stroke-width:1.0;stroke-dasharray:3.0,3.0;"/><path d="M1342,189.5 L1355,189.5 C1397.669,189.5 1357.3524,126.7389 1391,100.5 C1435.1343,66.0834 1501.0776,62.4655 1546.9438,65.1144 " fill="none" style="stroke:#A80036;stroke-width:1.0;stroke-dasharray:3.0,3.0;"/><path d="M1546.7367,68.2147 L1549.269,65.2698 L1547.151,62.0142 L1554.6944,65.6324 L1546.7367,68.2147 " fill="#A80036" style="stroke:#A80036;stroke-width:1.0;"/><ellipse cx="1342" cy="189.5" fill="#A80036" rx="3" ry="3" style="stroke:#A80036;stroke-width:1.0;stroke-dasharray:3.0,3.0;"/><path d="M1342,210.5 L1355,210.5 C1402.3384,210.5 1454.1959,203.2825 1497.9237,195.0573 " fill="none" style="stroke:#A80036;stroke-width:1.0;stroke-dasharray:3.0,3.0;"/><path d="M1498.4983,198.0593 L1500.1752,194.6264 L1497.3492,192.0553 L1505.4288,193.6209 L1498.4983,198.0593 " fill="#A80036" style="stroke:#A80036;stroke-width:1.0;"/><ellipse cx="1342" cy="210.5" fill="#A80036" rx="3" ry="3" style="stroke:#A80036;stroke-width:1.0;stroke-dasharray:3.0,3.0;"/><path d="M1600.5,260.5 L1613.5,260.5 C1700.5108,260.5 1799.2981,254.7864 1870.7802,249.6255 " fill="none" style="stroke:#A80036;stroke-width:1.0;stroke-dasharray:3.0,3.0;"/><path d="M1871.0048,252.7068 L1873.0911,249.457 L1870.5555,246.5443 L1878.4834,249.0639 L1871.0048,252.7068 " fill="#A80036" style="stroke:#A80036;stroke-width:1.0;"/><ellipse cx="1600.5" cy="260.5" fill="#A80036" rx="3" ry="3" style="stroke:#A80036;stroke-width:1.0;stroke-dasharray:3.0,3.0;"/><path d="M1600.5,281.5 L1613.5,281.5 C1688.1002,281.5 1771.3571,285.7 1838.6401,290.1506 " fill="none" style="stroke:#A80036;stroke-width:1.0;stroke-dasharray:3.0,3.0;"/><path d="M1838.4339,293.2332 L1840.952,290.3053 L1838.8462,287.068 L1846.3466,290.6661 L1838.4339,293.2332 " fill="#A80036" style="stroke:#A80036;stroke-width:1.0;"/><ellipse cx="1600.5" cy="281.5" fill="#A80036" rx="3" ry="3" style="stroke:#A80036;stroke-width:1.0;stroke-dasharray:3.0,3.0;"/><path d="M1342,231.5 L1355,231.5 C1371.6058,231.5 1374.7484,238.0883 1391,241.5 C1460.21,256.0293 1543.8286,265.7261 1580.5979,269.6009 " fill="none" style="stroke:#A80036;stroke-width:1.0;stroke-dasharray:3.0,3.0;"/><path d="M1580.2864,272.6058 L1582.8516,269.8346 L1580.9094,266.596 L1588.1101,270.3797 L1580.2864,272.6058 " fill="#A80036" style="stroke:#A80036;stroke-width:1.0;"/><ellipse cx="1342" cy="231.5" fill="#A80036" rx="3" ry="3" style="stroke:#A80036;stroke-width:1.0;stroke-dasharray:3.0,3.0;"/><path d="M742.5,331.5 L755.5,331.5 C861.3928,331.5 891.7528,343.5209 993,312.5 C1041.0107,297.7901 1090.1722,270.0648 1127.4985,245.881 " fill="none" style="stroke:#A80036;stroke-width:1.0;stroke-dasharray:3.0,3.0;"/><path d="M1129.1619,248.4237 L1129.4055,244.6335 L1125.8351,243.3383 L1133.8553,241.7226 L1129.1619,248.4237 " fill="#A80036" style="stroke:#A80036;stroke-width:1.0;"/><ellipse cx="742.5" cy="331.5" fill="#A80036" rx="3" ry="3" style="stroke:#A80036;stroke-width:1.0;stroke-dasharray:3.0,3.0;"/><path d="M1192,340.5 L1205,340.5 C1262.9269,340.5 1325.6382,340.5 1383.6498,340.5 " fill="none" style="stroke:#A80036;stroke-width:1.0;stroke-dasharray:3.0,3.0;"/><path d="M1383.6498,343.6138 L1385.9852,340.5 L1383.6498,337.3862 L1391.4344,340.5 L1383.6498,343.6138 " fill="#A80036" style="stroke:#A80036;stroke-width:1.0;"/><ellipse cx="1192" cy="340.5" fill="#A80036" rx="3" ry="3" style="stroke:#A80036;stroke-width:1.0;stroke-dasharray:3.0,3.0;"/><path d="M1771.5,461.5 L1784.5,461.5 C1815.8217,461.5 1850.1184,461.5 1880.6087,461.5 " fill="none" style="stroke:#A80036;stroke-width:1.0;stroke-dasharray:3.0,3.0;"/><path d="M1880.6087,464.5663 L1882.9084,461.5 L1880.6087,458.4337 L1888.2743,461.5 L1880.6087,464.5663 " fill="#A80036" style="stroke:#A80036;stroke-width:1.0;"/><ellipse cx="1771.5" cy="461.5" fill="#A80036" rx="3" ry="3" style="stroke:#A80036;stroke-width:1.0;stroke-dasharray:3.0,3.0;"/><path d="M1192,361.5 L1205,361.5 C1245.2034,361.5 1329.5881,375.5805 1410.0333,391.0202 " fill="none" style="stroke:#A80036;stroke-width:1.0;stroke-dasharray:3.0,3.0;"/><path d="M1409.4341,394.1287 L1412.3647,391.4696 L1410.6325,387.9118 L1417.8044,392.5182 L1409.4341,394.1287 " fill="#A80036" style="stroke:#A80036;stroke-width:1.0;"/><ellipse cx="1192" cy="361.5" fill="#A80036" rx="3" ry="3" style="stroke:#A80036;stroke-width:1.0;stroke-dasharray:3.0,3.0;"/><path d="M742.5,351.5 L755.5,351.5 C916.892,351.5 1111.9274,351.5 1172.2897,351.5 " fill="none" style="stroke:#A80036;stroke-width:1.0;stroke-dasharray:3.0,3.0;"/><path d="M1172.2897,354.5424 L1174.5715,351.5 L1172.2897,348.4576 L1179.8957,351.5 L1172.2897,354.5424 " fill="#A80036" style="stroke:#A80036;stroke-width:1.0;"/><ellipse cx="742.5" cy="351.5" fill="#A80036" rx="3" ry="3" style="stroke:#A80036;stroke-width:1.0;stroke-dasharray:3.0,3.0;"/><path d="M742.5,372.5 L755.5,372.5 C864.2747,372.5 987.7552,384.4106 1075.3813,394.8954 " fill="none" style="stroke:#A80036;stroke-width:1.0;stroke-dasharray:3.0,3.0;"/><path d="M1075.0162,397.9231 L1077.6521,395.1692 L1075.7464,391.8677 L1082.9505,395.8082 L1075.0162,397.9231 " fill="#A80036" style="stroke:#A80036;stroke-width:1.0;"/><ellipse cx="742.5" cy="372.5" fill="#A80036" rx="3" ry="3" style="stroke:#A80036;stroke-width:1.0;stroke-dasharray:3.0,3.0;"/><path d="M361,348.5 L374,348.5 C467.1504,348.5 575.2384,350.148 640.7094,351.3284 " fill="none" style="stroke:#A80036;stroke-width:1.0;stroke-dasharray:3.0,3.0;"/><path d="M640.6528,354.4361 L643.0401,351.3709 L640.766,348.2208 L648.4785,351.4699 L640.6528,354.4361 " fill="#A80036" style="stroke:#A80036;stroke-width:1.0;"/><ellipse cx="361" cy="348.5" fill="#A80036" rx="3" ry="3" style="stroke:#A80036;stroke-width:1.0;stroke-dasharray:3.0,3.0;"/><path d="M361,368.5 L374,368.5 C393.2296,368.5 392.2574,385.0854 410,392.5 C415.1451,394.6501 420.3747,396.7257 425.6724,398.7292 " fill="none" style="stroke:#A80036;stroke-width:1.0;stroke-dasharray:3.0,3.0;"/><path d="M424.5974,401.6352 L427.8519,399.5355 L426.7475,395.8233 L432.9373,401.4168 L424.5974,401.6352 " fill="#A80036" style="stroke:#A80036;stroke-width:1.0;"/><ellipse cx="361" cy="368.5" fill="#A80036" rx="3" ry="3" style="stroke:#A80036;stroke-width:1.0;stroke-dasharray:3.0,3.0;"/><!--MD5=[8d1aced625bc2a46af673f48daa60771]
@startjson LicenseCredential
{
	"@context": [
		"https://www.w3.org/2018/credentials/v1",
		"https://www.cosmos.cash/2021/credentials/license/v1"
	],
	"id": "did:cosmos:cash:1000bb528777",
	"type": [
		"VerifiableCredential", 
		"LicenseCredential"
	],
	"issuer": "did:sov:12345",
	"issuanceDate": "2021-08-01T15:23:24Z",
	"credentialSubject": {
		"vasp": {
			"vaspId": "did:cosmos:cash:1000bb528777",
			"legalPerson": {
				"names": [{
					"name": "Example VASP AG",
					"nametype": "LEGL"
				}, {
					"name": "EgVASP",
					"nametype": "SHRT"
				}],
				"ctryReg": "CH"
			},
			"address": {
				"adr_type": "BIZZ",
				"thfare": "Liverpool Street",
				"premise": "22",
				"postcode": "EC2R",
				"locality": "London",
				"country": "GB"
			},
			"ids": [{
				"idId": "CH02035398520",
				"idType": "RAID"
			}, {
				"idId": "529900W6B9NEA233DS71",
				"idType": "LEIX"
			}]
		},
		"licenses": [{
			"licenseType": "VQFSRO",
			"country": "CH",
			"authority": "Financial Services Standards Association (VQF)"
		},{
			"licenseType": "MICAEMI",
			"country": "CH",
			"authority": "Another Financial Services Body (AFFB)",
			"attributes": {
				"denom": "sEUR",
				"circulationLimit": "100.0"
			}
		}],
		"agreement": {
			"type": "NetworkAgreement_v1.0",
			"mf": "ALL"
		}
	},
	"proof": {
		"type": "RsaSignature2018",
		"created": "2021-08-01T15:23:24Z",
		"proofPurpose": "assertionMethod",
		"verificationMethod": "https://example.edu/issuers/keys/1",
		"jws": "eyJhbGciOiJSUzI1NiIsImI2NCI6ZmFsc2UsImNyaXQiOlsiYjY0Il19..."
  	}
}
@endjson

PlantUML version 1.2021.9(Sun Jul 25 11:13:56 BST 2021)
(GPL source distribution)
Java Runtime: OpenJDK Runtime Environment
JVM: OpenJDK 64-Bit Server VM
Default Encoding: UTF-8
Language: en
Country: GB
--></g></svg>