<?xml version="1.0" encoding="UTF-8" standalone="no"?><svg xmlns="http://www.w3.org/2000/svg" xmlns:xlink="http://www.w3.org/1999/xlink" contentScriptType="application/ecmascript" contentStyleType="text/css" height="286px" preserveAspectRatio="none" style="width:1431px;height:286px;background:#FFFFFF;" version="1.1" viewBox="0 0 1431 286" width="1431px" zoomAndPan="magnify"><defs/><g><rect fill="#FEFECE" height="143.418" rx="5" ry="5" style="stroke:#FEFECE;stroke-width:1.5;" width="363" x="10" y="35"/><text fill="#000000" font-family="sans-serif" font-size="14" lengthAdjust="spacing" textLength="64" x="15" y="50.5352">@context</text><text fill="#000000" font-family="sans-serif" font-size="14" lengthAdjust="spacing" textLength="0" x="155" y="50.5352"/><line style="stroke:#A80036;stroke-width:1.0;" x1="138" x2="138" y1="35" y2="55.4883"/><line style="stroke:#A80036;stroke-width:1.0;" x1="10" x2="373" y1="55.4883" y2="55.4883"/><text fill="#000000" font-family="sans-serif" font-size="14" lengthAdjust="spacing" textLength="13" x="15" y="71.0234">id</text><text fill="#000000" font-family="sans-serif" font-size="14" lengthAdjust="spacing" textLength="225" x="143" y="71.0234">did:cosmos:cash:1000bb528777</text><line style="stroke:#A80036;stroke-width:1.0;" x1="138" x2="138" y1="55.4883" y2="75.9766"/><line style="stroke:#A80036;stroke-width:1.0;" x1="10" x2="373" y1="75.9766" y2="75.9766"/><text fill="#000000" font-family="sans-serif" font-size="14" lengthAdjust="spacing" textLength="29" x="15" y="91.5117">type</text><text fill="#000000" font-family="sans-serif" font-size="14" lengthAdjust="spacing" textLength="0" x="155" y="91.5117"/><line style="stroke:#A80036;stroke-width:1.0;" x1="138" x2="138" y1="75.9766" y2="96.4648"/><line style="stroke:#A80036;stroke-width:1.0;" x1="10" x2="373" y1="96.4648" y2="96.4648"/><text fill="#000000" font-family="sans-serif" font-size="14" lengthAdjust="spacing" textLength="41" x="15" y="112">issuer</text><text fill="#000000" font-family="sans-serif" font-size="14" lengthAdjust="spacing" textLength="98" x="143" y="112">did:sov:12345</text><line style="stroke:#A80036;stroke-width:1.0;" x1="138" x2="138" y1="96.4648" y2="116.9531"/><line style="stroke:#A80036;stroke-width:1.0;" x1="10" x2="373" y1="116.9531" y2="116.9531"/><text fill="#000000" font-family="sans-serif" font-size="14" lengthAdjust="spacing" textLength="90" x="15" y="132.4883">issuanceDate</text><text fill="#000000" font-family="sans-serif" font-size="14" lengthAdjust="spacing" textLength="167" x="143" y="132.4883">2021-08-01T15:23:24Z</text><line style="stroke:#A80036;stroke-width:1.0;" x1="138" x2="138" y1="116.9531" y2="137.4414"/><line style="stroke:#A80036;stroke-width:1.0;" x1="10" x2="373" y1="137.4414" y2="137.4414"/><text fill="#000000" font-family="sans-serif" font-size="14" lengthAdjust="spacing" textLength="118" x="15" y="152.9766">credentialSubject</text><text fill="#000000" font-family="sans-serif" font-size="14" lengthAdjust="spacing" textLength="0" x="155" y="152.9766"/><line style="stroke:#A80036;stroke-width:1.0;" x1="138" x2="138" y1="137.4414" y2="157.9297"/><line style="stroke:#A80036;stroke-width:1.0;" x1="10" x2="373" y1="157.9297" y2="157.9297"/><text fill="#000000" font-family="sans-serif" font-size="14" lengthAdjust="spacing" textLength="38" x="15" y="173.4648">proof</text><text fill="#000000" font-family="sans-serif" font-size="14" lengthAdjust="spacing" textLength="0" x="155" y="173.4648"/><line style="stroke:#A80036;stroke-width:1.0;" x1="138" x2="138" y1="157.9297" y2="178.418"/><rect fill="none" height="143.418" rx="5" ry="5" style="stroke:#A80036;stroke-width:1.5;" width="363" x="10" y="35"/><rect fill="#FEFECE" height="40.9766" rx="5" ry="5" style="stroke:#FEFECE;stroke-width:1.5;" width="389" x="506.5" y="10"/><text fill="#000000" font-family="sans-serif" font-size="14" lengthAdjust="spacing" textLength="286" x="511.5" y="25.5352">https://www.w3.org/2018/credentials/v1</text><line style="stroke:#A80036;stroke-width:1.0;" x1="506.5" x2="895.5" y1="30.4883" y2="30.4883"/><text fill="#000000" font-family="sans-serif" font-size="14" lengthAdjust="spacing" textLength="379" x="511.5" y="46.0234">https://www.cosmos.cash/2021/credentials/license/v1</text><rect fill="none" height="40.9766" rx="5" ry="5" style="stroke:#A80036;stroke-width:1.5;" width="389" x="506.5" y="10"/><rect fill="#FEFECE" height="40.9766" rx="5" ry="5" style="stroke:#FEFECE;stroke-width:1.5;" width="146" x="628" y="69"/><text fill="#000000" font-family="sans-serif" font-size="14" lengthAdjust="spacing" textLength="136" x="633" y="84.5352">VerifiableCredential</text><line style="stroke:#A80036;stroke-width:1.0;" x1="628" x2="774" y1="89.4883" y2="89.4883"/><text fill="#000000" font-family="sans-serif" font-size="14" lengthAdjust="spacing" textLength="91" x="633" y="105.0234">IssuerLicense</text><rect fill="none" height="40.9766" rx="5" ry="5" style="stroke:#A80036;stroke-width:1.5;" width="146" x="628" y="69"/><rect fill="#FEFECE" height="20.4883" rx="5" ry="5" style="stroke:#FEFECE;stroke-width:1.5;" width="79" x="661.5" y="134.5"/><text fill="#000000" font-family="sans-serif" font-size="14" lengthAdjust="spacing" textLength="47" x="666.5" y="150.0352">license</text><text fill="#000000" font-family="sans-serif" font-size="14" lengthAdjust="spacing" textLength="0" x="735.5" y="150.0352"/><line style="stroke:#A80036;stroke-width:1.0;" x1="718.5" x2="718.5" y1="134.5" y2="154.9883"/><rect fill="none" height="20.4883" rx="5" ry="5" style="stroke:#A80036;stroke-width:1.5;" width="79" x="661.5" y="134.5"/><rect fill="#FEFECE" height="81.9531" rx="5" ry="5" style="stroke:#FEFECE;stroke-width:1.5;" width="390" x="1029" y="103.5"/><text fill="#000000" font-family="sans-serif" font-size="14" lengthAdjust="spacing" textLength="80" x="1034" y="119.0352">licenseType</text><text fill="#000000" font-family="sans-serif" font-size="14" lengthAdjust="spacing" textLength="60" x="1149" y="119.0352">MICAEMI</text><line style="stroke:#A80036;stroke-width:1.0;" x1="1144" x2="1144" y1="103.5" y2="123.9883"/><line style="stroke:#A80036;stroke-width:1.0;" x1="1029" x2="1419" y1="123.9883" y2="123.9883"/><text fill="#000000" font-family="sans-serif" font-size="14" lengthAdjust="spacing" textLength="62" x="1034" y="139.5234">authority</text><text fill="#000000" font-family="sans-serif" font-size="14" lengthAdjust="spacing" textLength="265" x="1149" y="139.5234">Another Financial Services Body (AFFB)</text><line style="stroke:#A80036;stroke-width:1.0;" x1="1144" x2="1144" y1="123.9883" y2="144.4766"/><line style="stroke:#A80036;stroke-width:1.0;" x1="1029" x2="1419" y1="144.4766" y2="144.4766"/><text fill="#000000" font-family="sans-serif" font-size="14" lengthAdjust="spacing" textLength="48" x="1034" y="160.0117">denom</text><text fill="#000000" font-family="sans-serif" font-size="14" lengthAdjust="spacing" textLength="34" x="1149" y="160.0117">sEUR</text><line style="stroke:#A80036;stroke-width:1.0;" x1="1144" x2="1144" y1="144.4766" y2="164.9648"/><line style="stroke:#A80036;stroke-width:1.0;" x1="1029" x2="1419" y1="164.9648" y2="164.9648"/><text fill="#000000" font-family="sans-serif" font-size="14" lengthAdjust="spacing" textLength="105" x="1034" y="180.5">circulationLimit</text><text fill="#000000" font-family="sans-serif" font-size="14" lengthAdjust="spacing" textLength="27" x="1149" y="180.5">100</text><line style="stroke:#A80036;stroke-width:1.0;" x1="1144" x2="1144" y1="164.9648" y2="185.4531"/><rect fill="none" height="81.9531" rx="5" ry="5" style="stroke:#A80036;stroke-width:1.5;" width="390" x="1029" y="103.5"/><rect fill="#FEFECE" height="102.4414" rx="5" ry="5" style="stroke:#FEFECE;stroke-width:1.5;" width="582" x="410" y="172.5"/><text fill="#000000" font-family="sans-serif" font-size="14" lengthAdjust="spacing" textLength="29" x="415" y="188.0352">type</text><text fill="#000000" font-family="sans-serif" font-size="14" lengthAdjust="spacing" textLength="126" x="553" y="188.0352">RsaSignature2018</text><line style="stroke:#A80036;stroke-width:1.0;" x1="548" x2="548" y1="172.5" y2="192.9883"/><line style="stroke:#A80036;stroke-width:1.0;" x1="410" x2="992" y1="192.9883" y2="192.9883"/><text fill="#000000" font-family="sans-serif" font-size="14" lengthAdjust="spacing" textLength="51" x="415" y="208.5234">created</text><text fill="#000000" font-family="sans-serif" font-size="14" lengthAdjust="spacing" textLength="167" x="553" y="208.5234">2021-08-01T15:23:24Z</text><line style="stroke:#A80036;stroke-width:1.0;" x1="548" x2="548" y1="192.9883" y2="213.4766"/><line style="stroke:#A80036;stroke-width:1.0;" x1="410" x2="992" y1="213.4766" y2="213.4766"/><text fill="#000000" font-family="sans-serif" font-size="14" lengthAdjust="spacing" textLength="94" x="415" y="229.0117">proofPurpose</text><text fill="#000000" font-family="sans-serif" font-size="14" lengthAdjust="spacing" textLength="115" x="553" y="229.0117">assertionMethod</text><line style="stroke:#A80036;stroke-width:1.0;" x1="548" x2="548" y1="213.4766" y2="233.9648"/><line style="stroke:#A80036;stroke-width:1.0;" x1="410" x2="992" y1="233.9648" y2="233.9648"/><text fill="#000000" font-family="sans-serif" font-size="14" lengthAdjust="spacing" textLength="128" x="415" y="249.5">verificationMethod</text><text fill="#000000" font-family="sans-serif" font-size="14" lengthAdjust="spacing" textLength="250" x="553" y="249.5">https://example.edu/issuers/keys/1</text><line style="stroke:#A80036;stroke-width:1.0;" x1="548" x2="548" y1="233.9648" y2="254.4531"/><line style="stroke:#A80036;stroke-width:1.0;" x1="410" x2="992" y1="254.4531" y2="254.4531"/><text fill="#000000" font-family="sans-serif" font-size="14" lengthAdjust="spacing" textLength="22" x="415" y="269.9883">jws</text><text fill="#000000" font-family="sans-serif" font-size="14" lengthAdjust="spacing" textLength="434" x="553" y="269.9883">eyJhbGciOiJSUzI1NiIsImI2NCI6ZmFsc2UsImNyaXQiOlsiYjY0Il19...</text><line style="stroke:#A80036;stroke-width:1.0;" x1="548" x2="548" y1="254.4531" y2="274.9414"/><rect fill="none" height="102.4414" rx="5" ry="5" style="stroke:#A80036;stroke-width:1.5;" width="582" x="410" y="172.5"/><path d="M361,44.5 L374,44.5 C414.4594,44.5 457.7131,43.4137 499.0649,41.8462 " fill="none" style="stroke:#A80036;stroke-width:1.0;stroke-dasharray:3.0,3.0;"/><path d="M499.1841,44.9254 L501.3743,41.7568 L498.9456,38.767 L506.7629,41.5481 L499.1841,44.9254 " fill="#A80036" style="stroke:#A80036;stroke-width:1.0;"/><ellipse cx="361" cy="44.5" fill="#A80036" rx="3" ry="3" style="stroke:#A80036;stroke-width:1.0;stroke-dasharray:3.0,3.0;"/><path d="M361,85.5 L374,85.5 C458.1968,85.5 554.5976,86.8464 620.7001,87.977 " fill="none" style="stroke:#A80036;stroke-width:1.0;stroke-dasharray:3.0,3.0;"/><path d="M620.6482,90.979 L622.9517,88.0158 L620.752,84.9749 L628.2053,88.1066 L620.6482,90.979 " fill="#A80036" style="stroke:#A80036;stroke-width:1.0;"/><ellipse cx="361" cy="85.5" fill="#A80036" rx="3" ry="3" style="stroke:#A80036;stroke-width:1.0;stroke-dasharray:3.0,3.0;"/><path d="M729.5,144.5 L742.5,144.5 C834.0983,144.5 935.5085,144.5 1021.5057,144.5 " fill="none" style="stroke:#A80036;stroke-width:1.0;stroke-dasharray:3.0,3.0;"/><path d="M1021.5057,147.5975 L1023.8288,144.5 L1021.5057,141.4025 L1029.2494,144.5 L1021.5057,147.5975 " fill="#A80036" style="stroke:#A80036;stroke-width:1.0;"/><ellipse cx="729.5" cy="144.5" fill="#A80036" rx="3" ry="3" style="stroke:#A80036;stroke-width:1.0;stroke-dasharray:3.0,3.0;"/><path d="M361,147.5 L374,147.5 C473.7532,147.5 590.6423,146.0825 653.9742,145.1962 " fill="none" style="stroke:#A80036;stroke-width:1.0;stroke-dasharray:3.0,3.0;"/><path d="M654.0184,148.3269 L656.3221,145.163 L653.9299,142.0655 L661.8008,145.0856 L654.0184,148.3269 " fill="#A80036" style="stroke:#A80036;stroke-width:1.0;"/><ellipse cx="361" cy="147.5" fill="#A80036" rx="3" ry="3" style="stroke:#A80036;stroke-width:1.0;stroke-dasharray:3.0,3.0;"/><path d="M361,167.5 L374,167.5 C398.602,167.5 424.0986,169.0636 449.5039,171.6683 " fill="none" style="stroke:#A80036;stroke-width:1.0;stroke-dasharray:3.0,3.0;"/><path d="M449.1834,174.6763 L451.7599,171.9087 L449.8244,168.6604 L457.0238,172.4696 L449.1834,174.6763 " fill="#A80036" style="stroke:#A80036;stroke-width:1.0;"/><ellipse cx="361" cy="167.5" fill="#A80036" rx="3" ry="3" style="stroke:#A80036;stroke-width:1.0;stroke-dasharray:3.0,3.0;"/><!--MD5=[f731500837de8ec1fa83125ab19539f3]
@startjson LicenseCredential
{
	"@context": [
		"https://www.w3.org/2018/credentials/v1",
		"https://www.cosmos.cash/2021/credentials/license/v1"
	],
	"id": "did:cosmos:cash:1000bb528777",
	"type": [
		"VerifiableCredential", 
		"IssuerLicense"
	],
	"issuer": "did:sov:12345",
	"issuanceDate": "2021-08-01T15:23:24Z",
	"credentialSubject": {
		"license": {
			"licenseType": "MICAEMI", 
			"authority": "Another Financial Services Body (AFFB)",
            "denom": "sEUR",
            "circulationLimit": "100"
		}
	},
	"proof": {
		"type": "RsaSignature2018",
		"created": "2021-08-01T15:23:24Z",
		"proofPurpose": "assertionMethod",
		"verificationMethod": "https://example.edu/issuers/keys/1",
		"jws": "eyJhbGciOiJSUzI1NiIsImI2NCI6ZmFsc2UsImNyaXQiOlsiYjY0Il19..." 
  	}
}
@endjson

PlantUML version 1.2021.9(Sun Jul 25 11:13:56 BST 2021)
(GPL source distribution)
Java Runtime: OpenJDK Runtime Environment
JVM: OpenJDK 64-Bit Server VM
Default Encoding: UTF-8
Language: en
Country: GB
--></g></svg>