<?xml version="1.0" encoding="UTF-8" standalone="no"?><svg xmlns="http://www.w3.org/2000/svg" xmlns:xlink="http://www.w3.org/1999/xlink" contentScriptType="application/ecmascript" contentStyleType="text/css" height="342px" preserveAspectRatio="none" style="width:1578px;height:342px;background:#FFFFFF;" version="1.1" viewBox="0 0 1578 342" width="1578px" zoomAndPan="magnify"><defs/><g><rect fill="#FEFECE" height="143.418" rx="5" ry="5" style="stroke:#FEFECE;stroke-width:1.5;" width="379" x="10" y="48"/><text fill="#000000" font-family="sans-serif" font-size="14" lengthAdjust="spacing" textLength="64" x="15" y="63.5352">@context</text><text fill="#000000" font-family="sans-serif" font-size="14" lengthAdjust="spacing" textLength="0" x="155" y="63.5352"/><line style="stroke:#A80036;stroke-width:1.0;" x1="138" x2="138" y1="48" y2="68.4883"/><line style="stroke:#A80036;stroke-width:1.0;" x1="10" x2="389" y1="68.4883" y2="68.4883"/><text fill="#000000" font-family="sans-serif" font-size="14" lengthAdjust="spacing" textLength="13" x="15" y="84.0234">id</text><text fill="#000000" font-family="sans-serif" font-size="14" lengthAdjust="spacing" textLength="241" x="143" y="84.0234">http://fca.gov.uk/credentials/1234</text><line style="stroke:#A80036;stroke-width:1.0;" x1="138" x2="138" y1="68.4883" y2="88.9766"/><line style="stroke:#A80036;stroke-width:1.0;" x1="10" x2="389" y1="88.9766" y2="88.9766"/><text fill="#000000" font-family="sans-serif" font-size="14" lengthAdjust="spacing" textLength="29" x="15" y="104.5117">type</text><text fill="#000000" font-family="sans-serif" font-size="14" lengthAdjust="spacing" textLength="0" x="155" y="104.5117"/><line style="stroke:#A80036;stroke-width:1.0;" x1="138" x2="138" y1="88.9766" y2="109.4648"/><line style="stroke:#A80036;stroke-width:1.0;" x1="10" x2="389" y1="109.4648" y2="109.4648"/><text fill="#000000" font-family="sans-serif" font-size="14" lengthAdjust="spacing" textLength="41" x="15" y="125">issuer</text><text fill="#000000" font-family="sans-serif" font-size="14" lengthAdjust="spacing" textLength="98" x="143" y="125">did:sov:12345</text><line style="stroke:#A80036;stroke-width:1.0;" x1="138" x2="138" y1="109.4648" y2="129.9531"/><line style="stroke:#A80036;stroke-width:1.0;" x1="10" x2="389" y1="129.9531" y2="129.9531"/><text fill="#000000" font-family="sans-serif" font-size="14" lengthAdjust="spacing" textLength="90" x="15" y="145.4883">issuanceDate</text><text fill="#000000" font-family="sans-serif" font-size="14" lengthAdjust="spacing" textLength="167" x="143" y="145.4883">2021-08-01T15:23:24Z</text><line style="stroke:#A80036;stroke-width:1.0;" x1="138" x2="138" y1="129.9531" y2="150.4414"/><line style="stroke:#A80036;stroke-width:1.0;" x1="10" x2="389" y1="150.4414" y2="150.4414"/><text fill="#000000" font-family="sans-serif" font-size="14" lengthAdjust="spacing" textLength="118" x="15" y="165.9766">credentialSubject</text><text fill="#000000" font-family="sans-serif" font-size="14" lengthAdjust="spacing" textLength="0" x="155" y="165.9766"/><line style="stroke:#A80036;stroke-width:1.0;" x1="138" x2="138" y1="150.4414" y2="170.9297"/><line style="stroke:#A80036;stroke-width:1.0;" x1="10" x2="389" y1="170.9297" y2="170.9297"/><text fill="#000000" font-family="sans-serif" font-size="14" lengthAdjust="spacing" textLength="38" x="15" y="186.4648">proof</text><text fill="#000000" font-family="sans-serif" font-size="14" lengthAdjust="spacing" textLength="0" x="155" y="186.4648"/><line style="stroke:#A80036;stroke-width:1.0;" x1="138" x2="138" y1="170.9297" y2="191.418"/><rect fill="none" height="143.418" rx="5" ry="5" style="stroke:#A80036;stroke-width:1.5;" width="379" x="10" y="48"/><rect fill="#FEFECE" height="40.9766" rx="5" ry="5" style="stroke:#FEFECE;stroke-width:1.5;" width="422" x="426" y="10"/><text fill="#000000" font-family="sans-serif" font-size="14" lengthAdjust="spacing" textLength="286" x="431" y="25.5352">https://www.w3.org/2018/credentials/v1</text><line style="stroke:#A80036;stroke-width:1.0;" x1="426" x2="848" y1="30.4883" y2="30.4883"/><text fill="#000000" font-family="sans-serif" font-size="14" lengthAdjust="spacing" textLength="412" x="431" y="46.0234">https://www.cosmos.cash/2021/credentials/registration/v1</text><rect fill="none" height="40.9766" rx="5" ry="5" style="stroke:#A80036;stroke-width:1.5;" width="422" x="426" y="10"/><rect fill="#FEFECE" height="40.9766" rx="5" ry="5" style="stroke:#FEFECE;stroke-width:1.5;" width="164" x="555" y="69"/><text fill="#000000" font-family="sans-serif" font-size="14" lengthAdjust="spacing" textLength="136" x="560" y="84.5352">VerifiableCredential</text><line style="stroke:#A80036;stroke-width:1.0;" x1="555" x2="719" y1="89.4883" y2="89.4883"/><text fill="#000000" font-family="sans-serif" font-size="14" lengthAdjust="spacing" textLength="154" x="560" y="105.0234">RegistrationCredential</text><rect fill="none" height="40.9766" rx="5" ry="5" style="stroke:#A80036;stroke-width:1.5;" width="164" x="555" y="69"/><rect fill="#FEFECE" height="81.9531" rx="5" ry="5" style="stroke:#FEFECE;stroke-width:1.5;" width="325" x="474.5" y="128.5"/><text fill="#000000" font-family="sans-serif" font-size="14" lengthAdjust="spacing" textLength="13" x="479.5" y="144.0352">id</text><text fill="#000000" font-family="sans-serif" font-size="14" lengthAdjust="spacing" textLength="225" x="569.5" y="144.0352">did:cosmos:cash:1000bb528777</text><line style="stroke:#A80036;stroke-width:1.0;" x1="564.5" x2="564.5" y1="128.5" y2="148.9883"/><line style="stroke:#A80036;stroke-width:1.0;" x1="474.5" x2="799.5" y1="148.9883" y2="148.9883"/><text fill="#000000" font-family="sans-serif" font-size="14" lengthAdjust="spacing" textLength="80" x="479.5" y="164.5234">legalPerson</text><text fill="#000000" font-family="sans-serif" font-size="14" lengthAdjust="spacing" textLength="0" x="581.5" y="164.5234"/><line style="stroke:#A80036;stroke-width:1.0;" x1="564.5" x2="564.5" y1="148.9883" y2="169.4766"/><line style="stroke:#A80036;stroke-width:1.0;" x1="474.5" x2="799.5" y1="169.4766" y2="169.4766"/><text fill="#000000" font-family="sans-serif" font-size="14" lengthAdjust="spacing" textLength="54" x="479.5" y="185.0117">address</text><text fill="#000000" font-family="sans-serif" font-size="14" lengthAdjust="spacing" textLength="0" x="581.5" y="185.0117"/><line style="stroke:#A80036;stroke-width:1.0;" x1="564.5" x2="564.5" y1="169.4766" y2="189.9648"/><line style="stroke:#A80036;stroke-width:1.0;" x1="474.5" x2="799.5" y1="189.9648" y2="189.9648"/><text fill="#000000" font-family="sans-serif" font-size="14" lengthAdjust="spacing" textLength="20" x="479.5" y="205.5">ids</text><text fill="#000000" font-family="sans-serif" font-size="14" lengthAdjust="spacing" textLength="0" x="581.5" y="205.5"/><line style="stroke:#A80036;stroke-width:1.0;" x1="564.5" x2="564.5" y1="189.9648" y2="210.4531"/><rect fill="none" height="81.9531" rx="5" ry="5" style="stroke:#A80036;stroke-width:1.5;" width="325" x="474.5" y="128.5"/><rect fill="#FEFECE" height="40.9766" rx="5" ry="5" style="stroke:#FEFECE;stroke-width:1.5;" width="91" x="937" y="59"/><text fill="#000000" font-family="sans-serif" font-size="14" lengthAdjust="spacing" textLength="45" x="942" y="74.5352">names</text><text fill="#000000" font-family="sans-serif" font-size="14" lengthAdjust="spacing" textLength="0" x="1015" y="74.5352"/><line style="stroke:#A80036;stroke-width:1.0;" x1="998" x2="998" y1="59" y2="79.4883"/><line style="stroke:#A80036;stroke-width:1.0;" x1="937" x2="1028" y1="79.4883" y2="79.4883"/><text fill="#000000" font-family="sans-serif" font-size="14" lengthAdjust="spacing" textLength="51" x="942" y="95.0234">ctryReg</text><text fill="#000000" font-family="sans-serif" font-size="14" lengthAdjust="spacing" textLength="20" x="1003" y="95.0234">CH</text><line style="stroke:#A80036;stroke-width:1.0;" x1="998" x2="998" y1="79.4883" y2="99.9766"/><rect fill="none" height="40.9766" rx="5" ry="5" style="stroke:#A80036;stroke-width:1.5;" width="91" x="937" y="59"/><rect fill="#FEFECE" height="40.9766" rx="5" ry="5" style="stroke:#FEFECE;stroke-width:1.5;" width="22" x="1221" y="48"/><text fill="#000000" font-family="sans-serif" font-size="14" lengthAdjust="spacing" textLength="0" x="1238" y="63.5352"/><line style="stroke:#A80036;stroke-width:1.0;" x1="1221" x2="1243" y1="68.4883" y2="68.4883"/><text fill="#000000" font-family="sans-serif" font-size="14" lengthAdjust="spacing" textLength="0" x="1238" y="84.0234"/><rect fill="none" height="40.9766" rx="5" ry="5" style="stroke:#A80036;stroke-width:1.5;" width="22" x="1221" y="48"/><rect fill="#FEFECE" height="40.9766" rx="5" ry="5" style="stroke:#FEFECE;stroke-width:1.5;" width="180" x="1386" y="18"/><text fill="#000000" font-family="sans-serif" font-size="14" lengthAdjust="spacing" textLength="38" x="1391" y="33.5352">name</text><text fill="#000000" font-family="sans-serif" font-size="14" lengthAdjust="spacing" textLength="122" x="1439" y="33.5352">Example VASP AG</text><line style="stroke:#A80036;stroke-width:1.0;" x1="1434" x2="1434" y1="18" y2="38.4883"/><line style="stroke:#A80036;stroke-width:1.0;" x1="1386" x2="1566" y1="38.4883" y2="38.4883"/><text fill="#000000" font-family="sans-serif" font-size="14" lengthAdjust="spacing" textLength="29" x="1391" y="54.0234">type</text><text fill="#000000" font-family="sans-serif" font-size="14" lengthAdjust="spacing" textLength="32" x="1439" y="54.0234">LEGL</text><line style="stroke:#A80036;stroke-width:1.0;" x1="1434" x2="1434" y1="38.4883" y2="58.9766"/><rect fill="none" height="40.9766" rx="5" ry="5" style="stroke:#A80036;stroke-width:1.5;" width="180" x="1386" y="18"/><rect fill="#FEFECE" height="40.9766" rx="5" ry="5" style="stroke:#FEFECE;stroke-width:1.5;" width="110" x="1421" y="77"/><text fill="#000000" font-family="sans-serif" font-size="14" lengthAdjust="spacing" textLength="38" x="1426" y="92.5352">name</text><text fill="#000000" font-family="sans-serif" font-size="14" lengthAdjust="spacing" textLength="52" x="1474" y="92.5352">EgVASP</text><line style="stroke:#A80036;stroke-width:1.0;" x1="1469" x2="1469" y1="77" y2="97.4883"/><line style="stroke:#A80036;stroke-width:1.0;" x1="1421" x2="1531" y1="97.4883" y2="97.4883"/><text fill="#000000" font-family="sans-serif" font-size="14" lengthAdjust="spacing" textLength="29" x="1426" y="113.0234">type</text><text fill="#000000" font-family="sans-serif" font-size="14" lengthAdjust="spacing" textLength="36" x="1474" y="113.0234">SHRT</text><line style="stroke:#A80036;stroke-width:1.0;" x1="1469" x2="1469" y1="97.4883" y2="117.9766"/><rect fill="none" height="40.9766" rx="5" ry="5" style="stroke:#A80036;stroke-width:1.5;" width="110" x="1421" y="77"/><rect fill="#FEFECE" height="122.9297" rx="5" ry="5" style="stroke:#FEFECE;stroke-width:1.5;" width="195" x="885" y="118"/><text fill="#000000" font-family="sans-serif" font-size="14" lengthAdjust="spacing" textLength="68" x="890" y="133.5352">addr_type</text><text fill="#000000" font-family="sans-serif" font-size="14" lengthAdjust="spacing" textLength="28" x="968" y="133.5352">BIZZ</text><line style="stroke:#A80036;stroke-width:1.0;" x1="963" x2="963" y1="118" y2="138.4883"/><line style="stroke:#A80036;stroke-width:1.0;" x1="885" x2="1080" y1="138.4883" y2="138.4883"/><text fill="#000000" font-family="sans-serif" font-size="14" lengthAdjust="spacing" textLength="41" x="890" y="154.0234">thfare</text><text fill="#000000" font-family="sans-serif" font-size="14" lengthAdjust="spacing" textLength="107" x="968" y="154.0234">Liverpool Street</text><line style="stroke:#A80036;stroke-width:1.0;" x1="963" x2="963" y1="138.4883" y2="158.9766"/><line style="stroke:#A80036;stroke-width:1.0;" x1="885" x2="1080" y1="158.9766" y2="158.9766"/><text fill="#000000" font-family="sans-serif" font-size="14" lengthAdjust="spacing" textLength="55" x="890" y="174.5117">premise</text><text fill="#000000" font-family="sans-serif" font-size="14" lengthAdjust="spacing" textLength="18" x="968" y="174.5117">22</text><line style="stroke:#A80036;stroke-width:1.0;" x1="963" x2="963" y1="158.9766" y2="179.4648"/><line style="stroke:#A80036;stroke-width:1.0;" x1="885" x2="1080" y1="179.4648" y2="179.4648"/><text fill="#000000" font-family="sans-serif" font-size="14" lengthAdjust="spacing" textLength="63" x="890" y="195">postcode</text><text fill="#000000" font-family="sans-serif" font-size="14" lengthAdjust="spacing" textLength="36" x="968" y="195">EC2R</text><line style="stroke:#A80036;stroke-width:1.0;" x1="963" x2="963" y1="179.4648" y2="199.9531"/><line style="stroke:#A80036;stroke-width:1.0;" x1="885" x2="1080" y1="199.9531" y2="199.9531"/><text fill="#000000" font-family="sans-serif" font-size="14" lengthAdjust="spacing" textLength="48" x="890" y="215.4883">locality</text><text fill="#000000" font-family="sans-serif" font-size="14" lengthAdjust="spacing" textLength="52" x="968" y="215.4883">London</text><line style="stroke:#A80036;stroke-width:1.0;" x1="963" x2="963" y1="199.9531" y2="220.4414"/><line style="stroke:#A80036;stroke-width:1.0;" x1="885" x2="1080" y1="220.4414" y2="220.4414"/><text fill="#000000" font-family="sans-serif" font-size="14" lengthAdjust="spacing" textLength="52" x="890" y="235.9766">country</text><text fill="#000000" font-family="sans-serif" font-size="14" lengthAdjust="spacing" textLength="18" x="968" y="235.9766">GB</text><line style="stroke:#A80036;stroke-width:1.0;" x1="963" x2="963" y1="220.4414" y2="240.9297"/><rect fill="none" height="122.9297" rx="5" ry="5" style="stroke:#A80036;stroke-width:1.5;" width="195" x="885" y="118"/><rect fill="#FEFECE" height="40.9766" rx="5" ry="5" style="stroke:#FEFECE;stroke-width:1.5;" width="22" x="970.5" y="259"/><text fill="#000000" font-family="sans-serif" font-size="14" lengthAdjust="spacing" textLength="0" x="987.5" y="274.5352"/><line style="stroke:#A80036;stroke-width:1.0;" x1="970.5" x2="992.5" y1="279.4883" y2="279.4883"/><text fill="#000000" font-family="sans-serif" font-size="14" lengthAdjust="spacing" textLength="0" x="987.5" y="295.0234"/><rect fill="none" height="40.9766" rx="5" ry="5" style="stroke:#A80036;stroke-width:1.5;" width="22" x="970.5" y="259"/><rect fill="#FEFECE" height="40.9766" rx="5" ry="5" style="stroke:#FEFECE;stroke-width:1.5;" width="168" x="1149" y="229"/><text fill="#000000" font-family="sans-serif" font-size="14" lengthAdjust="spacing" textLength="13" x="1154" y="244.5352">id</text><text fill="#000000" font-family="sans-serif" font-size="14" lengthAdjust="spacing" textLength="119" x="1193" y="244.5352">CH02035398520</text><line style="stroke:#A80036;stroke-width:1.0;" x1="1188" x2="1188" y1="229" y2="249.4883"/><line style="stroke:#A80036;stroke-width:1.0;" x1="1149" x2="1317" y1="249.4883" y2="249.4883"/><text fill="#000000" font-family="sans-serif" font-size="14" lengthAdjust="spacing" textLength="29" x="1154" y="265.0234">type</text><text fill="#000000" font-family="sans-serif" font-size="14" lengthAdjust="spacing" textLength="33" x="1193" y="265.0234">RAID</text><line style="stroke:#A80036;stroke-width:1.0;" x1="1188" x2="1188" y1="249.4883" y2="269.9766"/><rect fill="none" height="40.9766" rx="5" ry="5" style="stroke:#A80036;stroke-width:1.5;" width="168" x="1149" y="229"/><rect fill="#FEFECE" height="40.9766" rx="5" ry="5" style="stroke:#FEFECE;stroke-width:1.5;" width="232" x="1117" y="288"/><text fill="#000000" font-family="sans-serif" font-size="14" lengthAdjust="spacing" textLength="13" x="1122" y="303.5352">id</text><text fill="#000000" font-family="sans-serif" font-size="14" lengthAdjust="spacing" textLength="183" x="1161" y="303.5352">529900W6B9NEA233DS71</text><line style="stroke:#A80036;stroke-width:1.0;" x1="1156" x2="1156" y1="288" y2="308.4883"/><line style="stroke:#A80036;stroke-width:1.0;" x1="1117" x2="1349" y1="308.4883" y2="308.4883"/><text fill="#000000" font-family="sans-serif" font-size="14" lengthAdjust="spacing" textLength="29" x="1122" y="324.0234">type</text><text fill="#000000" font-family="sans-serif" font-size="14" lengthAdjust="spacing" textLength="28" x="1161" y="324.0234">LEIX</text><line style="stroke:#A80036;stroke-width:1.0;" x1="1156" x2="1156" y1="308.4883" y2="328.9766"/><rect fill="none" height="40.9766" rx="5" ry="5" style="stroke:#A80036;stroke-width:1.5;" width="232" x="1117" y="288"/><rect fill="#FEFECE" height="102.4414" rx="5" ry="5" style="stroke:#FEFECE;stroke-width:1.5;" width="398" x="438" y="228.5"/><text fill="#000000" font-family="sans-serif" font-size="14" lengthAdjust="spacing" textLength="29" x="443" y="244.0352">type</text><text fill="#000000" font-family="sans-serif" font-size="14" lengthAdjust="spacing" textLength="120" x="581" y="244.0352">SIGNATURE-TYPE</text><line style="stroke:#A80036;stroke-width:1.0;" x1="576" x2="576" y1="228.5" y2="248.9883"/><line style="stroke:#A80036;stroke-width:1.0;" x1="438" x2="836" y1="248.9883" y2="248.9883"/><text fill="#000000" font-family="sans-serif" font-size="14" lengthAdjust="spacing" textLength="51" x="443" y="264.5234">created</text><text fill="#000000" font-family="sans-serif" font-size="14" lengthAdjust="spacing" textLength="167" x="581" y="264.5234">2021-08-01T15:23:24Z</text><line style="stroke:#A80036;stroke-width:1.0;" x1="576" x2="576" y1="248.9883" y2="269.4766"/><line style="stroke:#A80036;stroke-width:1.0;" x1="438" x2="836" y1="269.4766" y2="269.4766"/><text fill="#000000" font-family="sans-serif" font-size="14" lengthAdjust="spacing" textLength="94" x="443" y="285.0117">proofPurpose</text><text fill="#000000" font-family="sans-serif" font-size="14" lengthAdjust="spacing" textLength="115" x="581" y="285.0117">assertionMethod</text><line style="stroke:#A80036;stroke-width:1.0;" x1="576" x2="576" y1="269.4766" y2="289.9648"/><line style="stroke:#A80036;stroke-width:1.0;" x1="438" x2="836" y1="289.9648" y2="289.9648"/><text fill="#000000" font-family="sans-serif" font-size="14" lengthAdjust="spacing" textLength="128" x="443" y="305.5">verificationMethod</text><text fill="#000000" font-family="sans-serif" font-size="14" lengthAdjust="spacing" textLength="250" x="581" y="305.5">https://example.edu/issuers/keys/1</text><line style="stroke:#A80036;stroke-width:1.0;" x1="576" x2="576" y1="289.9648" y2="310.4531"/><line style="stroke:#A80036;stroke-width:1.0;" x1="438" x2="836" y1="310.4531" y2="310.4531"/><text fill="#000000" font-family="sans-serif" font-size="14" lengthAdjust="spacing" textLength="22" x="443" y="325.9883">jws</text><text fill="#000000" font-family="sans-serif" font-size="14" lengthAdjust="spacing" textLength="56" x="581" y="325.9883">a_jws_...</text><line style="stroke:#A80036;stroke-width:1.0;" x1="576" x2="576" y1="310.4531" y2="330.9414"/><rect fill="none" height="102.4414" rx="5" ry="5" style="stroke:#A80036;stroke-width:1.5;" width="398" x="438" y="228.5"/><path d="M377,57.5 L390,57.5 C422.4826,57.5 457.2304,55.1546 490.0867,51.8463 " fill="none" style="stroke:#A80036;stroke-width:1.0;stroke-dasharray:3.0,3.0;"/><path d="M490.4121,54.9917 L492.4458,51.6023 L489.7613,48.7009 L497.9502,51.0328 L490.4121,54.9917 " fill="#A80036" style="stroke:#A80036;stroke-width:1.0;"/><ellipse cx="377" cy="57.5" fill="#A80036" rx="3" ry="3" style="stroke:#A80036;stroke-width:1.0;stroke-dasharray:3.0,3.0;"/><path d="M377,98.5 L390,98.5 C442.3293,98.5 500.8659,96.4494 547.7607,94.3058 " fill="none" style="stroke:#A80036;stroke-width:1.0;stroke-dasharray:3.0,3.0;"/><path d="M547.9042,97.394 L550.0769,94.1982 L547.6173,91.2176 L555.4813,93.9473 L547.9042,97.394 " fill="#A80036" style="stroke:#A80036;stroke-width:1.0;"/><ellipse cx="377" cy="98.5" fill="#A80036" rx="3" ry="3" style="stroke:#A80036;stroke-width:1.0;stroke-dasharray:3.0,3.0;"/><path d="M1233.5,57.5 L1246.5,57.5 C1290.065,57.5 1338.1328,54.0426 1378.9344,50.0776 " fill="none" style="stroke:#A80036;stroke-width:1.0;stroke-dasharray:3.0,3.0;"/><path d="M1379.2326,53.0901 L1381.1938,49.8539 L1378.6362,47.0651 L1386.4657,49.332 L1379.2326,53.0901 " fill="#A80036" style="stroke:#A80036;stroke-width:1.0;"/><ellipse cx="1233.5" cy="57.5" fill="#A80036" rx="3" ry="3" style="stroke:#A80036;stroke-width:1.0;stroke-dasharray:3.0,3.0;"/><path d="M1233.5,78.5 L1246.5,78.5 C1303.3736,78.5 1367.9213,84.3924 1413.9579,89.6143 " fill="none" style="stroke:#A80036;stroke-width:1.0;stroke-dasharray:3.0,3.0;"/><path d="M1413.612,92.6191 L1416.2115,89.8738 L1414.3038,86.6095 L1421.4699,90.4791 L1413.612,92.6191 " fill="#A80036" style="stroke:#A80036;stroke-width:1.0;"/><ellipse cx="1233.5" cy="78.5" fill="#A80036" rx="3" ry="3" style="stroke:#A80036;stroke-width:1.0;stroke-dasharray:3.0,3.0;"/><path d="M1017,68.5 L1030,68.5 C1097.3723,68.5 1177.353,68.5 1213.3116,68.5 " fill="none" style="stroke:#A80036;stroke-width:1.0;stroke-dasharray:3.0,3.0;"/><path d="M1213.3116,71.6081 L1215.6427,68.5 L1213.3116,65.3919 L1221.0819,68.5 L1213.3116,71.6081 " fill="#A80036" style="stroke:#A80036;stroke-width:1.0;"/><ellipse cx="1017" cy="68.5" fill="#A80036" rx="3" ry="3" style="stroke:#A80036;stroke-width:1.0;stroke-dasharray:3.0,3.0;"/><path d="M788.5,158.5 L801.5,158.5 C844.7558,158.5 845.4164,125.9413 885,108.5 C899.108,102.2838 914.9353,96.9229 929.6477,92.5609 " fill="none" style="stroke:#A80036;stroke-width:1.0;stroke-dasharray:3.0,3.0;"/><path d="M930.5234,95.5917 L931.9208,91.9042 L928.772,89.5301 L937.2247,90.3717 L930.5234,95.5917 " fill="#A80036" style="stroke:#A80036;stroke-width:1.0;"/><ellipse cx="788.5" cy="158.5" fill="#A80036" rx="3" ry="3" style="stroke:#A80036;stroke-width:1.0;stroke-dasharray:3.0,3.0;"/><path d="M788.5,179.5 L801.5,179.5 C826.0651,179.5 852.5108,179.5 877.3819,179.5 " fill="none" style="stroke:#A80036;stroke-width:1.0;stroke-dasharray:3.0,3.0;"/><path d="M877.3819,182.5657 L879.6812,179.5 L877.3819,176.4343 L885.0461,179.5 L877.3819,182.5657 " fill="#A80036" style="stroke:#A80036;stroke-width:1.0;"/><ellipse cx="788.5" cy="179.5" fill="#A80036" rx="3" ry="3" style="stroke:#A80036;stroke-width:1.0;stroke-dasharray:3.0,3.0;"/><path d="M983,268.5 L996,268.5 C1044.2839,268.5 1097.9353,264.5165 1141.9155,260.1974 " fill="none" style="stroke:#A80036;stroke-width:1.0;stroke-dasharray:3.0,3.0;"/><path d="M1142.2164,263.2106 L1144.1754,259.9717 L1141.6146,257.1843 L1149.4484,259.4452 L1142.2164,263.2106 " fill="#A80036" style="stroke:#A80036;stroke-width:1.0;"/><ellipse cx="983" cy="268.5" fill="#A80036" rx="3" ry="3" style="stroke:#A80036;stroke-width:1.0;stroke-dasharray:3.0,3.0;"/><path d="M983,289.5 L996,289.5 C1033.0139,289.5 1073.1819,291.8409 1109.7294,294.8794 " fill="none" style="stroke:#A80036;stroke-width:1.0;stroke-dasharray:3.0,3.0;"/><path d="M1109.4661,297.976 L1112.0518,295.077 L1109.9928,291.7829 L1117.4709,295.5378 L1109.4661,297.976 " fill="#A80036" style="stroke:#A80036;stroke-width:1.0;"/><ellipse cx="983" cy="289.5" fill="#A80036" rx="3" ry="3" style="stroke:#A80036;stroke-width:1.0;stroke-dasharray:3.0,3.0;"/><path d="M788.5,200.5 L801.5,200.5 C824.2374,200.5 829.4702,207.8563 849,219.5 C866.8892,230.1656 866.6958,239.5634 885,249.5 C910.4616,263.322 943.2114,271.7616 963.3964,276.0328 " fill="none" style="stroke:#A80036;stroke-width:1.0;stroke-dasharray:3.0,3.0;"/><path d="M962.7839,279.0631 L965.6691,276.4922 L964.0089,273.0026 L970.972,277.564 L962.7839,279.0631 " fill="#A80036" style="stroke:#A80036;stroke-width:1.0;"/><ellipse cx="788.5" cy="200.5" fill="#A80036" rx="3" ry="3" style="stroke:#A80036;stroke-width:1.0;stroke-dasharray:3.0,3.0;"/><path d="M377,160.5 L390,160.5 C414.9448,160.5 441.3,160.966 467.1324,161.6858 " fill="none" style="stroke:#A80036;stroke-width:1.0;stroke-dasharray:3.0,3.0;"/><path d="M467.0442,164.739 L469.4222,161.752 L467.2206,158.6327 L474.7652,161.9063 L467.0442,164.739 " fill="#A80036" style="stroke:#A80036;stroke-width:1.0;"/><ellipse cx="377" cy="160.5" fill="#A80036" rx="3" ry="3" style="stroke:#A80036;stroke-width:1.0;stroke-dasharray:3.0,3.0;"/><path d="M377,180.5 L390,180.5 C413.5891,180.5 405.9086,207.1396 426,219.5 C428.8674,221.2641 431.7885,222.9779 434.7561,224.6428 " fill="none" style="stroke:#A80036;stroke-width:1.0;stroke-dasharray:3.0,3.0;"/><path d="M433.2374,227.445 L436.8577,225.7819 L436.2748,221.8407 L441.7614,228.4397 L433.2374,227.445 " fill="#A80036" style="stroke:#A80036;stroke-width:1.0;"/><ellipse cx="377" cy="180.5" fill="#A80036" rx="3" ry="3" style="stroke:#A80036;stroke-width:1.0;stroke-dasharray:3.0,3.0;"/><!--MD5=[52292f892ca80c77fe2340540067e7a6]
@startjson RegistrationCredential
{
	"@context": [
		"https://www.w3.org/2018/credentials/v1",
		"https://www.cosmos.cash/2021/credentials/registration/v1"
	],
	"id": "http://fca.gov.uk/credentials/1234",
	"type": [
		"VerifiableCredential", 
		"RegistrationCredential"
	],
	"issuer": "did:sov:12345",
	"issuanceDate": "2021-08-01T15:23:24Z",
	"credentialSubject": {
		"id": "did:cosmos:cash:1000bb528777",
		"legalPerson": {
			"names": [{
				"name": "Example VASP AG",
				"type": "LEGL"
			}, {
				"name": "EgVASP",
				"type": "SHRT"
			}],
			"ctryReg": "CH"
		},
		"address": {
			"addr_type": "BIZZ",
			"thfare": "Liverpool Street",
			"premise": "22",
			"postcode": "EC2R",
			"locality": "London",
			"country": "GB"
		},
		"ids": [{
			"id": "CH02035398520",
			"type": "RAID"
		}, {
			"id": "529900W6B9NEA233DS71",
			"type": "LEIX"
		}]
	},
	"proof": {
		"type": "SIGNATURE-TYPE",
		"created": "2021-08-01T15:23:24Z",
		"proofPurpose": "assertionMethod",
		"verificationMethod": "https://example.edu/issuers/keys/1",
		"jws": "a_jws_..."
  	}
}
@endjson

PlantUML version 1.2021.9(Sun Jul 25 11:13:56 BST 2021)
(GPL source distribution)
Java Runtime: OpenJDK Runtime Environment
JVM: OpenJDK 64-Bit Server VM
Default Encoding: UTF-8
Language: en
Country: GB
--></g></svg>