<?xml version="1.0" encoding="UTF-8" standalone="no"?><svg xmlns="http://www.w3.org/2000/svg" xmlns:xlink="http://www.w3.org/1999/xlink" contentScriptType="application/ecmascript" contentStyleType="text/css" height="332px" preserveAspectRatio="none" style="width:2125px;height:332px;background:#FFFFFF;" version="1.1" viewBox="0 0 2125 332" width="2125px" zoomAndPan="magnify"><defs/><g><rect fill="#FEFECE" height="143.418" rx="5" ry="5" style="stroke:#FEFECE;stroke-width:1.5;" width="363" x="10" y="52"/><text fill="#000000" font-family="sans-serif" font-size="14" lengthAdjust="spacing" textLength="64" x="15" y="67.5352">@context</text><text fill="#000000" font-family="sans-serif" font-size="14" lengthAdjust="spacing" textLength="0" x="155" y="67.5352"/><line style="stroke:#A80036;stroke-width:1.0;" x1="138" x2="138" y1="52" y2="72.4883"/><line style="stroke:#A80036;stroke-width:1.0;" x1="10" x2="373" y1="72.4883" y2="72.4883"/><text fill="#000000" font-family="sans-serif" font-size="14" lengthAdjust="spacing" textLength="13" x="15" y="88.0234">id</text><text fill="#000000" font-family="sans-serif" font-size="14" lengthAdjust="spacing" textLength="225" x="143" y="88.0234">did:cosmos:cash:1000bb528777</text><line style="stroke:#A80036;stroke-width:1.0;" x1="138" x2="138" y1="72.4883" y2="92.9766"/><line style="stroke:#A80036;stroke-width:1.0;" x1="10" x2="373" y1="92.9766" y2="92.9766"/><text fill="#000000" font-family="sans-serif" font-size="14" lengthAdjust="spacing" textLength="29" x="15" y="108.5117">type</text><text fill="#000000" font-family="sans-serif" font-size="14" lengthAdjust="spacing" textLength="0" x="155" y="108.5117"/><line style="stroke:#A80036;stroke-width:1.0;" x1="138" x2="138" y1="92.9766" y2="113.4648"/><line style="stroke:#A80036;stroke-width:1.0;" x1="10" x2="373" y1="113.4648" y2="113.4648"/><text fill="#000000" font-family="sans-serif" font-size="14" lengthAdjust="spacing" textLength="41" x="15" y="129">issuer</text><text fill="#000000" font-family="sans-serif" font-size="14" lengthAdjust="spacing" textLength="98" x="143" y="129">did:sov:12345</text><line style="stroke:#A80036;stroke-width:1.0;" x1="138" x2="138" y1="113.4648" y2="133.9531"/><line style="stroke:#A80036;stroke-width:1.0;" x1="10" x2="373" y1="133.9531" y2="133.9531"/><text fill="#000000" font-family="sans-serif" font-size="14" lengthAdjust="spacing" textLength="90" x="15" y="149.4883">issuanceDate</text><text fill="#000000" font-family="sans-serif" font-size="14" lengthAdjust="spacing" textLength="167" x="143" y="149.4883">2021-08-01T15:23:24Z</text><line style="stroke:#A80036;stroke-width:1.0;" x1="138" x2="138" y1="133.9531" y2="154.4414"/><line style="stroke:#A80036;stroke-width:1.0;" x1="10" x2="373" y1="154.4414" y2="154.4414"/><text fill="#000000" font-family="sans-serif" font-size="14" lengthAdjust="spacing" textLength="118" x="15" y="169.9766">credentialSubject</text><text fill="#000000" font-family="sans-serif" font-size="14" lengthAdjust="spacing" textLength="0" x="155" y="169.9766"/><line style="stroke:#A80036;stroke-width:1.0;" x1="138" x2="138" y1="154.4414" y2="174.9297"/><line style="stroke:#A80036;stroke-width:1.0;" x1="10" x2="373" y1="174.9297" y2="174.9297"/><text fill="#000000" font-family="sans-serif" font-size="14" lengthAdjust="spacing" textLength="38" x="15" y="190.4648">proof</text><text fill="#000000" font-family="sans-serif" font-size="14" lengthAdjust="spacing" textLength="0" x="155" y="190.4648"/><line style="stroke:#A80036;stroke-width:1.0;" x1="138" x2="138" y1="174.9297" y2="195.418"/><rect fill="none" height="143.418" rx="5" ry="5" style="stroke:#A80036;stroke-width:1.5;" width="363" x="10" y="52"/><rect fill="#FEFECE" height="40.9766" rx="5" ry="5" style="stroke:#FEFECE;stroke-width:1.5;" width="422" x="490" y="27"/><text fill="#000000" font-family="sans-serif" font-size="14" lengthAdjust="spacing" textLength="286" x="495" y="42.5352">https://www.w3.org/2018/credentials/v1</text><line style="stroke:#A80036;stroke-width:1.0;" x1="490" x2="912" y1="47.4883" y2="47.4883"/><text fill="#000000" font-family="sans-serif" font-size="14" lengthAdjust="spacing" textLength="412" x="495" y="63.0234">https://www.cosmos.cash/2021/credentials/registration/v1</text><rect fill="none" height="40.9766" rx="5" ry="5" style="stroke:#A80036;stroke-width:1.5;" width="422" x="490" y="27"/><rect fill="#FEFECE" height="40.9766" rx="5" ry="5" style="stroke:#FEFECE;stroke-width:1.5;" width="164" x="619" y="86"/><text fill="#000000" font-family="sans-serif" font-size="14" lengthAdjust="spacing" textLength="136" x="624" y="101.5352">VerifiableCredential</text><line style="stroke:#A80036;stroke-width:1.0;" x1="619" x2="783" y1="106.4883" y2="106.4883"/><text fill="#000000" font-family="sans-serif" font-size="14" lengthAdjust="spacing" textLength="154" x="624" y="122.0234">RegistrationCredential</text><rect fill="none" height="40.9766" rx="5" ry="5" style="stroke:#A80036;stroke-width:1.5;" width="164" x="619" y="86"/><rect fill="#FEFECE" height="20.4883" rx="5" ry="5" style="stroke:#FEFECE;stroke-width:1.5;" width="63" x="669.5" y="151.5"/><text fill="#000000" font-family="sans-serif" font-size="14" lengthAdjust="spacing" textLength="31" x="674.5" y="167.0352">vasp</text><text fill="#000000" font-family="sans-serif" font-size="14" lengthAdjust="spacing" textLength="0" x="727.5" y="167.0352"/><line style="stroke:#A80036;stroke-width:1.0;" x1="710.5" x2="710.5" y1="151.5" y2="171.9883"/><rect fill="none" height="20.4883" rx="5" ry="5" style="stroke:#A80036;stroke-width:1.5;" width="63" x="669.5" y="151.5"/><rect fill="#FEFECE" height="81.9531" rx="5" ry="5" style="stroke:#FEFECE;stroke-width:1.5;" width="325" x="1029" y="120.5"/><text fill="#000000" font-family="sans-serif" font-size="14" lengthAdjust="spacing" textLength="44" x="1034" y="136.0352">vaspId</text><text fill="#000000" font-family="sans-serif" font-size="14" lengthAdjust="spacing" textLength="225" x="1124" y="136.0352">did:cosmos:cash:1000bb528777</text><line style="stroke:#A80036;stroke-width:1.0;" x1="1119" x2="1119" y1="120.5" y2="140.9883"/><line style="stroke:#A80036;stroke-width:1.0;" x1="1029" x2="1354" y1="140.9883" y2="140.9883"/><text fill="#000000" font-family="sans-serif" font-size="14" lengthAdjust="spacing" textLength="80" x="1034" y="156.5234">legalPerson</text><text fill="#000000" font-family="sans-serif" font-size="14" lengthAdjust="spacing" textLength="0" x="1136" y="156.5234"/><line style="stroke:#A80036;stroke-width:1.0;" x1="1119" x2="1119" y1="140.9883" y2="161.4766"/><line style="stroke:#A80036;stroke-width:1.0;" x1="1029" x2="1354" y1="161.4766" y2="161.4766"/><text fill="#000000" font-family="sans-serif" font-size="14" lengthAdjust="spacing" textLength="54" x="1034" y="177.0117">address</text><text fill="#000000" font-family="sans-serif" font-size="14" lengthAdjust="spacing" textLength="0" x="1136" y="177.0117"/><line style="stroke:#A80036;stroke-width:1.0;" x1="1119" x2="1119" y1="161.4766" y2="181.9648"/><line style="stroke:#A80036;stroke-width:1.0;" x1="1029" x2="1354" y1="181.9648" y2="181.9648"/><text fill="#000000" font-family="sans-serif" font-size="14" lengthAdjust="spacing" textLength="20" x="1034" y="197.5">ids</text><text fill="#000000" font-family="sans-serif" font-size="14" lengthAdjust="spacing" textLength="0" x="1136" y="197.5"/><line style="stroke:#A80036;stroke-width:1.0;" x1="1119" x2="1119" y1="181.9648" y2="202.4531"/><rect fill="none" height="81.9531" rx="5" ry="5" style="stroke:#A80036;stroke-width:1.5;" width="325" x="1029" y="120.5"/><rect fill="#FEFECE" height="40.9766" rx="5" ry="5" style="stroke:#FEFECE;stroke-width:1.5;" width="91" x="1440.5" y="51"/><text fill="#000000" font-family="sans-serif" font-size="14" lengthAdjust="spacing" textLength="45" x="1445.5" y="66.5352">names</text><text fill="#000000" font-family="sans-serif" font-size="14" lengthAdjust="spacing" textLength="0" x="1518.5" y="66.5352"/><line style="stroke:#A80036;stroke-width:1.0;" x1="1501.5" x2="1501.5" y1="51" y2="71.4883"/><line style="stroke:#A80036;stroke-width:1.0;" x1="1440.5" x2="1531.5" y1="71.4883" y2="71.4883"/><text fill="#000000" font-family="sans-serif" font-size="14" lengthAdjust="spacing" textLength="51" x="1445.5" y="87.0234">ctryReg</text><text fill="#000000" font-family="sans-serif" font-size="14" lengthAdjust="spacing" textLength="20" x="1506.5" y="87.0234">CH</text><line style="stroke:#A80036;stroke-width:1.0;" x1="1501.5" x2="1501.5" y1="71.4883" y2="91.9766"/><rect fill="none" height="40.9766" rx="5" ry="5" style="stroke:#A80036;stroke-width:1.5;" width="91" x="1440.5" y="51"/><rect fill="#FEFECE" height="40.9766" rx="5" ry="5" style="stroke:#FEFECE;stroke-width:1.5;" width="22" x="1730.5" y="40"/><text fill="#000000" font-family="sans-serif" font-size="14" lengthAdjust="spacing" textLength="0" x="1747.5" y="55.5352"/><line style="stroke:#A80036;stroke-width:1.0;" x1="1730.5" x2="1752.5" y1="60.4883" y2="60.4883"/><text fill="#000000" font-family="sans-serif" font-size="14" lengthAdjust="spacing" textLength="0" x="1747.5" y="76.0234"/><rect fill="none" height="40.9766" rx="5" ry="5" style="stroke:#A80036;stroke-width:1.5;" width="22" x="1730.5" y="40"/><rect fill="#FEFECE" height="40.9766" rx="5" ry="5" style="stroke:#FEFECE;stroke-width:1.5;" width="209" x="1904" y="10"/><text fill="#000000" font-family="sans-serif" font-size="14" lengthAdjust="spacing" textLength="38" x="1909" y="25.5352">name</text><text fill="#000000" font-family="sans-serif" font-size="14" lengthAdjust="spacing" textLength="122" x="1986" y="25.5352">Example VASP AG</text><line style="stroke:#A80036;stroke-width:1.0;" x1="1981" x2="1981" y1="10" y2="30.4883"/><line style="stroke:#A80036;stroke-width:1.0;" x1="1904" x2="2113" y1="30.4883" y2="30.4883"/><text fill="#000000" font-family="sans-serif" font-size="14" lengthAdjust="spacing" textLength="67" x="1909" y="46.0234">nametype</text><text fill="#000000" font-family="sans-serif" font-size="14" lengthAdjust="spacing" textLength="32" x="1986" y="46.0234">LEGL</text><line style="stroke:#A80036;stroke-width:1.0;" x1="1981" x2="1981" y1="30.4883" y2="50.9766"/><rect fill="none" height="40.9766" rx="5" ry="5" style="stroke:#A80036;stroke-width:1.5;" width="209" x="1904" y="10"/><rect fill="#FEFECE" height="40.9766" rx="5" ry="5" style="stroke:#FEFECE;stroke-width:1.5;" width="139" x="1939" y="69"/><text fill="#000000" font-family="sans-serif" font-size="14" lengthAdjust="spacing" textLength="38" x="1944" y="84.5352">name</text><text fill="#000000" font-family="sans-serif" font-size="14" lengthAdjust="spacing" textLength="52" x="2021" y="84.5352">EgVASP</text><line style="stroke:#A80036;stroke-width:1.0;" x1="2016" x2="2016" y1="69" y2="89.4883"/><line style="stroke:#A80036;stroke-width:1.0;" x1="1939" x2="2078" y1="89.4883" y2="89.4883"/><text fill="#000000" font-family="sans-serif" font-size="14" lengthAdjust="spacing" textLength="67" x="1944" y="105.0234">nametype</text><text fill="#000000" font-family="sans-serif" font-size="14" lengthAdjust="spacing" textLength="36" x="2021" y="105.0234">SHRT</text><line style="stroke:#A80036;stroke-width:1.0;" x1="2016" x2="2016" y1="89.4883" y2="109.9766"/><rect fill="none" height="40.9766" rx="5" ry="5" style="stroke:#A80036;stroke-width:1.5;" width="139" x="1939" y="69"/><rect fill="#FEFECE" height="122.9297" rx="5" ry="5" style="stroke:#FEFECE;stroke-width:1.5;" width="190" x="1391" y="110"/><text fill="#000000" font-family="sans-serif" font-size="14" lengthAdjust="spacing" textLength="59" x="1396" y="125.5352">adr_type</text><text fill="#000000" font-family="sans-serif" font-size="14" lengthAdjust="spacing" textLength="28" x="1469" y="125.5352">BIZZ</text><line style="stroke:#A80036;stroke-width:1.0;" x1="1464" x2="1464" y1="110" y2="130.4883"/><line style="stroke:#A80036;stroke-width:1.0;" x1="1391" x2="1581" y1="130.4883" y2="130.4883"/><text fill="#000000" font-family="sans-serif" font-size="14" lengthAdjust="spacing" textLength="41" x="1396" y="146.0234">thfare</text><text fill="#000000" font-family="sans-serif" font-size="14" lengthAdjust="spacing" textLength="107" x="1469" y="146.0234">Liverpool Street</text><line style="stroke:#A80036;stroke-width:1.0;" x1="1464" x2="1464" y1="130.4883" y2="150.9766"/><line style="stroke:#A80036;stroke-width:1.0;" x1="1391" x2="1581" y1="150.9766" y2="150.9766"/><text fill="#000000" font-family="sans-serif" font-size="14" lengthAdjust="spacing" textLength="55" x="1396" y="166.5117">premise</text><text fill="#000000" font-family="sans-serif" font-size="14" lengthAdjust="spacing" textLength="18" x="1469" y="166.5117">22</text><line style="stroke:#A80036;stroke-width:1.0;" x1="1464" x2="1464" y1="150.9766" y2="171.4648"/><line style="stroke:#A80036;stroke-width:1.0;" x1="1391" x2="1581" y1="171.4648" y2="171.4648"/><text fill="#000000" font-family="sans-serif" font-size="14" lengthAdjust="spacing" textLength="63" x="1396" y="187">postcode</text><text fill="#000000" font-family="sans-serif" font-size="14" lengthAdjust="spacing" textLength="36" x="1469" y="187">EC2R</text><line style="stroke:#A80036;stroke-width:1.0;" x1="1464" x2="1464" y1="171.4648" y2="191.9531"/><line style="stroke:#A80036;stroke-width:1.0;" x1="1391" x2="1581" y1="191.9531" y2="191.9531"/><text fill="#000000" font-family="sans-serif" font-size="14" lengthAdjust="spacing" textLength="48" x="1396" y="207.4883">locality</text><text fill="#000000" font-family="sans-serif" font-size="14" lengthAdjust="spacing" textLength="52" x="1469" y="207.4883">London</text><line style="stroke:#A80036;stroke-width:1.0;" x1="1464" x2="1464" y1="191.9531" y2="212.4414"/><line style="stroke:#A80036;stroke-width:1.0;" x1="1391" x2="1581" y1="212.4414" y2="212.4414"/><text fill="#000000" font-family="sans-serif" font-size="14" lengthAdjust="spacing" textLength="52" x="1396" y="227.9766">country</text><text fill="#000000" font-family="sans-serif" font-size="14" lengthAdjust="spacing" textLength="18" x="1469" y="227.9766">GB</text><line style="stroke:#A80036;stroke-width:1.0;" x1="1464" x2="1464" y1="212.4414" y2="232.9297"/><rect fill="none" height="122.9297" rx="5" ry="5" style="stroke:#A80036;stroke-width:1.5;" width="190" x="1391" y="110"/><rect fill="#FEFECE" height="40.9766" rx="5" ry="5" style="stroke:#FEFECE;stroke-width:1.5;" width="22" x="1474" y="251"/><text fill="#000000" font-family="sans-serif" font-size="14" lengthAdjust="spacing" textLength="0" x="1491" y="266.5352"/><line style="stroke:#A80036;stroke-width:1.0;" x1="1474" x2="1496" y1="271.4883" y2="271.4883"/><text fill="#000000" font-family="sans-serif" font-size="14" lengthAdjust="spacing" textLength="0" x="1491" y="287.0234"/><rect fill="none" height="40.9766" rx="5" ry="5" style="stroke:#A80036;stroke-width:1.5;" width="22" x="1474" y="251"/><rect fill="#FEFECE" height="40.9766" rx="5" ry="5" style="stroke:#FEFECE;stroke-width:1.5;" width="185" x="1650" y="221"/><text fill="#000000" font-family="sans-serif" font-size="14" lengthAdjust="spacing" textLength="26" x="1655" y="236.5352">idId</text><text fill="#000000" font-family="sans-serif" font-size="14" lengthAdjust="spacing" textLength="119" x="1711" y="236.5352">CH02035398520</text><line style="stroke:#A80036;stroke-width:1.0;" x1="1706" x2="1706" y1="221" y2="241.4883"/><line style="stroke:#A80036;stroke-width:1.0;" x1="1650" x2="1835" y1="241.4883" y2="241.4883"/><text fill="#000000" font-family="sans-serif" font-size="14" lengthAdjust="spacing" textLength="46" x="1655" y="257.0234">idType</text><text fill="#000000" font-family="sans-serif" font-size="14" lengthAdjust="spacing" textLength="33" x="1711" y="257.0234">RAID</text><line style="stroke:#A80036;stroke-width:1.0;" x1="1706" x2="1706" y1="241.4883" y2="261.9766"/><rect fill="none" height="40.9766" rx="5" ry="5" style="stroke:#A80036;stroke-width:1.5;" width="185" x="1650" y="221"/><rect fill="#FEFECE" height="40.9766" rx="5" ry="5" style="stroke:#FEFECE;stroke-width:1.5;" width="249" x="1618" y="280"/><text fill="#000000" font-family="sans-serif" font-size="14" lengthAdjust="spacing" textLength="26" x="1623" y="295.5352">idId</text><text fill="#000000" font-family="sans-serif" font-size="14" lengthAdjust="spacing" textLength="183" x="1679" y="295.5352">529900W6B9NEA233DS71</text><line style="stroke:#A80036;stroke-width:1.0;" x1="1674" x2="1674" y1="280" y2="300.4883"/><line style="stroke:#A80036;stroke-width:1.0;" x1="1618" x2="1867" y1="300.4883" y2="300.4883"/><text fill="#000000" font-family="sans-serif" font-size="14" lengthAdjust="spacing" textLength="46" x="1623" y="316.0234">idType</text><text fill="#000000" font-family="sans-serif" font-size="14" lengthAdjust="spacing" textLength="28" x="1679" y="316.0234">LEIX</text><line style="stroke:#A80036;stroke-width:1.0;" x1="1674" x2="1674" y1="300.4883" y2="320.9766"/><rect fill="none" height="40.9766" rx="5" ry="5" style="stroke:#A80036;stroke-width:1.5;" width="249" x="1618" y="280"/><rect fill="#FEFECE" height="102.4414" rx="5" ry="5" style="stroke:#FEFECE;stroke-width:1.5;" width="582" x="410" y="189.5"/><text fill="#000000" font-family="sans-serif" font-size="14" lengthAdjust="spacing" textLength="29" x="415" y="205.0352">type</text><text fill="#000000" font-family="sans-serif" font-size="14" lengthAdjust="spacing" textLength="126" x="553" y="205.0352">RsaSignature2018</text><line style="stroke:#A80036;stroke-width:1.0;" x1="548" x2="548" y1="189.5" y2="209.9883"/><line style="stroke:#A80036;stroke-width:1.0;" x1="410" x2="992" y1="209.9883" y2="209.9883"/><text fill="#000000" font-family="sans-serif" font-size="14" lengthAdjust="spacing" textLength="51" x="415" y="225.5234">created</text><text fill="#000000" font-family="sans-serif" font-size="14" lengthAdjust="spacing" textLength="167" x="553" y="225.5234">2021-08-01T15:23:24Z</text><line style="stroke:#A80036;stroke-width:1.0;" x1="548" x2="548" y1="209.9883" y2="230.4766"/><line style="stroke:#A80036;stroke-width:1.0;" x1="410" x2="992" y1="230.4766" y2="230.4766"/><text fill="#000000" font-family="sans-serif" font-size="14" lengthAdjust="spacing" textLength="94" x="415" y="246.0117">proofPurpose</text><text fill="#000000" font-family="sans-serif" font-size="14" lengthAdjust="spacing" textLength="115" x="553" y="246.0117">assertionMethod</text><line style="stroke:#A80036;stroke-width:1.0;" x1="548" x2="548" y1="230.4766" y2="250.9648"/><line style="stroke:#A80036;stroke-width:1.0;" x1="410" x2="992" y1="250.9648" y2="250.9648"/><text fill="#000000" font-family="sans-serif" font-size="14" lengthAdjust="spacing" textLength="128" x="415" y="266.5">verificationMethod</text><text fill="#000000" font-family="sans-serif" font-size="14" lengthAdjust="spacing" textLength="250" x="553" y="266.5">https://example.edu/issuers/keys/1</text><line style="stroke:#A80036;stroke-width:1.0;" x1="548" x2="548" y1="250.9648" y2="271.4531"/><line style="stroke:#A80036;stroke-width:1.0;" x1="410" x2="992" y1="271.4531" y2="271.4531"/><text fill="#000000" font-family="sans-serif" font-size="14" lengthAdjust="spacing" textLength="22" x="415" y="286.9883">jws</text><text fill="#000000" font-family="sans-serif" font-size="14" lengthAdjust="spacing" textLength="434" x="553" y="286.9883">eyJhbGciOiJSUzI1NiIsImI2NCI6ZmFsc2UsImNyaXQiOlsiYjY0Il19...</text><line style="stroke:#A80036;stroke-width:1.0;" x1="548" x2="548" y1="271.4531" y2="291.9414"/><rect fill="none" height="102.4414" rx="5" ry="5" style="stroke:#A80036;stroke-width:1.5;" width="582" x="410" y="189.5"/><path d="M361,61.5 L374,61.5 C409.0916,61.5 446.2853,60.6828 482.5169,59.4432 " fill="none" style="stroke:#A80036;stroke-width:1.0;stroke-dasharray:3.0,3.0;"/><path d="M482.6252,62.5295 L484.8316,59.362 L482.4086,56.357 L490.2326,59.1725 L482.6252,62.5295 " fill="#A80036" style="stroke:#A80036;stroke-width:1.0;"/><ellipse cx="361" cy="61.5" fill="#A80036" rx="3" ry="3" style="stroke:#A80036;stroke-width:1.0;stroke-dasharray:3.0,3.0;"/><path d="M361,102.5 L374,102.5 C454.349,102.5 545.8121,103.7262 611.4517,104.8208 " fill="none" style="stroke:#A80036;stroke-width:1.0;stroke-dasharray:3.0,3.0;"/><path d="M611.3986,107.9705 L613.814,104.8606 L611.5048,101.671 L619.326,104.9535 L611.3986,107.9705 " fill="#A80036" style="stroke:#A80036;stroke-width:1.0;"/><ellipse cx="361" cy="102.5" fill="#A80036" rx="3" ry="3" style="stroke:#A80036;stroke-width:1.0;stroke-dasharray:3.0,3.0;"/><path d="M1743,49.5 L1756,49.5 C1802.1407,49.5 1852.8994,46.2935 1896.6952,42.5151 " fill="none" style="stroke:#A80036;stroke-width:1.0;stroke-dasharray:3.0,3.0;"/><path d="M1896.9596,45.5266 L1898.9539,42.3168 L1896.4308,39.5036 L1904.224,41.8541 L1896.9596,45.5266 " fill="#A80036" style="stroke:#A80036;stroke-width:1.0;"/><ellipse cx="1743" cy="49.5" fill="#A80036" rx="3" ry="3" style="stroke:#A80036;stroke-width:1.0;stroke-dasharray:3.0,3.0;"/><path d="M1743,70.5 L1756,70.5 C1815.1549,70.5 1881.9003,75.7703 1931.832,80.7595 " fill="none" style="stroke:#A80036;stroke-width:1.0;stroke-dasharray:3.0,3.0;"/><path d="M1931.5259,83.7809 L1934.0981,80.9891 L1932.1382,77.7381 L1939.3855,81.5249 L1931.5259,83.7809 " fill="#A80036" style="stroke:#A80036;stroke-width:1.0;"/><ellipse cx="1743" cy="70.5" fill="#A80036" rx="3" ry="3" style="stroke:#A80036;stroke-width:1.0;stroke-dasharray:3.0,3.0;"/><path d="M1520.5,60.5 L1533.5,60.5 C1603.2036,60.5 1686.0149,60.5 1722.7765,60.5 " fill="none" style="stroke:#A80036;stroke-width:1.0;stroke-dasharray:3.0,3.0;"/><path d="M1722.7765,63.6692 L1725.1534,60.5 L1722.7765,57.3308 L1730.6995,60.5 L1722.7765,63.6692 " fill="#A80036" style="stroke:#A80036;stroke-width:1.0;"/><ellipse cx="1520.5" cy="60.5" fill="#A80036" rx="3" ry="3" style="stroke:#A80036;stroke-width:1.0;stroke-dasharray:3.0,3.0;"/><path d="M1342,150.5 L1355,150.5 C1382.383,150.5 1368.7497,116.4609 1391,100.5 C1403.4685,91.5559 1418.7554,85.322 1433.3709,80.996 " fill="none" style="stroke:#A80036;stroke-width:1.0;stroke-dasharray:3.0,3.0;"/><path d="M1434.2079,84.0213 L1435.6399,80.3683 L1432.5339,77.9707 L1440.9342,78.9035 L1434.2079,84.0213 " fill="#A80036" style="stroke:#A80036;stroke-width:1.0;"/><ellipse cx="1342" cy="150.5" fill="#A80036" rx="3" ry="3" style="stroke:#A80036;stroke-width:1.0;stroke-dasharray:3.0,3.0;"/><path d="M1342,171.5 L1355,171.5 C1364.2961,171.5 1373.9648,171.5 1383.6477,171.5 " fill="none" style="stroke:#A80036;stroke-width:1.0;stroke-dasharray:3.0,3.0;"/><path d="M1383.6477,174.6047 L1385.9762,171.5 L1383.6477,168.3953 L1391.4094,171.5 L1383.6477,174.6047 " fill="#A80036" style="stroke:#A80036;stroke-width:1.0;"/><ellipse cx="1342" cy="171.5" fill="#A80036" rx="3" ry="3" style="stroke:#A80036;stroke-width:1.0;stroke-dasharray:3.0,3.0;"/><path d="M1486.5,260.5 L1499.5,260.5 C1546.7057,260.5 1598.9229,256.8773 1642.7745,252.7957 " fill="none" style="stroke:#A80036;stroke-width:1.0;stroke-dasharray:3.0,3.0;"/><path d="M1643.0594,255.8053 L1645.0317,252.582 L1642.4895,249.7861 L1650.2985,252.0833 L1643.0594,255.8053 " fill="#A80036" style="stroke:#A80036;stroke-width:1.0;"/><ellipse cx="1486.5" cy="260.5" fill="#A80036" rx="3" ry="3" style="stroke:#A80036;stroke-width:1.0;stroke-dasharray:3.0,3.0;"/><path d="M1486.5,281.5 L1499.5,281.5 C1535.6728,281.5 1574.7883,283.6272 1610.8274,286.458 " fill="none" style="stroke:#A80036;stroke-width:1.0;stroke-dasharray:3.0,3.0;"/><path d="M1610.5817,289.5146 L1613.1198,286.6423 L1611.0731,283.4014 L1618.4689,287.0722 L1610.5817,289.5146 " fill="#A80036" style="stroke:#A80036;stroke-width:1.0;"/><ellipse cx="1486.5" cy="281.5" fill="#A80036" rx="3" ry="3" style="stroke:#A80036;stroke-width:1.0;stroke-dasharray:3.0,3.0;"/><path d="M1342,192.5 L1355,192.5 C1382.383,192.5 1368.7497,226.5391 1391,242.5 C1413.9188,258.9404 1446.3604,266.2242 1466.6505,269.3322 " fill="none" style="stroke:#A80036;stroke-width:1.0;stroke-dasharray:3.0,3.0;"/><path d="M1466.2266,272.3874 L1468.9419,269.6502 L1467.0745,266.277 L1474.2884,270.3921 L1466.2266,272.3874 " fill="#A80036" style="stroke:#A80036;stroke-width:1.0;"/><ellipse cx="1342" cy="192.5" fill="#A80036" rx="3" ry="3" style="stroke:#A80036;stroke-width:1.0;stroke-dasharray:3.0,3.0;"/><path d="M721.5,161.5 L734.5,161.5 C829.5105,161.5 935.6441,161.5 1021.6479,161.5 " fill="none" style="stroke:#A80036;stroke-width:1.0;stroke-dasharray:3.0,3.0;"/><path d="M1021.6479,164.5925 L1023.9673,161.5 L1021.6479,158.4075 L1029.3791,161.5 L1021.6479,164.5925 " fill="#A80036" style="stroke:#A80036;stroke-width:1.0;"/><ellipse cx="721.5" cy="161.5" fill="#A80036" rx="3" ry="3" style="stroke:#A80036;stroke-width:1.0;stroke-dasharray:3.0,3.0;"/><path d="M361,164.5 L374,164.5 C478.1613,164.5 601.0065,162.9544 662.0503,162.082 " fill="none" style="stroke:#A80036;stroke-width:1.0;stroke-dasharray:3.0,3.0;"/><path d="M662.0956,165.2185 L664.4027,162.048 L662.005,158.9455 L669.8915,161.9688 L662.0956,165.2185 " fill="#A80036" style="stroke:#A80036;stroke-width:1.0;"/><ellipse cx="361" cy="164.5" fill="#A80036" rx="3" ry="3" style="stroke:#A80036;stroke-width:1.0;stroke-dasharray:3.0,3.0;"/><path d="M361,184.5 L374,184.5 C398.602,184.5 424.0986,186.0636 449.5039,188.6683 " fill="none" style="stroke:#A80036;stroke-width:1.0;stroke-dasharray:3.0,3.0;"/><path d="M449.1834,191.6763 L451.7599,188.9087 L449.8244,185.6604 L457.0238,189.4696 L449.1834,191.6763 " fill="#A80036" style="stroke:#A80036;stroke-width:1.0;"/><ellipse cx="361" cy="184.5" fill="#A80036" rx="3" ry="3" style="stroke:#A80036;stroke-width:1.0;stroke-dasharray:3.0,3.0;"/><!--MD5=[17734b98c26c2404bce5abc388657635]
@startjson RegistrationCredential
{
	"@context": [
		"https://www.w3.org/2018/credentials/v1",
		"https://www.cosmos.cash/2021/credentials/registration/v1"
	],
	"id": "did:cosmos:cash:1000bb528777",
	"type": [
		"VerifiableCredential", 
		"RegistrationCredential"
	],
	"issuer": "did:sov:12345",
	"issuanceDate": "2021-08-01T15:23:24Z",
	"credentialSubject": {
		"vasp": {
			"vaspId": "did:cosmos:cash:1000bb528777",
			"legalPerson": {
				"names": [{
					"name": "Example VASP AG",
					"nametype": "LEGL"
				}, {
					"name": "EgVASP",
					"nametype": "SHRT"
				}],
				"ctryReg": "CH"
			},
			"address": {
				"adr_type": "BIZZ",
				"thfare": "Liverpool Street",
				"premise": "22",
				"postcode": "EC2R",
				"locality": "London",
				"country": "GB"
			},
			"ids": [{
				"idId": "CH02035398520",
				"idType": "RAID"
			}, {
				"idId": "529900W6B9NEA233DS71",
				"idType": "LEIX"
			}]
		}
	},
	"proof": {
		"type": "RsaSignature2018",
		"created": "2021-08-01T15:23:24Z",
		"proofPurpose": "assertionMethod",
		"verificationMethod": "https://example.edu/issuers/keys/1",
		"jws": "eyJhbGciOiJSUzI1NiIsImI2NCI6ZmFsc2UsImNyaXQiOlsiYjY0Il19..."
  	}
}
@endjson

PlantUML version 1.2021.9(Sun Jul 25 11:13:56 BST 2021)
(GPL source distribution)
Java Runtime: OpenJDK Runtime Environment
JVM: OpenJDK 64-Bit Server VM
Default Encoding: UTF-8
Language: en
Country: GB
--></g></svg>