<?xml version="1.0" encoding="UTF-8" standalone="no"?><svg xmlns="http://www.w3.org/2000/svg" xmlns:xlink="http://www.w3.org/1999/xlink" contentScriptType="application/ecmascript" contentStyleType="text/css" height="302px" preserveAspectRatio="none" style="width:1263px;height:302px;background:#FFFFFF;" version="1.1" viewBox="0 0 1263 302" width="1263px" zoomAndPan="magnify"><defs/><g><rect fill="#FEFECE" height="143.418" rx="5" ry="5" style="stroke:#FEFECE;stroke-width:1.5;" width="379" x="10" y="38"/><text fill="#000000" font-family="sans-serif" font-size="14" lengthAdjust="spacing" textLength="64" x="15" y="53.5352">@context</text><text fill="#000000" font-family="sans-serif" font-size="14" lengthAdjust="spacing" textLength="0" x="155" y="53.5352"/><line style="stroke:#A80036;stroke-width:1.0;" x1="138" x2="138" y1="38" y2="58.4883"/><line style="stroke:#A80036;stroke-width:1.0;" x1="10" x2="389" y1="58.4883" y2="58.4883"/><text fill="#000000" font-family="sans-serif" font-size="14" lengthAdjust="spacing" textLength="13" x="15" y="74.0234">id</text><text fill="#000000" font-family="sans-serif" font-size="14" lengthAdjust="spacing" textLength="241" x="143" y="74.0234">http://fca.gov.uk/credentials/1234</text><line style="stroke:#A80036;stroke-width:1.0;" x1="138" x2="138" y1="58.4883" y2="78.9766"/><line style="stroke:#A80036;stroke-width:1.0;" x1="10" x2="389" y1="78.9766" y2="78.9766"/><text fill="#000000" font-family="sans-serif" font-size="14" lengthAdjust="spacing" textLength="29" x="15" y="94.5117">type</text><text fill="#000000" font-family="sans-serif" font-size="14" lengthAdjust="spacing" textLength="0" x="155" y="94.5117"/><line style="stroke:#A80036;stroke-width:1.0;" x1="138" x2="138" y1="78.9766" y2="99.4648"/><line style="stroke:#A80036;stroke-width:1.0;" x1="10" x2="389" y1="99.4648" y2="99.4648"/><text fill="#000000" font-family="sans-serif" font-size="14" lengthAdjust="spacing" textLength="41" x="15" y="115">issuer</text><text fill="#000000" font-family="sans-serif" font-size="14" lengthAdjust="spacing" textLength="98" x="143" y="115">did:sov:12345</text><line style="stroke:#A80036;stroke-width:1.0;" x1="138" x2="138" y1="99.4648" y2="119.9531"/><line style="stroke:#A80036;stroke-width:1.0;" x1="10" x2="389" y1="119.9531" y2="119.9531"/><text fill="#000000" font-family="sans-serif" font-size="14" lengthAdjust="spacing" textLength="90" x="15" y="135.4883">issuanceDate</text><text fill="#000000" font-family="sans-serif" font-size="14" lengthAdjust="spacing" textLength="167" x="143" y="135.4883">2021-08-01T15:23:24Z</text><line style="stroke:#A80036;stroke-width:1.0;" x1="138" x2="138" y1="119.9531" y2="140.4414"/><line style="stroke:#A80036;stroke-width:1.0;" x1="10" x2="389" y1="140.4414" y2="140.4414"/><text fill="#000000" font-family="sans-serif" font-size="14" lengthAdjust="spacing" textLength="118" x="15" y="155.9766">credentialSubject</text><text fill="#000000" font-family="sans-serif" font-size="14" lengthAdjust="spacing" textLength="0" x="155" y="155.9766"/><line style="stroke:#A80036;stroke-width:1.0;" x1="138" x2="138" y1="140.4414" y2="160.9297"/><line style="stroke:#A80036;stroke-width:1.0;" x1="10" x2="389" y1="160.9297" y2="160.9297"/><text fill="#000000" font-family="sans-serif" font-size="14" lengthAdjust="spacing" textLength="38" x="15" y="176.4648">proof</text><text fill="#000000" font-family="sans-serif" font-size="14" lengthAdjust="spacing" textLength="0" x="155" y="176.4648"/><line style="stroke:#A80036;stroke-width:1.0;" x1="138" x2="138" y1="160.9297" y2="181.418"/><rect fill="none" height="143.418" rx="5" ry="5" style="stroke:#A80036;stroke-width:1.5;" width="379" x="10" y="38"/><rect fill="#FEFECE" height="40.9766" rx="5" ry="5" style="stroke:#FEFECE;stroke-width:1.5;" width="389" x="430.5" y="10"/><text fill="#000000" font-family="sans-serif" font-size="14" lengthAdjust="spacing" textLength="286" x="435.5" y="25.5352">https://www.w3.org/2018/credentials/v1</text><line style="stroke:#A80036;stroke-width:1.0;" x1="430.5" x2="819.5" y1="30.4883" y2="30.4883"/><text fill="#000000" font-family="sans-serif" font-size="14" lengthAdjust="spacing" textLength="379" x="435.5" y="46.0234">https://www.cosmos.cash/2021/credentials/license/v1</text><rect fill="none" height="40.9766" rx="5" ry="5" style="stroke:#A80036;stroke-width:1.5;" width="389" x="430.5" y="10"/><rect fill="#FEFECE" height="40.9766" rx="5" ry="5" style="stroke:#FEFECE;stroke-width:1.5;" width="146" x="552" y="69"/><text fill="#000000" font-family="sans-serif" font-size="14" lengthAdjust="spacing" textLength="136" x="557" y="84.5352">VerifiableCredential</text><line style="stroke:#A80036;stroke-width:1.0;" x1="552" x2="698" y1="89.4883" y2="89.4883"/><text fill="#000000" font-family="sans-serif" font-size="14" lengthAdjust="spacing" textLength="121" x="557" y="105.0234">LicenseCredential</text><rect fill="none" height="40.9766" rx="5" ry="5" style="stroke:#A80036;stroke-width:1.5;" width="146" x="552" y="69"/><rect fill="#FEFECE" height="40.9766" rx="5" ry="5" style="stroke:#FEFECE;stroke-width:1.5;" width="292" x="479" y="129"/><text fill="#000000" font-family="sans-serif" font-size="14" lengthAdjust="spacing" textLength="13" x="484" y="144.5352">id</text><text fill="#000000" font-family="sans-serif" font-size="14" lengthAdjust="spacing" textLength="225" x="541" y="144.5352">did:cosmos:cash:1000bb528777</text><line style="stroke:#A80036;stroke-width:1.0;" x1="536" x2="536" y1="129" y2="149.4883"/><line style="stroke:#A80036;stroke-width:1.0;" x1="479" x2="771" y1="149.4883" y2="149.4883"/><text fill="#000000" font-family="sans-serif" font-size="14" lengthAdjust="spacing" textLength="47" x="484" y="165.0234">license</text><text fill="#000000" font-family="sans-serif" font-size="14" lengthAdjust="spacing" textLength="0" x="553" y="165.0234"/><line style="stroke:#A80036;stroke-width:1.0;" x1="536" x2="536" y1="149.4883" y2="169.9766"/><rect fill="none" height="40.9766" rx="5" ry="5" style="stroke:#A80036;stroke-width:1.5;" width="292" x="479" y="129"/><rect fill="#FEFECE" height="102.4414" rx="5" ry="5" style="stroke:#FEFECE;stroke-width:1.5;" width="390" x="861" y="108.5"/><text fill="#000000" font-family="sans-serif" font-size="14" lengthAdjust="spacing" textLength="80" x="866" y="124.0352">licenseType</text><text fill="#000000" font-family="sans-serif" font-size="14" lengthAdjust="spacing" textLength="60" x="981" y="124.0352">MICAEMI</text><line style="stroke:#A80036;stroke-width:1.0;" x1="976" x2="976" y1="108.5" y2="128.9883"/><line style="stroke:#A80036;stroke-width:1.0;" x1="861" x2="1251" y1="128.9883" y2="128.9883"/><text fill="#000000" font-family="sans-serif" font-size="14" lengthAdjust="spacing" textLength="52" x="866" y="144.5234">country</text><text fill="#000000" font-family="sans-serif" font-size="14" lengthAdjust="spacing" textLength="20" x="981" y="144.5234">CH</text><line style="stroke:#A80036;stroke-width:1.0;" x1="976" x2="976" y1="128.9883" y2="149.4766"/><line style="stroke:#A80036;stroke-width:1.0;" x1="861" x2="1251" y1="149.4766" y2="149.4766"/><text fill="#000000" font-family="sans-serif" font-size="14" lengthAdjust="spacing" textLength="62" x="866" y="165.0117">authority</text><text fill="#000000" font-family="sans-serif" font-size="14" lengthAdjust="spacing" textLength="265" x="981" y="165.0117">Another Financial Services Body (AFSB)</text><line style="stroke:#A80036;stroke-width:1.0;" x1="976" x2="976" y1="149.4766" y2="169.9648"/><line style="stroke:#A80036;stroke-width:1.0;" x1="861" x2="1251" y1="169.9648" y2="169.9648"/><text fill="#000000" font-family="sans-serif" font-size="14" lengthAdjust="spacing" textLength="48" x="866" y="185.5">denom</text><text fill="#000000" font-family="sans-serif" font-size="14" lengthAdjust="spacing" textLength="34" x="981" y="185.5">sEUR</text><line style="stroke:#A80036;stroke-width:1.0;" x1="976" x2="976" y1="169.9648" y2="190.4531"/><line style="stroke:#A80036;stroke-width:1.0;" x1="861" x2="1251" y1="190.4531" y2="190.4531"/><text fill="#000000" font-family="sans-serif" font-size="14" lengthAdjust="spacing" textLength="105" x="866" y="205.9883">circulationLimit</text><text fill="#000000" font-family="sans-serif" font-size="14" lengthAdjust="spacing" textLength="27" x="981" y="205.9883">100</text><line style="stroke:#A80036;stroke-width:1.0;" x1="976" x2="976" y1="190.4531" y2="210.9414"/><rect fill="none" height="102.4414" rx="5" ry="5" style="stroke:#A80036;stroke-width:1.5;" width="390" x="861" y="108.5"/><rect fill="#FEFECE" height="102.4414" rx="5" ry="5" style="stroke:#FEFECE;stroke-width:1.5;" width="398" x="426" y="188.5"/><text fill="#000000" font-family="sans-serif" font-size="14" lengthAdjust="spacing" textLength="29" x="431" y="204.0352">type</text><text fill="#000000" font-family="sans-serif" font-size="14" lengthAdjust="spacing" textLength="119" x="569" y="204.0352">SIGNATURE_TYPE</text><line style="stroke:#A80036;stroke-width:1.0;" x1="564" x2="564" y1="188.5" y2="208.9883"/><line style="stroke:#A80036;stroke-width:1.0;" x1="426" x2="824" y1="208.9883" y2="208.9883"/><text fill="#000000" font-family="sans-serif" font-size="14" lengthAdjust="spacing" textLength="51" x="431" y="224.5234">created</text><text fill="#000000" font-family="sans-serif" font-size="14" lengthAdjust="spacing" textLength="167" x="569" y="224.5234">2021-08-01T15:23:24Z</text><line style="stroke:#A80036;stroke-width:1.0;" x1="564" x2="564" y1="208.9883" y2="229.4766"/><line style="stroke:#A80036;stroke-width:1.0;" x1="426" x2="824" y1="229.4766" y2="229.4766"/><text fill="#000000" font-family="sans-serif" font-size="14" lengthAdjust="spacing" textLength="94" x="431" y="245.0117">proofPurpose</text><text fill="#000000" font-family="sans-serif" font-size="14" lengthAdjust="spacing" textLength="115" x="569" y="245.0117">assertionMethod</text><line style="stroke:#A80036;stroke-width:1.0;" x1="564" x2="564" y1="229.4766" y2="249.9648"/><line style="stroke:#A80036;stroke-width:1.0;" x1="426" x2="824" y1="249.9648" y2="249.9648"/><text fill="#000000" font-family="sans-serif" font-size="14" lengthAdjust="spacing" textLength="128" x="431" y="265.5">verificationMethod</text><text fill="#000000" font-family="sans-serif" font-size="14" lengthAdjust="spacing" textLength="250" x="569" y="265.5">https://example.edu/issuers/keys/1</text><line style="stroke:#A80036;stroke-width:1.0;" x1="564" x2="564" y1="249.9648" y2="270.4531"/><line style="stroke:#A80036;stroke-width:1.0;" x1="426" x2="824" y1="270.4531" y2="270.4531"/><text fill="#000000" font-family="sans-serif" font-size="14" lengthAdjust="spacing" textLength="22" x="431" y="285.9883">jws</text><text fill="#000000" font-family="sans-serif" font-size="14" lengthAdjust="spacing" textLength="57" x="569" y="285.9883">jws123..</text><line style="stroke:#A80036;stroke-width:1.0;" x1="564" x2="564" y1="270.4531" y2="290.9414"/><rect fill="none" height="102.4414" rx="5" ry="5" style="stroke:#A80036;stroke-width:1.5;" width="398" x="426" y="188.5"/><path d="M377,47.5 L390,47.5 C400.7787,47.5 411.8288,47.3191 422.9796,46.9947 " fill="none" style="stroke:#A80036;stroke-width:1.0;stroke-dasharray:3.0,3.0;"/><path d="M423.0784,50.0882 L425.2997,46.9206 L422.8807,43.9012 L430.7134,46.7476 L423.0784,50.0882 " fill="#A80036" style="stroke:#A80036;stroke-width:1.0;"/><ellipse cx="377" cy="47.5" fill="#A80036" rx="3" ry="3" style="stroke:#A80036;stroke-width:1.0;stroke-dasharray:3.0,3.0;"/><path d="M377,88.5 L390,88.5 C441.4747,88.5 499.3045,88.7439 544.656,88.9908 " fill="none" style="stroke:#A80036;stroke-width:1.0;stroke-dasharray:3.0,3.0;"/><path d="M544.6388,92.0876 L546.9786,89.0037 L544.6731,85.894 L552.398,89.0337 L544.6388,92.0876 " fill="#A80036" style="stroke:#A80036;stroke-width:1.0;"/><ellipse cx="377" cy="88.5" fill="#A80036" rx="3" ry="3" style="stroke:#A80036;stroke-width:1.0;stroke-dasharray:3.0,3.0;"/><path d="M759.5,159.5 L772.5,159.5 C798.7722,159.5 826.4162,159.5 853.7128,159.5 " fill="none" style="stroke:#A80036;stroke-width:1.0;stroke-dasharray:3.0,3.0;"/><path d="M853.7128,162.5754 L856.0194,159.5 L853.7128,156.4246 L861.4012,159.5 L853.7128,162.5754 " fill="#A80036" style="stroke:#A80036;stroke-width:1.0;"/><ellipse cx="759.5" cy="159.5" fill="#A80036" rx="3" ry="3" style="stroke:#A80036;stroke-width:1.0;stroke-dasharray:3.0,3.0;"/><path d="M377,150.5 L390,150.5 C416.4216,150.5 444.5175,150.4357 471.7409,150.3398 " fill="none" style="stroke:#A80036;stroke-width:1.0;stroke-dasharray:3.0,3.0;"/><path d="M471.752,153.401 L474.0368,150.3314 L471.7297,147.2785 L479.394,150.3119 L471.752,153.401 " fill="#A80036" style="stroke:#A80036;stroke-width:1.0;"/><ellipse cx="377" cy="150.5" fill="#A80036" rx="3" ry="3" style="stroke:#A80036;stroke-width:1.0;stroke-dasharray:3.0,3.0;"/><path d="M377,170.5 L390,170.5 C392.1083,170.5 415.5157,177.1524 446.7922,186.3259 " fill="none" style="stroke:#A80036;stroke-width:1.0;stroke-dasharray:3.0,3.0;"/><path d="M445.943,189.2162 L448.9598,186.9628 L447.6413,183.4357 L454.0177,188.4488 L445.943,189.2162 " fill="#A80036" style="stroke:#A80036;stroke-width:1.0;"/><ellipse cx="377" cy="170.5" fill="#A80036" rx="3" ry="3" style="stroke:#A80036;stroke-width:1.0;stroke-dasharray:3.0,3.0;"/><!--MD5=[cfd4685d42144a0ea0d5382ae93453d4]
@startjson LicenseCredential
{
	"@context": [
		"https://www.w3.org/2018/credentials/v1",
		"https://www.cosmos.cash/2021/credentials/license/v1"
	],
	"id": "http://fca.gov.uk/credentials/1234",
	"type": [
		"VerifiableCredential", 
		"LicenseCredential"
	],
	"issuer": "did:sov:12345",
	"issuanceDate": "2021-08-01T15:23:24Z",
	"credentialSubject": {
      "id": "did:cosmos:cash:1000bb528777",
      "license": {
        "licenseType": "MICAEMI",
        "country": "CH",
        "authority": "Another Financial Services Body (AFSB)",
        "denom": "sEUR",
        "circulationLimit": 100
      }
	},
	"proof": {
		"type": "SIGNATURE_TYPE",
		"created": "2021-08-01T15:23:24Z",
		"proofPurpose": "assertionMethod",
		"verificationMethod": "https://example.edu/issuers/keys/1",
		"jws": "jws123.."
  }
}
@endjson

PlantUML version 1.2021.9(Sun Jul 25 11:13:56 BST 2021)
(GPL source distribution)
Java Runtime: OpenJDK Runtime Environment
JVM: OpenJDK 64-Bit Server VM
Default Encoding: UTF-8
Language: en
Country: GB
--></g></svg>