<?xml version="1.0" encoding="UTF-8" standalone="no"?><svg xmlns="http://www.w3.org/2000/svg" xmlns:xlink="http://www.w3.org/1999/xlink" contentScriptType="application/ecmascript" contentStyleType="text/css" height="1623px" preserveAspectRatio="none" style="width:1357px;height:1623px;background:#FFFFFF;" version="1.1" viewBox="0 0 1357 1623" width="1357px" zoomAndPan="magnify"><defs><filter height="300%" id="f1ko0bv53v3kzc" width="300%" x="-1" y="-1"><feGaussianBlur result="blurOut" stdDeviation="2.0"/><feColorMatrix in="blurOut" result="blurOut2" type="matrix" values="0 0 0 0 0 0 0 0 0 0 0 0 0 0 0 0 0 0 .4 0"/><feOffset dx="4.0" dy="4.0" in="blurOut2" result="blurOut3"/><feBlend in="SourceGraphic" in2="blurOut3" mode="normal"/></filter></defs><g><polygon fill="#F8F8F8" filter="url(#f1ko0bv53v3kzc)" points="998,434,1010,446,998,458,986,446,998,434" style="stroke:#383838;stroke-width:1.5;"/><polygon fill="#F8F8F8" filter="url(#f1ko0bv53v3kzc)" points="790,535,802,547,790,559,778,547,790,535" style="stroke:#383838;stroke-width:1.5;"/><polygon fill="#F8F8F8" filter="url(#f1ko0bv53v3kzc)" points="790,1151,802,1163,790,1175,778,1163,790,1151" style="stroke:#383838;stroke-width:1.5;"/><polygon fill="#F8F8F8" filter="url(#f1ko0bv53v3kzc)" points="56,809,68,821,56,833,44,821,56,809" style="stroke:#383838;stroke-width:1.5;"/><polygon fill="#F8F8F8" filter="url(#f1ko0bv53v3kzc)" points="212,923,224,935,212,947,200,935,212,923" style="stroke:#383838;stroke-width:1.5;"/><polygon fill="#F8F8F8" filter="url(#f1ko0bv53v3kzc)" points="436,1151,448,1163,436,1175,424,1163,436,1151" style="stroke:#383838;stroke-width:1.5;"/><polygon fill="#F8F8F8" filter="url(#f1ko0bv53v3kzc)" points="672,1379,684,1391,672,1403,660,1391,672,1379" style="stroke:#383838;stroke-width:1.5;"/><g id="OK"><rect fill="#F8F8F8" filter="url(#f1ko0bv53v3kzc)" height="50" rx="12.5" ry="12.5" style="stroke:#383838;stroke-width:1.5;" width="72" x="955" y="1480"/><line style="stroke:#383838;stroke-width:1.5;" x1="955" x2="1027" y1="1506.2969" y2="1506.2969"/><text fill="#000000" font-family="sans-serif" font-size="14" lengthAdjust="spacing" textLength="52" x="965" y="1497.9951">Accept</text></g><g id="ERR"><rect fill="#F8F8F8" filter="url(#f1ko0bv53v3kzc)" height="50" rx="12.5" ry="12.5" style="stroke:#383838;stroke-width:1.5;" width="67" x="638.5" y="1480"/><line style="stroke:#383838;stroke-width:1.5;" x1="638.5" x2="705.5" y1="1506.2969" y2="1506.2969"/><text fill="#000000" font-family="sans-serif" font-size="14" lengthAdjust="spacing" textLength="47" x="648.5" y="1497.9951">Reject</text></g><ellipse cx="866" cy="1601" filter="url(#f1ko0bv53v3kzc)" rx="10" ry="10" style="stroke:#000000;stroke-width:1.0;fill:none;"/><ellipse cx="866.5" cy="1601.5" fill="#000000" rx="6" ry="6" style="stroke:none;stroke-width:1.0;"/><ellipse cx="998" cy="16" fill="#000000" filter="url(#f1ko0bv53v3kzc)" rx="10" ry="10" style="stroke:none;stroke-width:1.0;"/><g id="S1"><rect fill="#F8F8F8" filter="url(#f1ko0bv53v3kzc)" height="64.2344" rx="12.5" ry="12.5" style="stroke:#383838;stroke-width:1.5;" width="215" x="890.5" y="87"/><line style="stroke:#383838;stroke-width:1.5;" x1="890.5" x2="1105.5" y1="113.2969" y2="113.2969"/><text fill="#000000" font-family="sans-serif" font-size="14" lengthAdjust="spacing" textLength="18" x="989" y="104.9951">S1</text><text fill="#000000" font-family="sans-serif" font-size="12" lengthAdjust="spacing" textLength="195" x="895.5" y="129.4355">regulators added to genesis file</text><text fill="#000000" font-family="sans-serif" font-size="12" lengthAdjust="spacing" textLength="107" x="895.5" y="143.4043">ADDR(Regulators)</text></g><g id="S2"><rect fill="#F8F8F8" filter="url(#f1ko0bv53v3kzc)" height="50.2656" rx="12.5" ry="12.5" style="stroke:#383838;stroke-width:1.5;" width="99" x="948.5" y="212"/><line style="stroke:#383838;stroke-width:1.5;" x1="948.5" x2="1047.5" y1="238.2969" y2="238.2969"/><text fill="#000000" font-family="sans-serif" font-size="14" lengthAdjust="spacing" textLength="17" x="989.5" y="229.9951">S2</text><text fill="#000000" font-family="sans-serif" font-size="12" lengthAdjust="spacing" textLength="79" x="953.5" y="254.4355">Chain started</text></g><g id="S3"><rect fill="#F8F8F8" filter="url(#f1ko0bv53v3kzc)" height="50.2656" rx="12.5" ry="12.5" style="stroke:#383838;stroke-width:1.5;" width="188" x="904" y="323"/><line style="stroke:#383838;stroke-width:1.5;" x1="904" x2="1092" y1="349.2969" y2="349.2969"/><text fill="#000000" font-family="sans-serif" font-size="14" lengthAdjust="spacing" textLength="18" x="989" y="340.9951">S3</text><text fill="#000000" font-family="sans-serif" font-size="12" lengthAdjust="spacing" textLength="168" x="909" y="365.4355">Sumbitted Tx(vc(regulator))</text></g><g id="K1"><rect fill="#F8F8F8" filter="url(#f1ko0bv53v3kzc)" height="50.2656" rx="12.5" ry="12.5" style="stroke:#383838;stroke-width:1.5;" width="188" x="696" y="716"/><line style="stroke:#383838;stroke-width:1.5;" x1="696" x2="884" y1="742.2969" y2="742.2969"/><text fill="#000000" font-family="sans-serif" font-size="14" lengthAdjust="spacing" textLength="19" x="780.5" y="733.9951">K1</text><text fill="#000000" font-family="sans-serif" font-size="12" lengthAdjust="spacing" textLength="168" x="701" y="758.4355">DID is ephemeral (address)</text></g><g id="N1"><rect fill="#F8F8F8" filter="url(#f1ko0bv53v3kzc)" height="50.2656" rx="12.5" ry="12.5" style="stroke:#383838;stroke-width:1.5;" width="120" x="346" y="636"/><line style="stroke:#383838;stroke-width:1.5;" x1="346" x2="466" y1="662.2969" y2="662.2969"/><text fill="#000000" font-family="sans-serif" font-size="14" lengthAdjust="spacing" textLength="19" x="396.5" y="653.9951">N1</text><text fill="#000000" font-family="sans-serif" font-size="12" lengthAdjust="spacing" textLength="100" x="351" y="678.4355">DID is persistent</text></g><g id="K2"><rect fill="#F8F8F8" filter="url(#f1ko0bv53v3kzc)" height="50.2656" rx="12.5" ry="12.5" style="stroke:#383838;stroke-width:1.5;" width="122" x="664" y="1252"/><line style="stroke:#383838;stroke-width:1.5;" x1="664" x2="786" y1="1278.2969" y2="1278.2969"/><text fill="#000000" font-family="sans-serif" font-size="14" lengthAdjust="spacing" textLength="18" x="716" y="1269.9951">K2</text><text fill="#000000" font-family="sans-serif" font-size="12" lengthAdjust="spacing" textLength="102" x="669" y="1294.4355">pubkey is known</text></g><g id="N2"><rect fill="#F8F8F8" filter="url(#f1ko0bv53v3kzc)" height="50" rx="12.5" ry="12.5" style="stroke:#383838;stroke-width:1.5;" width="50" x="187" y="796"/><line style="stroke:#383838;stroke-width:1.5;" x1="187" x2="237" y1="822.2969" y2="822.2969"/><text fill="#000000" font-family="sans-serif" font-size="14" lengthAdjust="spacing" textLength="18" x="203" y="813.9951">N2</text></g><g id="N3"><rect fill="#F8F8F8" filter="url(#f1ko0bv53v3kzc)" height="50.2656" rx="12.5" ry="12.5" style="stroke:#383838;stroke-width:1.5;" width="119" x="295.5" y="1024"/><line style="stroke:#383838;stroke-width:1.5;" x1="295.5" x2="414.5" y1="1050.2969" y2="1050.2969"/><text fill="#000000" font-family="sans-serif" font-size="14" lengthAdjust="spacing" textLength="19" x="345.5" y="1041.9951">N3</text><text fill="#000000" font-family="sans-serif" font-size="12" lengthAdjust="spacing" textLength="99" x="300.5" y="1066.4355">DID Well formed</text></g><g id="N5"><rect fill="#F8F8F8" filter="url(#f1ko0bv53v3kzc)" height="50.2656" rx="12.5" ry="12.5" style="stroke:#383838;stroke-width:1.5;" width="122" x="498" y="1252"/><line style="stroke:#383838;stroke-width:1.5;" x1="498" x2="620" y1="1278.2969" y2="1278.2969"/><text fill="#000000" font-family="sans-serif" font-size="14" lengthAdjust="spacing" textLength="19" x="549.5" y="1269.9951">N5</text><text fill="#000000" font-family="sans-serif" font-size="12" lengthAdjust="spacing" textLength="102" x="503" y="1294.4355">pubkey is known</text></g><!--MD5=[2238c68168833a895f4c345d3be63ec1]
link *start to S1--><path d="M998,26.32 C998,38.78 998,61.6 998,81.35 " fill="none" id="*start-to-S1" style="stroke:#383838;stroke-width:1.0;"/><polygon fill="#383838" points="998,86.56,1002,77.56,998,81.56,994,77.56,998,86.56" style="stroke:#383838;stroke-width:1.0;"/><!--MD5=[15cb110786dd224ca6a510a3d2a24e20]
link S1 to S2--><path d="M998,151.09 C998,168.36 998,189.72 998,206.7 " fill="none" id="S1-to-S2" style="stroke:#383838;stroke-width:1.0;"/><polygon fill="#383838" points="998,211.82,1002,202.82,998,206.82,994,202.82,998,211.82" style="stroke:#383838;stroke-width:1.0;"/><!--MD5=[8eac89d31ced3c9003fbd6a8a005c745]
link S2 to S3--><path d="M998,262.19 C998,278.56 998,300.28 998,317.64 " fill="none" id="S2-to-S3" style="stroke:#383838;stroke-width:1.0;"/><polygon fill="#383838" points="998,322.88,1002,313.88,998,317.88,994,313.88,998,322.88" style="stroke:#383838;stroke-width:1.0;"/><!--MD5=[104d2a8e4acbcaffc977ca66dea2ffe3]
link S3 to C1--><path d="M998,373.22 C998,390.54 998,413.38 998,428.59 " fill="none" id="S3-to-C1" style="stroke:#383838;stroke-width:1.0;"/><polygon fill="#383838" points="998,433.83,1002,424.83,998,428.83,994,424.83,998,433.83" style="stroke:#383838;stroke-width:1.0;"/><!--MD5=[d43813fc1b63bce67197202a4f0eb2ed]
link C1 to C2--><path d="M990.1,450.76 C958.426,465.84 840.494,521.97 802.138,540.22 " fill="none" id="C1-to-C2" style="stroke:#383838;stroke-width:1.0;"/><polygon fill="#383838" points="797.468,542.45,807.3135,542.194,801.9827,540.3012,803.8755,534.9704,797.468,542.45" style="stroke:#383838;stroke-width:1.0;"/><text fill="#000000" font-family="sans-serif" font-size="13" lengthAdjust="spacing" textLength="176" x="907" y="501.0669">Signer in ADDR(Regulators)</text><!--MD5=[83679094c976201ce01c8489ebbe0519]
link C1 to ERR--><path d="M1007.78,448.58 C1040.92,454.56 1147,478.92 1147,546 C1147,546 1147,546 1147,1392 C1147,1436.673 824.614,1483.755 711.029,1498.956 " fill="none" id="C1-to-ERR" style="stroke:#383838;stroke-width:1.0;"/><polygon fill="#383838" points="705.78,1499.656,715.2293,1502.4329,710.7362,1498.9959,714.1732,1494.5029,705.78,1499.656" style="stroke:#383838;stroke-width:1.0;"/><text fill="#000000" font-family="sans-serif" font-size="13" lengthAdjust="spacing" textLength="201" x="1148" y="990.0669">Signer not in ADDR(Regulators)</text><!--MD5=[48ab97e96c5ca96caef9140a8df39a13]
link C2 to K1--><path d="M790,559.15 C790,588.3 790,667.486 790,710.775 " fill="none" id="C2-to-K1" style="stroke:#383838;stroke-width:1.0;"/><polygon fill="#383838" points="790,715.871,794,706.871,790,710.871,786,706.871,790,715.871" style="stroke:#383838;stroke-width:1.0;"/><text fill="#000000" font-family="sans-serif" font-size="13" lengthAdjust="spacing" textLength="140" x="791" y="602.0669">Issuer DID is type KEY</text><!--MD5=[5df96e2aa3d2afc73306d7844f5a2ce7]
link C2 to N1--><path d="M780.605,549.63 C753.141,554.5 670.724,569.77 604,589 C559,601.97 509.398,619.763 471.097,634.292 " fill="none" id="C2-to-N1" style="stroke:#383838;stroke-width:1.0;"/><polygon fill="#383838" points="466.008,636.228,475.8422,636.7649,470.681,634.4494,472.9964,629.2881,466.008,636.228" style="stroke:#383838;stroke-width:1.0;"/><text fill="#000000" font-family="sans-serif" font-size="13" lengthAdjust="spacing" textLength="141" x="605" y="602.0669">Issuer DID is type NET</text><!--MD5=[7e2c92834abebb4b9bb78073b4346666]
link K1 to C3--><path d="M790,766.035 C790,794.187 790,842.229 790,883.5 C790,883.5 790,883.5 790,1050 C790,1084.058 790,1123.942 790,1145.736 " fill="none" id="K1-to-C3" style="stroke:#383838;stroke-width:1.0;"/><polygon fill="#383838" points="790,1150.872,794,1141.872,790,1145.872,786,1141.872,790,1150.872" style="stroke:#383838;stroke-width:1.0;"/><!--MD5=[dfd5ea38a7bb19685112003401e87839]
link C3 to K2--><path d="M782.363,1167.863 C770.966,1174.05 749.704,1187.31 739,1205 C731.478,1217.431 727.895,1233.12 726.227,1246.587 " fill="none" id="C3-to-K2" style="stroke:#383838;stroke-width:1.0;"/><polygon fill="#383838" points="725.659,1251.819,730.6051,1243.3022,726.1975,1246.8481,722.6516,1242.4405,725.659,1251.819" style="stroke:#383838;stroke-width:1.0;"/><text fill="#000000" font-family="sans-serif" font-size="13" lengthAdjust="spacing" textLength="215" x="740" y="1218.0669">Address has had positive balance</text><!--MD5=[268dd8ca2bd603a4d81f8cca95a91a77]
link C3 to ERR--><path d="M800.603,1164.888 C834.611,1167.975 939.902,1179.478 960,1205 C964.675,1210.936 961.094,1214.524 960,1222 C942.429,1342.017 913.193,1386.249 810,1450 C778.654,1469.365 739.191,1483.963 710.503,1493.068 " fill="none" id="C3-to-ERR" style="stroke:#383838;stroke-width:1.0;"/><polygon fill="#383838" points="705.636,1494.592,715.4201,1495.7194,710.4075,1493.0977,713.0292,1488.0851,705.636,1494.592" style="stroke:#383838;stroke-width:1.0;"/><text fill="#000000" font-family="sans-serif" font-size="13" lengthAdjust="spacing" textLength="161" x="932" y="1345.0669">Address never had funds</text><!--MD5=[f4951006a83ab98facafb602b6fff010]
link K2 to P1--><path d="M691.482,1302.01 C682.458,1310.374 673.859,1320.564 669,1332 C662.982,1346.163 665.206,1364.054 667.984,1376.194 " fill="none" id="K2-to-P1" style="stroke:#383838;stroke-width:1.0;"/><polygon fill="#383838" points="669.271,1381.333,670.9627,1371.6305,668.0553,1376.483,663.2028,1373.5756,669.271,1381.333" style="stroke:#383838;stroke-width:1.0;"/><text fill="#000000" font-family="sans-serif" font-size="13" lengthAdjust="spacing" textLength="247" x="670" y="1345.0669">verify vc proof (issuer did + signature)</text><!--MD5=[dc99af185e11149b7e168a13fe945cd2]
link N1 to C4--><path d="M352.462,686.169 C269.118,723.793 113.247,794.157 68.3765,814.413 " fill="none" id="N1-to-C4" style="stroke:#383838;stroke-width:1.0;"/><polygon fill="#383838" points="63.6936,816.527,73.5423,816.4696,68.2507,814.4697,70.2506,809.1782,63.6936,816.527" style="stroke:#383838;stroke-width:1.0;"/><text fill="#000000" font-family="sans-serif" font-size="13" lengthAdjust="spacing" textLength="74" x="284" y="745.5669">resolve DID</text><!--MD5=[71498e247eb10cde2845af2a22598ce5]
link C4 to ERR--><path d="M51.023,828.128 C38.3761,844.342 6,890.134 6,934 C6,934 6,934 6,1392 C6,1455.957 489.817,1492.253 632.716,1501.578 " fill="none" id="C4-to-ERR" style="stroke:#383838;stroke-width:1.0;"/><polygon fill="#383838" points="638.057,1501.925,629.3341,1497.3521,633.0674,1501.6021,628.8175,1505.3354,638.057,1501.925" style="stroke:#383838;stroke-width:1.0;"/><text fill="#000000" font-family="sans-serif" font-size="13" lengthAdjust="spacing" textLength="118" x="7" y="1167.5669">DID not resolvable</text><!--MD5=[cbe94689975b3f519866eff2e142e449]
link C4 to N2--><path d="M68.2411,821 C92.4449,821 147.06,821 181.572,821 " fill="none" id="C4-to-N2" style="stroke:#383838;stroke-width:1.0;"/><polygon fill="#383838" points="186.93,821,177.93,817,181.93,821,177.93,825,186.93,821" style="stroke:#383838;stroke-width:1.0;"/><text fill="#000000" font-family="sans-serif" font-size="13" lengthAdjust="spacing" textLength="82" x="86.5" y="814.0669">DID resolved</text><!--MD5=[89ea6d5ca0d9def10234c046bd81e7d9]
link N2 to C5--><path d="M212,846.027 C212,867.579 212,898.634 212,917.501 " fill="none" id="N2-to-C5" style="stroke:#383838;stroke-width:1.0;"/><polygon fill="#383838" points="212,922.941,216,913.941,212,917.941,208,913.941,212,922.941" style="stroke:#383838;stroke-width:1.0;"/><text fill="#000000" font-family="sans-serif" font-size="13" lengthAdjust="spacing" textLength="260" x="213" y="889.0669">has VR authentication | assertionMethod</text><!--MD5=[a9c8ad4de75d51e1c3838283d7145e8a]
link C5 to ERR--><path d="M208.214,943.382 C199.546,960.992 179,1007.053 179,1048 C179,1048 179,1048 179,1392 C179,1484.972 516.619,1500.768 633.069,1503.451 " fill="none" id="C5-to-ERR" style="stroke:#383838;stroke-width:1.0;"/><polygon fill="#383838" points="638.114,1503.562,629.2042,1499.365,633.1152,1503.452,629.0282,1507.363,638.114,1503.562" style="stroke:#383838;stroke-width:1.0;"/><text fill="#000000" font-family="sans-serif" font-size="13" lengthAdjust="spacing" textLength="232" x="180" y="1218.0669">missing did verification relationships</text><!--MD5=[a72b11fec1ce8826e9de82e3c8875174]
link C5 to N3--><path d="M218.516,941.103 C236.157,954.921 285.825,993.821 320.111,1020.675 " fill="none" id="C5-to-N3" style="stroke:#383838;stroke-width:1.0;"/><polygon fill="#383838" points="324.213,1023.887,319.5929,1015.189,320.2763,1020.8045,314.6608,1021.4878,324.213,1023.887" style="stroke:#383838;stroke-width:1.0;"/><!--MD5=[51e68c07bec4bc6a788a08b52553444a]
link N3 to C6--><path d="M372.377,1074.027 C389.689,1097.966 415.48,1133.627 428.254,1151.29 " fill="none" id="N3-to-C6" style="stroke:#383838;stroke-width:1.0;"/><polygon fill="#383838" points="431.208,1155.375,429.1751,1145.7382,428.2779,1151.3235,422.6927,1150.4263,431.208,1155.375" style="stroke:#383838;stroke-width:1.0;"/><text fill="#000000" font-family="sans-serif" font-size="13" lengthAdjust="spacing" textLength="101" x="407" y="1117.0669">retrieve pubkey</text><!--MD5=[ef606937ef0c041da9a993569c405ddc]
link C6 to ERR--><path d="M435.062,1174.107 C432.834,1203.49 429.795,1290.505 465,1349 C505.145,1415.703 585.882,1463.159 633.799,1486.838 " fill="none" id="C6-to-ERR" style="stroke:#383838;stroke-width:1.0;"/><polygon fill="#383838" points="638.331,1489.055,632.0042,1481.5071,633.8396,1486.8579,628.4888,1488.6933,638.331,1489.055" style="stroke:#383838;stroke-width:1.0;"/><text fill="#000000" font-family="sans-serif" font-size="13" lengthAdjust="spacing" textLength="141" x="466" y="1345.0669">pubkey not supported</text><!--MD5=[aa68ceba17e02d07fce593f4b2e050fa]
link C6 to N5--><path d="M441.933,1169.402 C457.318,1183.411 499.338,1221.673 528.603,1248.322 " fill="none" id="C6-to-N5" style="stroke:#383838;stroke-width:1.0;"/><polygon fill="#383838" points="532.465,1251.838,528.5044,1242.8206,528.7683,1248.4713,523.1176,1248.7353,532.465,1251.838" style="stroke:#383838;stroke-width:1.0;"/><text fill="#000000" font-family="sans-serif" font-size="13" lengthAdjust="spacing" textLength="206" x="499" y="1218.0669">pubkey is address or sekp256k1</text><!--MD5=[b3cf52b30e10db7392cf4bfe9e98b8ec]
link N5 to P1--><path d="M583.241,1302.027 C608.081,1326.647 645.43,1363.665 662.67,1380.753 " fill="none" id="N5-to-P1" style="stroke:#383838;stroke-width:1.0;"/><polygon fill="#383838" points="666.223,1384.274,662.6466,1375.0974,662.6718,1380.7542,657.015,1380.7794,666.223,1384.274" style="stroke:#383838;stroke-width:1.0;"/><!--MD5=[b265ddd266c6dfc5e46888f853462895]
link P1 to OK--><path d="M680.801,1394.335 C702.782,1400.227 761.786,1416.415 810,1433 C858.723,1449.76 913.695,1471.777 950.141,1486.822 " fill="none" id="P1-to-OK" style="stroke:#383838;stroke-width:1.0;"/><polygon fill="#383838" points="954.935,1488.805,948.1479,1481.6681,950.3148,1486.8935,945.0895,1489.0604,954.935,1488.805" style="stroke:#383838;stroke-width:1.0;"/><text fill="#000000" font-family="sans-serif" font-size="13" lengthAdjust="spacing" textLength="105" x="856" y="1446.0669">signature match</text><!--MD5=[30b2a71a9916224b1fb9786cc931aa4b]
link P1 to ERR--><path d="M672,1403.148 C672,1419.609 672,1450.991 672,1474.396 " fill="none" id="P1-to-ERR" style="stroke:#383838;stroke-width:1.0;"/><polygon fill="#383838" points="672,1479.56,676,1470.56,672,1474.56,668,1470.56,672,1479.56" style="stroke:#383838;stroke-width:1.0;"/><text fill="#000000" font-family="sans-serif" font-size="13" lengthAdjust="spacing" textLength="128" x="673" y="1446.0669">signature mismatch</text><!--MD5=[8f8c6c1618c7bcccf022dfc9285af6ad]
link OK to END--><path d="M958.809,1530.2073 C932.402,1550.0658 896.469,1577.0873 878.019,1590.9614 " fill="none" id="OK-to-END" style="stroke:#383838;stroke-width:1.0;"/><polygon fill="#383838" points="873.722,1594.193,883.319,1591.9798,877.7179,1591.1875,878.5102,1585.5864,873.722,1594.193" style="stroke:#383838;stroke-width:1.0;"/><!--MD5=[5d21adb1a2fae9aab712e7dbe53b0fcb]
link ERR to END--><path d="M705.792,1522.3736 C749.099,1543.3572 822.178,1578.7666 852.345,1593.3839 " fill="none" id="ERR-to-END" style="stroke:#383838;stroke-width:1.0;"/><polygon fill="#383838" points="857.136,1595.7052,850.7825,1588.1797,852.6369,1593.524,847.2926,1595.3783,857.136,1595.7052" style="stroke:#383838;stroke-width:1.0;"/><!--MD5=[37a786de189c1bf8d53cbcc5908056d0]
@startuml
skinparam monochrome true

state C1 <<choice>>
state C2 <<choice>>
state C3 <<choice>>
state C4 <<choice>>
state C5 <<choice>>
state C6 <<choice>>


state P1 <<choice>>
state "Accept" as OK
state "Reject" as ERR
state END <<end>>


[*] - -> S1
S1 : regulators added to genesis file
S1 : ADDR(Regulators)
S2 : Chain started
S3 : Sumbitted Tx(vc(regulator))
K1 : DID is ephemeral (address)
N1 : DID is persistent
S1 - -> S2
S2 - -> S3
S3 - -> C1

C1 - -> C2 : Signer in ADDR(Regulators)
C1 - -> ERR : Signer not in ADDR(Regulators)

C2 - -> K1 : Issuer DID is type KEY
C2 - -> N1 : Issuer DID is type NET

K1 - -> C3
C3 - -> K2 : Address has had positive balance
C3 - -> ERR  : Address never had funds

K2 : pubkey is known
K2 - -> P1 : verify vc proof (issuer did + signature)


' HERE THE NET METHOD STARTS

N1 - -> C4 : resolve DID

C4 -> ERR : DID not resolvable
C4 -> N2 : DID resolved 

N2 - -> C5 : has VR authentication | assertionMethod
C5 - -> ERR : missing did verification relationships

 
C5 - -> N3 
N3 : DID Well formed

N3 - -> C6 : retrieve pubkey 

C6 - -> ERR : pubkey not supported
C6 - -> N5 : pubkey is address or sekp256k1

N5 : pubkey is known
N5 - -> P1


P1 - -> OK : signature match
P1 - -> ERR : signature mismatch

OK - -> END
ERR - -> END
@enduml

@startuml
skinparam monochrome true

state C1 <<choice>>
state C2 <<choice>>
state C3 <<choice>>
state C4 <<choice>>
state C5 <<choice>>
state C6 <<choice>>


state P1 <<choice>>
state "Accept" as OK
state "Reject" as ERR
state END <<end>>


[*] - -> S1
S1 : regulators added to genesis file
S1 : ADDR(Regulators)
S2 : Chain started
S3 : Sumbitted Tx(vc(regulator))
K1 : DID is ephemeral (address)
N1 : DID is persistent
S1 - -> S2
S2 - -> S3
S3 - -> C1

C1 - -> C2 : Signer in ADDR(Regulators)
C1 - -> ERR : Signer not in ADDR(Regulators)

C2 - -> K1 : Issuer DID is type KEY
C2 - -> N1 : Issuer DID is type NET

K1 - -> C3
C3 - -> K2 : Address has had positive balance
C3 - -> ERR  : Address never had funds

K2 : pubkey is known
K2 - -> P1 : verify vc proof (issuer did + signature)



N1 - -> C4 : resolve DID

C4 -> ERR : DID not resolvable
C4 -> N2 : DID resolved 

N2 - -> C5 : has VR authentication | assertionMethod
C5 - -> ERR : missing did verification relationships

 
C5 - -> N3 
N3 : DID Well formed

N3 - -> C6 : retrieve pubkey 

C6 - -> ERR : pubkey not supported
C6 - -> N5 : pubkey is address or sekp256k1

N5 : pubkey is known
N5 - -> P1


P1 - -> OK : signature match
P1 - -> ERR : signature mismatch

OK - -> END
ERR - -> END
@enduml

PlantUML version 1.2021.11beta5(Unknown compile time)
(GPL source distribution)
Java Runtime: Java(TM) SE Runtime Environment
JVM: Java HotSpot(TM) 64-Bit Server VM
Default Encoding: UTF-8
Language: en
Country: US
--></g></svg>